<?xml version="1.0" encoding="UTF-8" standalone="no"?>
<!DOCTYPE svg PUBLIC "-//W3C//DTD SVG 1.1//EN" "http://www.w3.org/Graphics/SVG/1.1/DTD/svg11.dtd">
<svg width="100%" height="100%" viewBox="0 0 24 24" version="1.1" xmlns="http://www.w3.org/2000/svg" xmlns:xlink="http://www.w3.org/1999/xlink" xml:space="preserve" xmlns:serif="http://www.serif.com/" style="fill-rule:evenodd;clip-rule:evenodd;stroke-linejoin:round;stroke-miterlimit:2;">
    <g transform="matrix(1,0,0,1,-27.6545,0)">
        <g id="Trino-Inverted" serif:id="Trino Inverted" transform="matrix(1,0,0,1,27.6545,0)">
            <rect x="0" y="0" width="24" height="24" style="fill:none;"/>
            <g transform="matrix(0.958328,0,0,0.958328,0.500069,0.500067)">
                <path d="M14.124,16.857C14.124,16.855 14.124,16.853 14.124,16.853C14.124,16.764 14.197,16.691 14.285,16.691C14.374,16.691 14.447,16.764 14.447,16.853C14.447,16.941 14.374,17.014 14.285,17.014C14.284,17.014 14.283,17.014 14.282,17.014C14.195,17.014 14.124,16.943 14.124,16.857ZM8.517,16.695C8.428,16.695 8.356,16.768 8.356,16.857C8.356,16.945 8.428,17.018 8.517,17.018C8.606,17.018 8.678,16.945 8.678,16.857C8.678,16.768 8.606,16.695 8.517,16.695ZM18.651,16.031L18.651,18.017C18.62,18.596 18.127,19.041 17.548,19.013L17.164,19.013C16.909,19.657 16.524,20.241 16.034,20.731C15.97,20.791 15.934,20.875 15.934,20.963C15.934,21.051 15.97,21.135 16.034,21.196L16.272,21.415C16.342,21.472 16.383,21.558 16.383,21.649C16.383,21.721 16.357,21.79 16.311,21.845C15.185,23.229 13.344,23.997 11.261,23.997C9.463,24.05 7.72,23.364 6.442,22.099C6.439,22.096 6.436,22.092 6.433,22.089C6.331,21.974 6.275,21.825 6.275,21.672C6.275,21.491 6.353,21.319 6.488,21.2C6.625,21.073 6.625,20.853 6.488,20.727C5.997,20.24 5.613,19.657 5.362,19.013L5.012,19.013C4.432,19.041 3.938,18.597 3.905,18.017L3.905,16.031C3.94,15.453 4.434,15.011 5.012,15.039L5.285,15.039C5.616,13.806 6.348,12.718 7.364,11.945C6.941,10.846 6.211,8.69 6.138,6.938C6.023,4.471 6.219,0.078 7.825,0.001C9.432,-0.076 9.197,4.029 8.924,6.696C8.782,8.175 8.741,9.661 8.801,11.146C9.596,10.853 10.437,10.707 11.284,10.716C11.869,10.714 12.453,10.784 13.021,10.923C13.283,9.655 13.897,7.349 15.05,5.727C16.722,3.375 18.486,0.946 19.662,1.627C20.838,2.307 19.354,4.766 18.332,6.054C17.31,7.341 15.546,9.263 14.958,10.281C14.747,10.666 14.528,11.084 14.362,11.434C15.8,12.173 16.86,13.486 17.279,15.047L17.352,15.047L17.352,12.741C17.354,12.619 17.283,12.507 17.172,12.456C16.843,12.317 16.625,11.998 16.614,11.642C16.665,11.167 17.044,10.788 17.519,10.737C18.078,10.677 18.58,11.082 18.64,11.642C18.629,11.997 18.413,12.315 18.086,12.456C17.98,12.51 17.913,12.621 17.917,12.741L17.917,14.893C17.916,15.011 17.981,15.12 18.086,15.174C18.422,15.328 18.641,15.661 18.651,16.031ZM17.629,12.057C17.638,12.057 17.647,12.058 17.656,12.058C17.887,12.058 18.08,11.873 18.09,11.642C18.089,11.415 17.902,11.229 17.675,11.229C17.447,11.229 17.26,11.417 17.26,11.644C17.26,11.855 17.42,12.033 17.629,12.057ZM17.206,15.535C17.304,16.014 17.354,16.502 17.356,16.991L17.356,17.356L17.767,17.356C17.943,17.356 18.088,17.213 18.09,17.037L18.09,16.03C18.079,15.734 17.817,15.505 17.521,15.535L17.206,15.535ZM13.478,11.054L14.089,11.292C14.803,9.955 15.599,8.664 16.472,7.426C17.76,5.7 18.809,3.844 18.344,3.556C17.879,3.268 16.726,4.786 15.573,6.665C14.774,8.077 14.074,9.544 13.478,11.054ZM9.424,11.726L9.439,13.06C9.436,13.261 9.628,13.419 9.824,13.375C10.301,13.265 10.79,13.209 11.28,13.21C11.77,13.208 12.258,13.266 12.733,13.383C12.929,13.422 13.118,13.267 13.117,13.068L13.117,11.726C13.118,11.58 13.017,11.45 12.875,11.415C12.35,11.289 11.812,11.227 11.272,11.231C10.733,11.227 10.195,11.289 9.67,11.415C9.526,11.449 9.424,11.578 9.424,11.726ZM11.13,18.59L11.13,18.974C11.01,19.132 10.828,19.23 10.631,19.243C10.323,19.243 10.093,18.824 10.093,18.824C10.08,18.8 10.055,18.785 10.028,18.785C10.016,18.785 10.003,18.788 9.993,18.794L9.99,18.795C9.958,18.814 9.947,18.857 9.966,18.89C9.977,18.913 10.246,19.385 10.631,19.385C10.768,19.381 10.902,19.337 11.015,19.259C11.124,19.186 11.267,19.186 11.376,19.259C11.517,19.35 11.681,19.397 11.849,19.393C12.128,19.339 12.37,19.163 12.506,18.913C12.512,18.902 12.516,18.89 12.516,18.878C12.516,18.852 12.502,18.829 12.479,18.817C12.468,18.809 12.455,18.805 12.441,18.805C12.415,18.805 12.391,18.82 12.379,18.844C12.379,18.867 12.16,19.228 11.837,19.251C11.617,19.244 11.408,19.147 11.261,18.982L11.261,18.598C11.261,18.498 11.308,18.404 11.388,18.344C11.584,18.194 11.803,17.948 11.803,17.852C11.744,17.588 11.495,17.407 11.226,17.433C10.85,17.433 10.573,17.683 10.573,17.891C10.573,18.025 10.827,18.229 10.996,18.352C11.074,18.407 11.123,18.495 11.13,18.59ZM7.783,11.646L8.36,11.338C8.34,10.212 8.325,8.195 8.36,6.796C8.413,4.759 8.513,2.222 7.837,2.249C7.161,2.276 6.688,4.229 6.949,7.007C7.116,8.571 7.395,10.121 7.783,11.645ZM4.478,17.037C4.478,17.212 4.622,17.356 4.797,17.356L5.197,17.356C5.189,17.235 5.189,17.113 5.197,16.991C5.198,16.502 5.247,16.014 5.343,15.535C5.294,15.535 5.003,15.535 4.956,15.533C4.692,15.538 4.478,15.757 4.478,16.021C4.478,16.024 4.478,16.027 4.478,16.031L4.478,17.037L4.478,17.037ZM5.396,18.509C5.345,18.326 5.304,18.14 5.273,17.952C5.249,17.795 5.113,17.679 4.954,17.679L4.459,17.679C4.459,17.695 4.457,18.019 4.46,18.034C4.478,18.305 4.706,18.518 4.977,18.518C4.989,18.518 5.001,18.518 5.012,18.517L5.396,18.509ZM15.523,21.426L15.435,21.346C15.327,21.253 15.17,21.242 15.05,21.319C13.905,22.012 12.584,22.362 11.246,22.325C9.911,22.359 8.595,22.009 7.452,21.319C7.333,21.242 7.176,21.253 7.068,21.346L6.98,21.426C6.917,21.486 6.882,21.568 6.882,21.655C6.882,21.741 6.917,21.824 6.98,21.884C8.144,22.96 9.687,23.535 11.272,23.482C12.856,23.532 14.397,22.958 15.561,21.884C15.613,21.826 15.642,21.751 15.642,21.673C15.642,21.577 15.598,21.486 15.523,21.426ZM16.972,17.01C16.972,14.555 15.819,12.683 13.947,11.784C13.739,11.682 13.48,11.843 13.482,12.076L13.482,13.406C13.485,13.536 13.565,13.653 13.686,13.702C15.419,14.413 16.614,15.888 16.614,17.579C16.614,19.85 14.458,21.388 11.272,21.388C8.087,21.388 5.931,19.847 5.931,17.579C5.931,15.888 7.126,14.413 8.859,13.702C8.981,13.654 9.062,13.536 9.063,13.406L9.063,12.084C9.067,11.852 8.809,11.687 8.601,11.792C6.714,12.675 5.562,14.559 5.562,16.999C5.562,19.989 7.848,21.995 11.272,21.995C14.701,21.995 16.972,19.985 16.972,17.01ZM8.363,16.472L8.359,16.472C8.04,16.473 7.777,16.737 7.777,17.057C7.777,17.377 8.041,17.641 8.361,17.641C8.682,17.641 8.946,17.377 8.946,17.057C8.946,16.737 8.683,16.473 8.363,16.472ZM13.525,17.064C13.531,17.387 13.786,17.643 14.109,17.637C14.109,17.637 14.109,17.637 14.109,17.637C14.429,17.637 14.693,17.373 14.693,17.053C14.693,16.732 14.429,16.468 14.109,16.468C13.788,16.468 13.525,16.732 13.525,17.053C13.525,17.057 13.525,17.06 13.525,17.064ZM18.094,17.687L17.594,17.687C17.437,17.689 17.303,17.805 17.279,17.96C17.245,18.133 17.202,18.336 17.152,18.517C17.169,18.518 17.538,18.516 17.554,18.518C17.56,18.518 17.566,18.518 17.572,18.518C17.849,18.518 18.081,18.295 18.09,18.017L18.094,17.687Z" style="fill-rule:nonzero;"/>
            </g>
        </g>
    </g>
</svg>
