<svg version="1.1" xmlns="http://www.w3.org/2000/svg">
    <symbol id="sym" viewBox="0 0 24 24">
        <path d="M8,4.99980749 C8,4.44762906 8.45303631,4 8.99703014,4 L15.0029699,4 C15.5536144,4 16,4.44371665 16,4.99980749 L16,8.00019251 C16,8.55237094 15.5469637,9 15.0029699,9 L8.99703014,9 C8.4463856,9 8,8.55628335 8,8.00019251 L8,4.99980749 Z M2,15.9998075 C2,15.4476291 2.45303631,15 2.99703014,15 L9.00296986,15 C9.5536144,15 10,15.4437166 10,15.9998075 L10,19.0001925 C10,19.5523709 9.54696369,20 9.00296986,20 L2.99703014,20 C2.4463856,20 2,19.5562834 2,19.0001925 L2,15.9998075 Z M14,15.9998075 C14,15.4476291 14.4530363,15 14.9970301,15 L21.0029699,15 C21.5536144,15 22,15.4437166 22,15.9998075 L22,19.0001925 C22,19.5523709 21.5469637,20 21.0029699,20 L14.9970301,20 C14.4463856,20 14,19.5562834 14,19.0001925 L14,15.9998075 Z M11,13 L6,13 L6,14.0189261 L5,14.0189261 L5,12 L10,12 L10,9.99680278 L11,9.99680278 L11,13 Z M14,9.99680278 L14,12 L19,12 L19,14.0189261 L18,14.0189261 L18,13 L13,13 L13,9.99680278 L14,9.99680278 Z" fill='currentcolor' />
    </symbol>
</svg>