<svg><svg:symbol xmlns:svg="http://www.w3.org/2000/svg" id="shape" viewBox="0 0 24 24"><svg:path d="M11,13.5V21.5H3V13.5H11M12,2L17.5,11H6.5L12,2M17.5,13C20,13 22,15 22,17.5C22,20 20,22 17.5,22C15,22 13,20 13,17.5C13,15 15,13 17.5,13Z" fill="currentColor"></svg:path></svg:symbol><svg:symbol xmlns:svg="http://www.w3.org/2000/svg" id="package_down" viewBox="0 0 24 24"><svg:path d="M5.12,5L5.93,4H17.93L18.87,5M12,17.5L6.5,12H10V10H14V12H17.5L12,17.5M20.54,5.23L19.15,3.55C18.88,3.21 18.47,3 18,3H6C5.53,3 5.12,3.21 4.84,3.55L3.46,5.23C3.17,5.57 3,6 3,6.5V19A2,2 0 0,0 5,21H19A2,2 0 0,0 21,19V6.5C21,6 20.83,5.57 20.54,5.23Z" fill="currentColor"></svg:path></svg:symbol><svg:symbol xmlns:svg="http://www.w3.org/2000/svg" id="file_outline" viewBox="0 0 24 24"><svg:path d="M14,2H6A2,2 0 0,0 4,4V20A2,2 0 0,0 6,22H18A2,2 0 0,0 20,20V8L14,2M18,20H6V4H13V9H18V20Z" fill="currentColor"></svg:path></svg:symbol><svg:symbol xmlns:svg="http://www.w3.org/2000/svg" id="search" viewBox="0 0 24 24"><svg:path d="M9.5,3A6.5,6.5 0 0,1 16,9.5C16,11.11 15.41,12.59 14.44,13.73L14.71,14H15.5L20.5,19L19,20.5L14,15.5V14.71L13.73,14.44C12.59,15.41 11.11,16 9.5,16A6.5,6.5 0 0,1 3,9.5A6.5,6.5 0 0,1 9.5,3M9.5,5C7,5 5,7 5,9.5C5,12 7,14 9.5,14C12,14 14,12 14,9.5C14,7 12,5 9.5,5Z" fill="currentColor"></svg:path></svg:symbol><svg:symbol xmlns:svg="http://www.w3.org/2000/svg" id="account_box" viewBox="0 0 24 24"><svg:path d="M6,17C6,15 10,13.9 12,13.9C14,13.9 18,15 18,17V18H6M15,9A3,3 0 0,1 12,12A3,3 0 0,1 9,9A3,3 0 0,1 12,6A3,3 0 0,1 15,9M3,5V19A2,2 0 0,0 5,21H19A2,2 0 0,0 21,19V5A2,2 0 0,0 19,3H5C3.89,3 3,3.9 3,5Z" fill="currentColor"></svg:path></svg:symbol><svg:symbol xmlns:svg="http://www.w3.org/2000/svg" id="file_document_outline_multiple" viewBox="0 0 24 24"><svg:path d="M16 0H8C6.9 0 6 .9 6 2V18C6 19.1 6.9 20 8 20H20C21.1 20 22 19.1 22 18V6L16 0M20 18H8V2H15V7H20V18M4 4V22H20V24H4C2.9 24 2 23.1 2 22V4H4M10 10V12H18V10H10M10 14V16H15V14H10Z" fill="currentColor"></svg:path></svg:symbol><svg:symbol xmlns:svg="http://www.w3.org/2000/svg" id="variable_box" viewBox="0 0 24 24"><svg:path d="M19 3H5C3.9 3 3 3.9 3 5V19C3 20.1 3.9 21 5 21H19C20.1 21 21 20.1 21 19V5C21 3.9 20.1 3 19 3M7.4 18C5.9 16.5 5 14.3 5 12S5.9 7.5 7.4 6L9 6.7C7.7 7.9 7 9.9 7 12S7.7 16.1 9 17.3L7.4 18M12.7 15L11.9 13L10.5 15H9L11.3 11.9L10 9H11.3L12.1 11L13.5 9H15L12.8 12L14.1 15H12.7M16.6 18L15 17.3C16.3 16 17 14.1 17 12S16.3 7.9 15 6.7L16.6 6C18.1 7.5 19 9.7 19 12S18.1 16.5 16.6 18Z" fill="currentcolor"></svg:path></svg:symbol><svg:symbol xmlns:svg="http://www.w3.org/2000/svg" id="account_group" viewBox="0 0 24 24"><svg:path d="M12,5.5A3.5,3.5 0 0,1 15.5,9A3.5,3.5 0 0,1 12,12.5A3.5,3.5 0 0,1 8.5,9A3.5,3.5 0 0,1 12,5.5M5,8C5.56,8 6.08,8.15 6.53,8.42C6.38,9.85 6.8,11.27 7.66,12.38C7.16,13.34 6.16,14 5,14A3,3 0 0,1 2,11A3,3 0 0,1 5,8M19,8A3,3 0 0,1 22,11A3,3 0 0,1 19,14C17.84,14 16.84,13.34 16.34,12.38C17.2,11.27 17.62,9.85 17.47,8.42C17.92,8.15 18.44,8 19,8M5.5,18.25C5.5,16.18 8.41,14.5 12,14.5C15.59,14.5 18.5,16.18 18.5,18.25V20H5.5V18.25M0,20V18.5C0,17.11 1.89,15.94 4.45,15.6C3.86,16.28 3.5,17.22 3.5,18.25V20H0M24,20H20.5V18.25C20.5,17.22 20.14,16.28 19.55,15.6C22.11,15.94 24,17.11 24,18.5V20Z" fill="currentColor"></svg:path></svg:symbol><svg:symbol xmlns:svg="http://www.w3.org/2000/svg" id="block_helper" viewBox="0 0 24 24"><svg:path d="M12,0A12,12 0 0,1 24,12A12,12 0 0,1 12,24A12,12 0 0,1 0,12A12,12 0 0,1 12,0M12,2A10,10 0 0,0 2,12C2,14.4 2.85,16.6 4.26,18.33L18.33,4.26C16.6,2.85 14.4,2 12,2M12,22A10,10 0 0,0 22,12C22,9.6 21.15,7.4 19.74,5.67L5.67,19.74C7.4,21.15 9.6,22 12,22Z" fill="currentColor"></svg:path></svg:symbol><svg:symbol xmlns:svg="http://www.w3.org/2000/svg" id="account" viewBox="0 0 24 24"><svg:path d="M12,4A4,4 0 0,1 16,8A4,4 0 0,1 12,12A4,4 0 0,1 8,8A4,4 0 0,1 12,4M12,14C16.42,14 20,15.79 20,18V20H4V18C4,15.79 7.58,14 12,14Z" fill="currentColor"></svg:path></svg:symbol><svg:symbol xmlns:svg="http://www.w3.org/2000/svg" id="script_solid" viewBox="0 0 24 24"><svg:path d="M17.8,20C17.4,21.2 16.3,22 15,22H5C3.3,22 2,20.7 2,19V18H5L14.2,18C14.6,19.2 15.7,20 17,20H17.8M19,2H8C6.3,2 5,3.3 5,5V16H16V17C16,17.6 16.4,18 17,18H18V5C18,4.4 18.4,4 19,4C19.6,4 20,4.4 20,5V6H22V5C22,3.3 20.7,2 19,2Z" fill="currentcolor"></svg:path></svg:symbol><svg:symbol xmlns:svg="http://www.w3.org/2000/svg" id="file_replace" viewBox="0 0 24 24"><svg:path d="M14,12H19.5L14,6.5V12M8,5H15L21,11V21A2,2 0 0,1 19,23H8C6.89,23 6,22.1 6,21V18H11V20L15,17L11,14V16H6V7A2,2 0 0,1 8,5M13.5,3H4V16H6V18H4A2,2 0 0,1 2,16V3A2,2 0 0,1 4,1H11.5L13.5,3Z" fill="currentColor"></svg:path></svg:symbol><svg:symbol xmlns:svg="http://www.w3.org/2000/svg" id="task_list" viewBox="0 0 24 24"><svg:path d="M3,5H9V11H3V5M5,7V9H7V7H5M11,7H21V9H11V7M11,15H21V17H11V15M5,20L1.5,16.5L2.91,15.09L5,17.17L9.59,12.59L11,14L5,20Z" fill="currentcolor"></svg:path></svg:symbol><svg:symbol xmlns:svg="http://www.w3.org/2000/svg" id="github" viewBox="0 0 24 24"><svg:path d="M12,2A10,10 0 0,0 2,12C2,16.42 4.87,20.17 8.84,21.5C9.34,21.58 9.5,21.27 9.5,21C9.5,20.77 9.5,20.14 9.5,19.31C6.73,19.91 6.14,17.97 6.14,17.97C5.68,16.81 5.03,16.5 5.03,16.5C4.12,15.88 5.1,15.9 5.1,15.9C6.1,15.97 6.63,16.93 6.63,16.93C7.5,18.45 8.97,18 9.54,17.76C9.63,17.11 9.89,16.67 10.17,16.42C7.95,16.17 5.62,15.31 5.62,11.5C5.62,10.39 6,9.5 6.65,8.79C6.55,8.54 6.2,7.5 6.75,6.15C6.75,6.15 7.59,5.88 9.5,7.17C10.29,6.95 11.15,6.84 12,6.84C12.85,6.84 13.71,6.95 14.5,7.17C16.41,5.88 17.25,6.15 17.25,6.15C17.8,7.5 17.45,8.54 17.35,8.79C18,9.5 18.38,10.39 18.38,11.5C18.38,15.32 16.04,16.16 13.81,16.41C14.17,16.72 14.5,17.33 14.5,18.26C14.5,19.6 14.5,20.68 14.5,21C14.5,21.27 14.66,21.59 15.17,21.5C19.14,20.16 22,16.42 22,12A10,10 0 0,0 12,2Z" fill="currentcolor"></svg:path></svg:symbol><svg:symbol xmlns:svg="http://www.w3.org/2000/svg" id="file_question_outline" viewBox="0 0 24 24"><svg:path d="M14 2H6C4.89 2 4 2.9 4 4V20C4 21.11 4.89 22 6 22H18C19.11 22 20 21.11 20 20V8L14 2M18 20H6V4H13V9H18V20M15 13C15 14.89 12.75 15.07 12.75 16.76H11.25C11.25 14.32 13.5 14.5 13.5 13C13.5 12.18 12.83 11.5 12 11.5S10.5 12.18 10.5 13H9C9 11.35 10.34 10 12 10S15 11.35 15 13M12.75 17.5V19H11.25V17.5H12.75Z" fill="currentColor"></svg:path></svg:symbol><svg:symbol xmlns:svg="http://www.w3.org/2000/svg" id="info_outline" viewBox="0 0 24 24"><svg:path d="M11,9H13V7H11M12,20C7.59,20 4,16.41 4,12C4,7.59 7.59,4 12,4C16.41,4 20,7.59 20,12C20,16.41 16.41,20 12,20M12,2A10,10 0 0,0 2,12A10,10 0 0,0 12,22A10,10 0 0,0 22,12A10,10 0 0,0 12,2M11,17H13V11H11V17Z" fill="currentColor"></svg:path></svg:symbol><svg:symbol xmlns:svg="http://www.w3.org/2000/svg" id="database" viewBox="0 0 24 24"><svg:path d="M12,3C7.58,3 4,4.79 4,7C4,9.21 7.58,11 12,11C16.42,11 20,9.21 20,7C20,4.79 16.42,3 12,3M4,9V12C4,14.21 7.58,16 12,16C16.42,16 20,14.21 20,12V9C20,11.21 16.42,13 12,13C7.58,13 4,11.21 4,9M4,14V17C4,19.21 7.58,21 12,21C16.42,21 20,19.21 20,17V14C20,16.21 16.42,18 12,18C7.58,18 4,16.21 4,14Z" fill="currentcolor"></svg:path></svg:symbol><svg:symbol xmlns:svg="http://www.w3.org/2000/svg" id="graph_minus" viewBox="0 0 32 5"><svg:path d="M0 0h32v4.2H0z" fill="currentColor"></svg:path></svg:symbol><svg:symbol xmlns:svg="http://www.w3.org/2000/svg" id="database_view" viewBox="0 0 24 24"><svg:path d="M4 12V9C4 11.2 7.6 13 12 13S20 11.2 20 9V12C20 12.5 19.8 12.9 19.5 13.4C18.7 13.1 17.9 13 17 13C14.5 13 12.1 14.1 10.6 15.9C6.8 15.6 4 14 4 12M12 11C16.4 11 20 9.2 20 7S16.4 3 12 3 4 4.8 4 7 7.6 11 12 11M9.1 19.7L8.8 19L9.1 18.3C9.2 18.1 9.3 18 9.3 17.8C6.2 17.2 4 15.8 4 14V17C4 18.8 6.4 20.3 9.7 20.8C9.5 20.5 9.3 20.1 9.1 19.7M17 18C16.4 18 16 18.4 16 19S16.4 20 17 20 18 19.6 18 19 17.6 18 17 18M23 19C22.1 21.3 19.7 23 17 23S11.9 21.3 11 19C11.9 16.7 14.3 15 17 15S22.1 16.7 23 19M19.5 19C19.5 17.6 18.4 16.5 17 16.5S14.5 17.6 14.5 19 15.6 21.5 17 21.5 19.5 20.4 19.5 19Z" fill="currentcolor"></svg:path></svg:symbol><svg:symbol xmlns:svg="http://www.w3.org/2000/svg" id="scatter_chart" viewBox="0 0 24 24"><svg:path d="M2,2H4V20H22V22H2V2M9,10A3,3 0 0,1 12,13A3,3 0 0,1 9,16A3,3 0 0,1 6,13A3,3 0 0,1 9,10M13,2A3,3 0 0,1 16,5A3,3 0 0,1 13,8A3,3 0 0,1 10,5A3,3 0 0,1 13,2M18,12A3,3 0 0,1 21,15A3,3 0 0,1 18,18A3,3 0 0,1 15,15A3,3 0 0,1 18,12Z" fill="currentcolor"></svg:path></svg:symbol><svg:symbol xmlns:svg="http://www.w3.org/2000/svg" id="heatmap_chart" viewBox="0 0 24 24"><svg:path d="M14,8.5A1.5,1.5 0 0,0 12.5,10A1.5,1.5 0 0,0 14,11.5A1.5,1.5 0 0,0 15.5,10A1.5,1.5 0 0,0 14,8.5M14,12.5A1.5,1.5 0 0,0 12.5,14A1.5,1.5 0 0,0 14,15.5A1.5,1.5 0 0,0 15.5,14A1.5,1.5 0 0,0 14,12.5M10,17A1,1 0 0,0 9,18A1,1 0 0,0 10,19A1,1 0 0,0 11,18A1,1 0 0,0 10,17M10,8.5A1.5,1.5 0 0,0 8.5,10A1.5,1.5 0 0,0 10,11.5A1.5,1.5 0 0,0 11.5,10A1.5,1.5 0 0,0 10,8.5M14,20.5A0.5,0.5 0 0,0 13.5,21A0.5,0.5 0 0,0 14,21.5A0.5,0.5 0 0,0 14.5,21A0.5,0.5 0 0,0 14,20.5M14,17A1,1 0 0,0 13,18A1,1 0 0,0 14,19A1,1 0 0,0 15,18A1,1 0 0,0 14,17M21,13.5A0.5,0.5 0 0,0 20.5,14A0.5,0.5 0 0,0 21,14.5A0.5,0.5 0 0,0 21.5,14A0.5,0.5 0 0,0 21,13.5M18,5A1,1 0 0,0 17,6A1,1 0 0,0 18,7A1,1 0 0,0 19,6A1,1 0 0,0 18,5M18,9A1,1 0 0,0 17,10A1,1 0 0,0 18,11A1,1 0 0,0 19,10A1,1 0 0,0 18,9M18,17A1,1 0 0,0 17,18A1,1 0 0,0 18,19A1,1 0 0,0 19,18A1,1 0 0,0 18,17M18,13A1,1 0 0,0 17,14A1,1 0 0,0 18,15A1,1 0 0,0 19,14A1,1 0 0,0 18,13M10,12.5A1.5,1.5 0 0,0 8.5,14A1.5,1.5 0 0,0 10,15.5A1.5,1.5 0 0,0 11.5,14A1.5,1.5 0 0,0 10,12.5M10,7A1,1 0 0,0 11,6A1,1 0 0,0 10,5A1,1 0 0,0 9,6A1,1 0 0,0 10,7M10,3.5A0.5,0.5 0 0,0 10.5,3A0.5,0.5 0 0,0 10,2.5A0.5,0.5 0 0,0 9.5,3A0.5,0.5 0 0,0 10,3.5M10,20.5A0.5,0.5 0 0,0 9.5,21A0.5,0.5 0 0,0 10,21.5A0.5,0.5 0 0,0 10.5,21A0.5,0.5 0 0,0 10,20.5M3,13.5A0.5,0.5 0 0,0 2.5,14A0.5,0.5 0 0,0 3,14.5A0.5,0.5 0 0,0 3.5,14A0.5,0.5 0 0,0 3,13.5M14,3.5A0.5,0.5 0 0,0 14.5,3A0.5,0.5 0 0,0 14,2.5A0.5,0.5 0 0,0 13.5,3A0.5,0.5 0 0,0 14,3.5M14,7A1,1 0 0,0 15,6A1,1 0 0,0 14,5A1,1 0 0,0 13,6A1,1 0 0,0 14,7M21,10.5A0.5,0.5 0 0,0 21.5,10A0.5,0.5 0 0,0 21,9.5A0.5,0.5 0 0,0 20.5,10A0.5,0.5 0 0,0 21,10.5M6,5A1,1 0 0,0 5,6A1,1 0 0,0 6,7A1,1 0 0,0 7,6A1,1 0 0,0 6,5M3,9.5A0.5,0.5 0 0,0 2.5,10A0.5,0.5 0 0,0 3,10.5A0.5,0.5 0 0,0 3.5,10A0.5,0.5 0 0,0 3,9.5M6,9A1,1 0 0,0 5,10A1,1 0 0,0 6,11A1,1 0 0,0 7,10A1,1 0 0,0 6,9M6,17A1,1 0 0,0 5,18A1,1 0 0,0 6,19A1,1 0 0,0 7,18A1,1 0 0,0 6,17M6,13A1,1 0 0,0 5,14A1,1 0 0,0 6,15A1,1 0 0,0 7,14A1,1 0 0,0 6,13Z" fill="currentcolor"></svg:path></svg:symbol><svg:symbol xmlns:svg="http://www.w3.org/2000/svg" id="dots_vertical" viewBox="0 0 24 24"><svg:path d="M12,16A2,2 0 0,1 14,18A2,2 0 0,1 12,20A2,2 0 0,1 10,18A2,2 0 0,1 12,16M12,10A2,2 0 0,1 14,12A2,2 0 0,1 12,14A2,2 0 0,1 10,12A2,2 0 0,1 12,10M12,4A2,2 0 0,1 14,6A2,2 0 0,1 12,8A2,2 0 0,1 10,6A2,2 0 0,1 12,4Z" fill="currentColor"></svg:path></svg:symbol><svg:symbol xmlns:svg="http://www.w3.org/2000/svg" id="share_variant" viewBox="0 0 24 24"><svg:path d="M18,16.08C17.24,16.08 16.56,16.38 16.04,16.85L8.91,12.7C8.96,12.47 9,12.24 9,12C9,11.76 8.96,11.53 8.91,11.3L15.96,7.19C16.5,7.69 17.21,8 18,8A3,3 0 0,0 21,5A3,3 0 0,0 18,2A3,3 0 0,0 15,5C15,5.24 15.04,5.47 15.09,5.7L8.04,9.81C7.5,9.31 6.79,9 6,9A3,3 0 0,0 3,12A3,3 0 0,0 6,15C6.79,15 7.5,14.69 8.04,14.19L15.16,18.34C15.11,18.55 15.08,18.77 15.08,19C15.08,20.61 16.39,21.91 18,21.91C19.61,21.91 20.92,20.61 20.92,19A2.92,2.92 0 0,0 18,16.08Z" fill="currentColor"></svg:path></svg:symbol><svg:symbol xmlns:svg="http://www.w3.org/2000/svg" id="lock" viewBox="0 0 24 24"><svg:path d="M12,17A2,2 0 0,0 14,15C14,13.89 13.1,13 12,13A2,2 0 0,0 10,15A2,2 0 0,0 12,17M18,8A2,2 0 0,1 20,10V20A2,2 0 0,1 18,22H6A2,2 0 0,1 4,20V10C4,8.89 4.9,8 6,8H7V6A5,5 0 0,1 12,1A5,5 0 0,1 17,6V8H18M12,3A3,3 0 0,0 9,6V8H15V6A3,3 0 0,0 12,3Z" fill="currentColor"></svg:path></svg:symbol><svg:symbol xmlns:svg="http://www.w3.org/2000/svg" id="shell" viewBox="0 0 24 24"><svg:g fill="currentcolor" fillRule="nonzero"><svg:polygon points="0 0 3.03703704 5 0 10 3 10 6 5 3 0"></svg:polygon><svg:polygon points="9 8 9 10 18 10 18 8"></svg:polygon></svg:g></svg:symbol><svg:symbol xmlns:svg="http://www.w3.org/2000/svg" id="file_document_plus" viewBox="0 0 24 24"><svg:path d="M17,14H19V17H22V19H19V22H17V19H14V17H17V14M12,17V15H7V17H12M17,11H7V13H14.69C13.07,14.07 12,15.91 12,18C12,19.09 12.29,20.12 12.8,21H5C3.89,21 3,20.1 3,19V5C3,3.89 3.89,3 5,3H19A2,2 0 0,1 21,5V12.8C20.12,12.29 19.09,12 18,12L17,12.08V11M17,9V7H7V9H17Z" fill="currentcolor"></svg:path></svg:symbol><svg:symbol xmlns:svg="http://www.w3.org/2000/svg" id="link" viewBox="0 0 24 24"><svg:path d="M3.9,12C3.9,10.29 5.29,8.9 7,8.9H11V7H7A5,5 0 0,0 2,12A5,5 0 0,0 7,17H11V15.1H7C5.29,15.1 3.9,13.71 3.9,12M8,13H16V11H8V13M17,7H13V8.9H17C18.71,8.9 20.1,10.29 20.1,12C20.1,13.71 18.71,15.1 17,15.1H13V17H17A5,5 0 0,0 22,12A5,5 0 0,0 17,7Z" fill="currentColor"></svg:path></svg:symbol><svg:symbol xmlns:svg="http://www.w3.org/2000/svg" id="book_open_blank_variant" viewBox="0 0 24 24"><svg:path d="M21,5C19.89,4.65 18.67,4.5 17.5,4.5C15.55,4.5 13.45,4.9 12,6C10.55,4.9 8.45,4.5 6.5,4.5C4.55,4.5 2.45,4.9 1,6V20.65C1,20.9 1.25,21.15 1.5,21.15C1.6,21.15 1.65,21.1 1.75,21.1C3.1,20.45 5.05,20 6.5,20C8.45,20 10.55,20.4 12,21.5C13.35,20.65 15.8,20 17.5,20C19.15,20 20.85,20.3 22.25,21.05C22.35,21.1 22.4,21.1 22.5,21.1C22.75,21.1 23,20.85 23,20.6V6C22.4,5.55 21.75,5.25 21,5M21,18.5C19.9,18.15 18.7,18 17.5,18C15.8,18 13.35,18.65 12,19.5V8C13.35,7.15 15.8,6.5 17.5,6.5C18.7,6.5 19.9,6.65 21,7V18.5Z" fill="currentColor"></svg:path></svg:symbol><svg:symbol xmlns:svg="http://www.w3.org/2000/svg" id="library_shelves" viewBox="0 0 24 24"><svg:path d="M19.5,9V1.5H16.5V9H13.5V1.5H10.5V9H7.5V1.5H4.65V9H3V10.5H21V9H19.5M19.5,13.5H16.5V21H13.5V13.5H10.5V21H7.5V13.5H4.65V21H3V22.5H21V21H19.5V13.5Z" fill="currentColor"></svg:path></svg:symbol><svg:symbol xmlns:svg="http://www.w3.org/2000/svg" id="cloud_upload" viewBox="0 0 24 24"><svg:path d="M14,13V17H10V13H7L12,8L17,13M19.35,10.03C18.67,6.59 15.64,4 12,4C9.11,4 6.6,5.64 5.35,8.03C2.34,8.36 0,10.9 0,14A6,6 0 0,0 6,20H19A5,5 0 0,0 24,15C24,12.36 21.95,10.22 19.35,10.03Z" fill="currentcolor"></svg:path></svg:symbol><svg:symbol xmlns:svg="http://www.w3.org/2000/svg" id="file_download" viewBox="0 0 24 24"><svg:path d="M14,2H6C4.89,2 4,2.89 4,4V20C4,21.11 4.89,22 6,22H18C19.11,22 20,21.11 20,20V8L14,2M12,19L8,15H10.5V12H13.5V15H16L12,19M13,9V3.5L18.5,9H13Z" fill="currentcolor"></svg:path></svg:symbol><svg:symbol xmlns:svg="http://www.w3.org/2000/svg" id="library_books" viewBox="0 0 24 24"><svg:path d="M4 6H2v14c0 1.1.9 2 2 2h14v-2H4V6zm16-4H8c-1.1 0-2 .9-2 2v12c0 1.1.9 2 2 2h12c1.1 0 2-.9 2-2V4c0-1.1-.9-2-2-2zm-1 9H9V9h10v2zm-4 4H9v-2h6v2zm4-8H9V5h10v2z" fill="currentcolor"></svg:path></svg:symbol><svg:symbol xmlns:svg="http://www.w3.org/2000/svg" id="settings" viewBox="0 0 24 24"><svg:path d="M19.43 12.98c.04-.32.07-.64.07-.98s-.03-.66-.07-.98l2.11-1.65c.19-.15.24-.42.12-.64l-2-3.46c-.12-.22-.39-.3-.61-.22l-2.49 1c-.52-.4-1.08-.73-1.69-.98l-.38-2.65C14.46 2.18 14.25 2 14 2h-4c-.25 0-.46.18-.49.42l-.38 2.65c-.61.25-1.17.59-1.69.98l-2.49-1c-.23-.09-.49 0-.61.22l-2 3.46c-.13.22-.07.49.12.64l2.11 1.65c-.04.32-.07.65-.07.98s.03.66.07.98l-2.11 1.65c-.19.15-.24.42-.12.64l2 3.46c.12.22.39.3.61.22l2.49-1c.52.4 1.08.73 1.69.98l.38 2.65c.03.24.24.42.49.42h4c.25 0 .46-.18.49-.42l.38-2.65c.61-.25 1.17-.59 1.69-.98l2.49 1c.23.09.49 0 .61-.22l2-3.46c.12-.22.07-.49-.12-.64l-2.11-1.65zM12 15.5c-1.93 0-3.5-1.57-3.5-3.5s1.57-3.5 3.5-3.5 3.5 1.57 3.5 3.5-1.57 3.5-3.5 3.5z" fill="currentcolor"></svg:path></svg:symbol><svg:symbol xmlns:svg="http://www.w3.org/2000/svg" id="file_question" viewBox="0 0 24 24"><svg:path d="M6,2C4.89,2 4,2.89 4,4V20A2,2 0 0,0 6,22H18A2,2 0 0,0 20,20V8L14,2H6M13,3.5L18.5,9H13V3.5M12,11A3,3 0 0,1 15,14C15,15.88 12.75,16.06 12.75,17.75H11.25C11.25,15.31 13.5,15.5 13.5,14A1.5,1.5 0 0,0 12,12.5A1.5,1.5 0 0,0 10.5,14H9A3,3 0 0,1 12,11M11.25,18.5H12.75V20H11.25V18.5Z" fill="currentColor"></svg:path></svg:symbol><svg:symbol xmlns:svg="http://www.w3.org/2000/svg" id="school" viewBox="0 0 24 24"><svg:path d="M12,3L1,9L12,15L21,10.09V17H23V9M5,13.18V17.18L12,21L19,17.18V13.18L12,17L5,13.18Z" fill="currentColor"></svg:path></svg:symbol><svg:symbol xmlns:svg="http://www.w3.org/2000/svg" id="zip_box" viewBox="0 0 24 24"><svg:path d="M14,17H12V15H10V13H12V15H14M14,9H12V11H14V13H12V11H10V9H12V7H10V5H12V7H14M19,3H5C3.89,3 3,3.89 3,5V19A2,2 0 0,0 5,21H19A2,2 0 0,0 21,19V5C21,3.89 20.1,3 19,3Z" fill="currentColor"></svg:path></svg:symbol><svg:symbol xmlns:svg="http://www.w3.org/2000/svg" id="bring_forward" viewBox="0 0 24 24"><svg:path d="M2,2H16V16H2V2M22,8V22H8V18H10V20H20V10H18V8H22Z" fill="currentColor"></svg:path></svg:symbol><svg:symbol xmlns:svg="http://www.w3.org/2000/svg" id="file_replace_outline" viewBox="0 0 24 24"><svg:path d="M14,3L12,1H4A2,2 0 0,0 2,3V15A2,2 0 0,0 4,17H11V19L15,16L11,13V15H4V3H14M21,10V21A2,2 0 0,1 19,23H8A2,2 0 0,1 6,21V19H8V21H19V12H14V7H8V13H6V7A2,2 0 0,1 8,5H16L21,10Z" fill="currentColor"></svg:path></svg:symbol><svg:symbol xmlns:svg="http://www.w3.org/2000/svg" id="lock_alert" viewBox="0 0 24 24"><svg:path d="M10 17C11.1 17 12 16.1 12 15C12 13.9 11.1 13 10 13C8.9 13 8 13.9 8 15S8.9 17 10 17M16 8C17.1 8 18 8.9 18 10V20C18 21.1 17.1 22 16 22H4C2.9 22 2 21.1 2 20V10C2 8.9 2.9 8 4 8H5V6C5 3.2 7.2 1 10 1S15 3.2 15 6V8H16M10 3C8.3 3 7 4.3 7 6V8H13V6C13 4.3 11.7 3 10 3M22 13H20V7H22V13M22 17H20V15H22V17Z" fill="currentColor"></svg:path></svg:symbol><svg:symbol xmlns:svg="http://www.w3.org/2000/svg" id="file_document_multiple" viewBox="0 0 24 24"><svg:path d="M4 4V22H20V24H4C2.9 24 2 23.1 2 22V4H4M15 7H20.5L15 1.5V7M8 0H16L22 6V18C22 19.11 21.11 20 20 20H8C6.89 20 6 19.1 6 18V2C6 .89 6.89 0 8 0M17 16V14H8V16H17M20 12V10H8V12H20Z" fill="currentColor"></svg:path></svg:symbol><svg:symbol xmlns:svg="http://www.w3.org/2000/svg" id="histogram_chart" viewBox="0 0 24 24"><svg:path d="M3,3H5V13H9V7H13V11H17V15H21V21H3V3Z" fill="currentColor"></svg:path></svg:symbol><svg:symbol xmlns:svg="http://www.w3.org/2000/svg" id="bar_chart" viewBox="0 0 24 24"><svg:path d="M22,21H2V3H4V19H6V10H10V19H12V6H16V19H18V14H22V21Z" fill="currentcolor"></svg:path></svg:symbol><svg:symbol xmlns:svg="http://www.w3.org/2000/svg" id="variable" viewBox="0 0 24 24"><svg:path d="M20.41,3C21.8,5.71 22.35,8.84 22,12C21.8,15.16 20.7,18.29 18.83,21L17.3,20C18.91,17.57 19.85,14.8 20,12C20.34,9.2 19.89,6.43 18.7,4L20.41,3M5.17,3L6.7,4C5.09,6.43 4.15,9.2 4,12C3.66,14.8 4.12,17.57 5.3,20L3.61,21C2.21,18.29 1.65,15.17 2,12C2.2,8.84 3.3,5.71 5.17,3M12.08,10.68L14.4,7.45H16.93L13.15,12.45L15.35,17.37H13.09L11.71,14L9.28,17.33H6.76L10.66,12.21L8.53,7.45H10.8L12.08,10.68Z" fill="currentcolor"></svg:path></svg:symbol><svg:symbol xmlns:svg="http://www.w3.org/2000/svg" id="dashboard" viewBox="0 0 24 24"><svg:path d="M3 13h8V3H3v10zm0 8h8v-6H3v6zm10 0h8V11h-8v10zm0-18v6h8V3h-8z" fill="currentcolor"></svg:path></svg:symbol><svg:symbol xmlns:svg="http://www.w3.org/2000/svg" id="chevron_right" viewBox="0 0 24 24"><svg:path d="M10 6L8.59 7.41 13.17 12l-4.58 4.59L10 18l6-6z" fill="currentcolor"></svg:path></svg:symbol><svg:symbol xmlns:svg="http://www.w3.org/2000/svg" id="code" viewBox="0 0 24 24"><svg:path d="M14.6,16.6L19.2,12L14.6,7.4L16,6L22,12L16,18L14.6,16.6M9.4,16.6L4.8,12L9.4,7.4L8,6L2,12L8,18L9.4,16.6Z" fill="currentcolor"></svg:path></svg:symbol><svg:symbol xmlns:svg="http://www.w3.org/2000/svg" id="chevron_left" viewBox="0 0 24 24"><svg:path d="M15.41 7.41L14 6l-6 6 6 6 1.41-1.41L10.83 12z" fill="currentcolor"></svg:path></svg:symbol><svg:symbol xmlns:svg="http://www.w3.org/2000/svg" id="clipboard_text" viewBox="0 0 24 24"><svg:path d="M17,9H7V7H17M17,13H7V11H17M14,17H7V15H14M12,3A1,1 0 0,1 13,4A1,1 0 0,1 12,5A1,1 0 0,1 11,4A1,1 0 0,1 12,3M19,3H14.82C14.4,1.84 13.3,1 12,1C10.7,1 9.6,1.84 9.18,3H5A2,2 0 0,0 3,5V19A2,2 0 0,0 5,21H19A2,2 0 0,0 21,19V5A2,2 0 0,0 19,3Z" fill="currentColor"></svg:path></svg:symbol><svg:symbol xmlns:svg="http://www.w3.org/2000/svg" id="chevron_down_circle" viewBox="0 0 24 24"><svg:path d="M22,12A10,10 0 0,1 12,22A10,10 0 0,1 2,12A10,10 0 0,1 12,2A10,10 0 0,1 22,12M6,10L12,16L18,10L16.6,8.6L12,13.2L7.4,8.6L6,10Z" fill="currentColor"></svg:path></svg:symbol><svg:symbol xmlns:svg="http://www.w3.org/2000/svg" id="open_in_app" viewBox="0 0 24 24"><svg:path d="M12,10L8,14H11V20H13V14H16M19,4H5C3.89,4 3,4.9 3,6V18A2,2 0 0,0 5,20H9V18H5V8H19V18H15V20H19A2,2 0 0,0 21,18V6A2,2 0 0,0 19,4Z" fill="currentColor"></svg:path></svg:symbol><svg:symbol xmlns:svg="http://www.w3.org/2000/svg" id="account_circle" viewBox="0 0 24 24"><svg:path d="M12,19.2C9.5,19.2 7.29,17.92 6,16C6.03,14 10,12.9 12,12.9C14,12.9 17.97,14 18,16C16.71,17.92 14.5,19.2 12,19.2M12,5A3,3 0 0,1 15,8A3,3 0 0,1 12,11A3,3 0 0,1 9,8A3,3 0 0,1 12,5M12,2A10,10 0 0,0 2,12A10,10 0 0,0 12,22A10,10 0 0,0 22,12C22,6.47 17.5,2 12,2Z" fill="currentColor"></svg:path></svg:symbol><svg:symbol xmlns:svg="http://www.w3.org/2000/svg" id="arrow_right" viewBox="0 0 24 24"><svg:path d="M4,11V13H16L10.5,18.5L11.92,19.92L19.84,12L11.92,4.08L10.5,5.5L16,11H4Z" fill="currentColor"></svg:path></svg:symbol><svg:symbol xmlns:svg="http://www.w3.org/2000/svg" id="ruler" viewBox="0 0 24 24"><svg:path d="M3,5V21H9V19.5H7V18H9V16.5H5V15H9V13.5H7V12H9V10.5H5V9H9V5H10.5V9H12V7H13.5V9H15V5H16.5V9H18V7H19.5V9H21V3H5A2,2 0 0,0 3,5M6,7A1,1 0 0,1 5,6A1,1 0 0,1 6,5A1,1 0 0,1 7,6A1,1 0 0,1 6,7Z" fill="currentcolor"></svg:path></svg:symbol><svg:symbol xmlns:svg="http://www.w3.org/2000/svg" id="cursor" viewBox="0 0 24 24"><svg:path d="M13.64,21.97C13.14,22.21 12.54,22 12.31,21.5L10.13,16.76L7.62,18.78C7.45,18.92 7.24,19 7,19A1,1 0 0,1 6,18V3A1,1 0 0,1 7,2C7.24,2 7.47,2.09 7.64,2.23L7.65,2.22L19.14,11.86C19.57,12.22 19.62,12.85 19.27,13.27C19.12,13.45 18.91,13.57 18.7,13.61L15.54,14.23L17.74,18.96C18,19.46 17.76,20.05 17.26,20.28L13.64,21.97Z" fill="currentcolor"></svg:path></svg:symbol><svg:symbol xmlns:svg="http://www.w3.org/2000/svg" id="table_multiple" viewBox="0 0 24 24"><svg:path d="M7 2H21C22.11 2 23 2.9 23 4V16C23 17.11 22.11 18 21 18H7C5.9 18 5 17.11 5 16V4C5 2.9 5.9 2 7 2M7 6V10H13V6H7M15 6V10H21V6H15M7 12V16H13V12H7M15 12V16H21V12H15M3 20V6H1V20C1 21.11 1.89 22 3 22H19V20H3Z" fill="currentColor"></svg:path></svg:symbol><svg:symbol xmlns:svg="http://www.w3.org/2000/svg" id="check" viewBox="0 0 24 24"><svg:path d="M9 16.17L4.83 12l-1.42 1.41L9 19 21 7l-1.41-1.41z" fill="currentcolor"></svg:path></svg:symbol><svg:symbol xmlns:svg="http://www.w3.org/2000/svg" id="table_chart" viewBox="0 0 24 24"><svg:path d="M4,3H20A2,2 0 0,1 22,5V20A2,2 0 0,1 20,22H4A2,2 0 0,1 2,20V5A2,2 0 0,1 4,3M4,7V10H8V7H4M10,7V10H14V7H10M20,10V7H16V10H20M4,12V15H8V12H4M4,20H8V17H4V20M10,12V15H14V12H10M10,20H14V17H10V20M20,20V17H16V20H20M20,12H16V15H20V12Z" fill="currentcolor"></svg:path></svg:symbol><svg:symbol xmlns:svg="http://www.w3.org/2000/svg" id="aspect_ratio" viewBox="0 0 24 24"><svg:path d="M19,12H17V15H14V17H19V12M7,9H10V7H5V12H7V9M21,3H3A2,2 0 0,0 1,5V19A2,2 0 0,0 3,21H21A2,2 0 0,0 23,19V5A2,2 0 0,0 21,3M21,19H3V5H21V19Z" fill="currentcolor"></svg:path></svg:symbol><svg:symbol xmlns:svg="http://www.w3.org/2000/svg" id="box_arrow_down" viewBox="0 0 24 24"><svg:path d="M3 3H21V7H3V3M4 21V8H20V21H4M14 14V11H10V14H7L12 19L17 14H14Z" fill="currentColor"></svg:path></svg:symbol><svg:symbol xmlns:svg="http://www.w3.org/2000/svg" id="connection" viewBox="0 0 24 24"><svg:path d="M21.4 7.5C22.2 8.3 22.2 9.6 21.4 10.3L18.6 13.1L10.8 5.3L13.6 2.5C14.4 1.7 15.7 1.7 16.4 2.5L18.2 4.3L21.2 1.3L22.6 2.7L19.6 5.7L21.4 7.5M15.6 13.3L14.2 11.9L11.4 14.7L9.3 12.6L12.1 9.8L10.7 8.4L7.9 11.2L6.4 9.8L3.6 12.6C2.8 13.4 2.8 14.7 3.6 15.4L5.4 17.2L1.4 21.2L2.8 22.6L6.8 18.6L8.6 20.4C9.4 21.2 10.7 21.2 11.4 20.4L14.2 17.6L12.8 16.2L15.6 13.3Z" fill="currentcolor"></svg:path></svg:symbol><svg:symbol xmlns:svg="http://www.w3.org/2000/svg" id="info" viewBox="0 0 24 24"><svg:path d="M13,9H11V7H13M13,17H11V11H13M12,2A10,10 0 0,0 2,12A10,10 0 0,0 12,22A10,10 0 0,0 22,12A10,10 0 0,0 12,2Z" fill="currentColor"></svg:path></svg:symbol><svg:symbol xmlns:svg="http://www.w3.org/2000/svg" id="area_chart" viewBox="0 0 24 24"><svg:path d="M22,21H2V3H4V15.54L9.5,6L16,9.78L20.24,2.45L21.97,3.45L22,21Z" fill="currentcolor"></svg:path></svg:symbol><svg:symbol xmlns:svg="http://www.w3.org/2000/svg" id="add" viewBox="0 0 24 24"><svg:path d="M19 3H5c-1.11 0-2 .9-2 2v14c0 1.1.89 2 2 2h14c1.1 0 2-.9 2-2V5c0-1.1-.9-2-2-2zm-2 10h-4v4h-2v-4H7v-2h4V7h2v4h4v2z" fill="currentcolor"></svg:path></svg:symbol><svg:symbol xmlns:svg="http://www.w3.org/2000/svg" id="speedometer" viewBox="0 0 24 24"><svg:path d="M12,16A3,3 0 0,1 9,13C9,11.88 9.61,10.9 10.5,10.39L20.21,4.77L14.68,14.35C14.18,15.33 13.17,16 12,16M12,3C13.81,3 15.5,3.5 16.97,4.32L14.87,5.53C14,5.19 13,5 12,5A8,8 0 0,0 4,13C4,15.21 4.89,17.21 6.34,18.65H6.35C6.74,19.04 6.74,19.67 6.35,20.06C5.96,20.45 5.32,20.45 4.93,20.07V20.07C3.12,18.26 2,15.76 2,13A10,10 0 0,1 12,3M22,13C22,15.76 20.88,18.26 19.07,20.07V20.07C18.68,20.45 18.05,20.45 17.66,20.06C17.27,19.67 17.27,19.04 17.66,18.65V18.65C19.11,17.2 20,15.21 20,13C20,12 19.81,11 19.46,10.1L20.67,8C21.5,9.5 22,11.18 22,13Z" fill="currentColor"></svg:path></svg:symbol><svg:symbol xmlns:svg="http://www.w3.org/2000/svg" id="file_multiple_outline" viewBox="0 0 24 24"><svg:path d="M16 0H8C6.9 0 6 .9 6 2V18C6 19.1 6.9 20 8 20H20C21.1 20 22 19.1 22 18V6L16 0M20 18H8V2H15V7H20V18M4 4V22H20V24H4C2.9 24 2 23.1 2 22V4H4Z" fill="currentColor"></svg:path></svg:symbol><svg:symbol xmlns:svg="http://www.w3.org/2000/svg" id="close" viewBox="0 0 24 24"><svg:path d="M19 6.41L17.59 5 12 10.59 6.41 5 5 6.41 10.59 12 5 17.59 6.41 19 12 13.41 17.59 19 19 17.59 13.41 12z" fill="currentcolor"></svg:path></svg:symbol><svg:symbol xmlns:svg="http://www.w3.org/2000/svg" id="bookshelf" viewBox="0 0 24 24"><svg:path d="M9 3V18H12V3H9M12 5L16 18L19 17L15 4L12 5M5 5V18H8V5H5M3 19V21H21V19H3Z" fill="currentColor"></svg:path></svg:symbol><svg:symbol xmlns:svg="http://www.w3.org/2000/svg" id="refresh" viewBox="0 0 24 24"><svg:path d="M17.65,6.35C16.2,4.9 14.21,4 12,4A8,8 0 0,0 4,12A8,8 0 0,0 12,20C15.73,20 18.84,17.45 19.73,14H17.65C16.83,16.33 14.61,18 12,18A6,6 0 0,1 6,12A6,6 0 0,1 12,6C13.66,6 15.14,6.69 16.22,7.78L13,11H20V4L17.65,6.35Z" fill="currentcolor"></svg:path></svg:symbol><svg:symbol xmlns:svg="http://www.w3.org/2000/svg" id="file_document_edit" viewBox="0 0 24 24"><svg:path d="M6,2C4.89,2 4,2.89 4,4V20A2,2 0 0,0 6,22H10V20.09L12.09,18H6V16H14.09L16.09,14H6V12H18.09L20,10.09V8L14,2H6M13,3.5L18.5,9H13V3.5M20.15,13C20,13 19.86,13.05 19.75,13.16L18.73,14.18L20.82,16.26L21.84,15.25C22.05,15.03 22.05,14.67 21.84,14.46L20.54,13.16C20.43,13.05 20.29,13 20.15,13M18.14,14.77L12,20.92V23H14.08L20.23,16.85L18.14,14.77Z" fill="currentColor"></svg:path></svg:symbol><svg:symbol xmlns:svg="http://www.w3.org/2000/svg" id="fork" viewBox="0 0 24 24"><svg:path d="M6,2A3,3 0 0,1 9,5C9,6.28 8.19,7.38 7.06,7.81C7.15,8.27 7.39,8.83 8,9.63C9,10.92 11,12.83 12,14.17C13,12.83 15,10.92 16,9.63C16.61,8.83 16.85,8.27 16.94,7.81C15.81,7.38 15,6.28 15,5A3,3 0 0,1 18,2A3,3 0 0,1 21,5C21,6.32 20.14,7.45 18.95,7.85C18.87,8.37 18.64,9 18,9.83C17,11.17 15,13.08 14,14.38C13.39,15.17 13.15,15.73 13.06,16.19C14.19,16.62 15,17.72 15,19A3,3 0 0,1 12,22A3,3 0 0,1 9,19C9,17.72 9.81,16.62 10.94,16.19C10.85,15.73 10.61,15.17 10,14.38C9,13.08 7,11.17 6,9.83C5.36,9 5.13,8.37 5.05,7.85C3.86,7.45 3,6.32 3,5A3,3 0 0,1 6,2M6,4A1,1 0 0,0 5,5A1,1 0 0,0 6,6A1,1 0 0,0 7,5A1,1 0 0,0 6,4M18,4A1,1 0 0,0 17,5A1,1 0 0,0 18,6A1,1 0 0,0 19,5A1,1 0 0,0 18,4M12,18A1,1 0 0,0 11,19A1,1 0 0,0 12,20A1,1 0 0,0 13,19A1,1 0 0,0 12,18Z" fill="currentColor"></svg:path></svg:symbol><svg:symbol xmlns:svg="http://www.w3.org/2000/svg" id="dots_horizontal" viewBox="0 0 24 24"><svg:path d="M16,12A2,2 0 0,1 18,10A2,2 0 0,1 20,12A2,2 0 0,1 18,14A2,2 0 0,1 16,12M10,12A2,2 0 0,1 12,10A2,2 0 0,1 14,12A2,2 0 0,1 12,14A2,2 0 0,1 10,12M4,12A2,2 0 0,1 6,10A2,2 0 0,1 8,12A2,2 0 0,1 6,14A2,2 0 0,1 4,12Z" fill="currentColor"></svg:path></svg:symbol><svg:symbol xmlns:svg="http://www.w3.org/2000/svg" id="content_copy" viewBox="0 0 24 24"><svg:path d="M19,21H8V7H19M19,5H8A2,2 0 0,0 6,7V21A2,2 0 0,0 8,23H19A2,2 0 0,0 21,21V7A2,2 0 0,0 19,5M16,1H4A2,2 0 0,0 2,3V17H4V3H16V1Z" fill="currentColor"></svg:path></svg:symbol><svg:symbol xmlns:svg="http://www.w3.org/2000/svg" id="play" viewBox="0 0 24 24"><svg:path d="M8 5v14l11-7z" fill="currentcolor"></svg:path></svg:symbol><svg:symbol xmlns:svg="http://www.w3.org/2000/svg" id="plan" viewBox="0 0 24 24"><svg:path d="M8,4.99980749 C8,4.44762906 8.45303631,4 8.99703014,4 L15.0029699,4 C15.5536144,4 16,4.44371665 16,4.99980749 L16,8.00019251 C16,8.55237094 15.5469637,9 15.0029699,9 L8.99703014,9 C8.4463856,9 8,8.55628335 8,8.00019251 L8,4.99980749 Z M2,15.9998075 C2,15.4476291 2.45303631,15 2.99703014,15 L9.00296986,15 C9.5536144,15 10,15.4437166 10,15.9998075 L10,19.0001925 C10,19.5523709 9.54696369,20 9.00296986,20 L2.99703014,20 C2.4463856,20 2,19.5562834 2,19.0001925 L2,15.9998075 Z M14,15.9998075 C14,15.4476291 14.4530363,15 14.9970301,15 L21.0029699,15 C21.5536144,15 22,15.4437166 22,15.9998075 L22,19.0001925 C22,19.5523709 21.5469637,20 21.0029699,20 L14.9970301,20 C14.4463856,20 14,19.5562834 14,19.0001925 L14,15.9998075 Z M11,13 L6,13 L6,14.0189261 L5,14.0189261 L5,12 L10,12 L10,9.99680278 L11,9.99680278 L11,13 Z M14,9.99680278 L14,12 L19,12 L19,14.0189261 L18,14.0189261 L18,13 L13,13 L13,9.99680278 L14,9.99680278 Z" fill="currentcolor"></svg:path></svg:symbol><svg:symbol xmlns:svg="http://www.w3.org/2000/svg" id="chat" viewBox="0 0 24 24"><svg:path d="M17,12V3A1,1 0 0,0 16,2H3A1,1 0 0,0 2,3V17L6,13H16A1,1 0 0,0 17,12M21,6H19V15H6V17A1,1 0 0,0 7,18H18L22,22V7A1,1 0 0,0 21,6Z" fill="currentColor"></svg:path></svg:symbol><svg:symbol xmlns:svg="http://www.w3.org/2000/svg" id="table" viewBox="0 0 24 24"><svg:path d="M5,4H19A2,2 0 0,1 21,6V18A2,2 0 0,1 19,20H5A2,2 0 0,1 3,18V6A2,2 0 0,1 5,4M5,8V12H11V8H5M13,8V12H19V8H13M5,14V18H11V14H5M13,14V18H19V14H13Z" fill="currentColor"></svg:path></svg:symbol><svg:symbol xmlns:svg="http://www.w3.org/2000/svg" id="expand_more" viewBox="0 0 24 24"><svg:path d="M16.59 8.59L12 13.17 7.41 8.59 6 10l6 6 6-6z" fill="currentcolor"></svg:path></svg:symbol><svg:symbol xmlns:svg="http://www.w3.org/2000/svg" id="explore" viewBox="0 0 24 24"><svg:path d="M14.19,14.19L6,18L9.81,9.81L18,6M12,2A10,10 0 0,0 2,12A10,10 0 0,0 12,22A10,10 0 0,0 22,12A10,10 0 0,0 12,2M12,10.9A1.1,1.1 0 0,0 10.9,12A1.1,1.1 0 0,0 12,13.1A1.1,1.1 0 0,0 13.1,12A1.1,1.1 0 0,0 12,10.9Z" fill="currentColor"></svg:path></svg:symbol><svg:symbol xmlns:svg="http://www.w3.org/2000/svg" id="redo" viewBox="0 0 24 24"><svg:path d="M18.4 10.6C16.55 8.99 14.15 8 11.5 8c-4.65 0-8.58 3.03-9.96 7.22L3.9 16c1.05-3.19 4.05-5.5 7.6-5.5 1.95 0 3.73.72 5.12 1.88L13 16h9V7l-3.6 3.6z" fill="currentcolor"></svg:path></svg:symbol><svg:symbol xmlns:svg="http://www.w3.org/2000/svg" id="database_search" viewBox="0 0 24 24"><svg:path d="M18.68,12.32C16.92,10.56 14.07,10.57 12.32,12.33C10.56,14.09 10.56,16.94 12.32,18.69C13.81,20.17 16.11,20.43 17.89,19.32L21,22.39L22.39,21L19.3,17.89C20.43,16.12 20.17,13.8 18.68,12.32M17.27,17.27C16.29,18.25 14.71,18.24 13.73,17.27C12.76,16.29 12.76,14.71 13.74,13.73C14.71,12.76 16.29,12.76 17.27,13.73C18.24,14.71 18.24,16.29 17.27,17.27M10.9,20.1C10.25,19.44 9.74,18.65 9.42,17.78C6.27,17.25 4,15.76 4,14V17C4,19.21 7.58,21 12,21V21C11.6,20.74 11.23,20.44 10.9,20.1M4,9V12C4,13.68 6.07,15.12 9,15.7C9,15.63 9,15.57 9,15.5C9,14.57 9.2,13.65 9.58,12.81C6.34,12.3 4,10.79 4,9M12,3C7.58,3 4,4.79 4,7C4,9 7,10.68 10.85,11H10.9C12.1,9.74 13.76,9 15.5,9C16.41,9 17.31,9.19 18.14,9.56C19.17,9.09 19.87,8.12 20,7C20,4.79 16.42,3 12,3Z" fill="currentcolor"></svg:path></svg:symbol><svg:symbol xmlns:svg="http://www.w3.org/2000/svg" id="tables_connected" viewBox="0 0 24 24"><svg:g fill="currentColor" id="Artboard1" transform="matrix(0.880121,0,0,0.985328,0,0)"><svg:g transform="matrix(1.11954,0,0,1,-1.62981,-1.80281e-15)"><svg:g transform="matrix(1.01489,0,0,1.01489,0,0)"><svg:path d="M12,7.273L12,9.227C12,9.653 11.653,10 11.227,10L2.773,10C2.347,10 2,9.653 2,9.227L2,2.773C2,2.347 2.347,2 2.773,2L11.227,2C11.653,2 12,2.347 12,2.773L12,4.525L11,3.583L11,3L7,3L7,9L11,9L11,6.331L12,7.273Z"></svg:path></svg:g><svg:g transform="matrix(0.494064,0,0,0.923665,5.21222,0.0589331)"><svg:rect height="1.099" width="6.676" x="3.83" y="4.057"></svg:rect></svg:g><svg:g transform="matrix(0.494064,0,0,0.923665,5.21222,1.83499)"><svg:rect height="1.099" width="6.676" x="3.83" y="4.057"></svg:rect></svg:g><svg:g transform="matrix(0.494064,0,0,0.923665,5.21222,3.61105)"><svg:rect height="1.099" width="6.676" x="3.83" y="4.057"></svg:rect></svg:g></svg:g><svg:g transform="matrix(1.11954,0,0,1,12.9919,6.08934)"><svg:g transform="matrix(1.01489,0,0,1.01489,-13.0605,-6.08934)"><svg:path d="M14.869,12.275L14.869,9.975L15.869,10.917L15.869,11.333L14.869,12.275ZM15.869,14.08L15.869,15L19.869,15L19.869,9L16.75,9L15.689,8L24.096,8C24.522,8 24.869,8.347 24.869,8.773L24.869,15.227C24.869,15.653 24.522,16 24.096,16L15.642,16C15.215,16 14.869,15.653 14.869,15.227L14.869,15.023L15.869,14.08Z"></svg:path></svg:g><svg:g transform="matrix(0.494064,0,0,0.923665,1.91382,0.0589331)"><svg:rect height="1.099" width="6.676" x="3.83" y="4.057"></svg:rect></svg:g><svg:g transform="matrix(0.494064,0,0,0.923665,1.91382,1.83499)"><svg:rect height="1.099" width="6.676" x="3.83" y="4.057"></svg:rect></svg:g><svg:g transform="matrix(0.494064,0,0,0.923665,1.91382,3.61105)"><svg:rect height="1.099" width="6.676" x="3.83" y="4.057"></svg:rect></svg:g></svg:g><svg:g transform="matrix(1.11954,0,0,1,-1.62981,12.1787)"><svg:g transform="matrix(1.01489,0,0,1.01489,-1.77636e-15,-12.1787)"><svg:path d="M12,17.725L12,21.227C12,21.653 11.653,22 11.227,22L2.773,22C2.347,22 2,21.653 2,21.227L2,14.773C2,14.347 2.347,14 2.773,14L11.227,14C11.653,14 12,14.347 12,14.773L12,14.977L11,15.919L11,15L7,15L7,21L11,21L11,18.667L12,17.725Z"></svg:path></svg:g><svg:g transform="matrix(0.988127,0,0,0.923665,0.021801,0.0589331)"><svg:rect height="1.099" width="6.676" x="3.83" y="4.057"></svg:rect></svg:g><svg:g transform="matrix(0.988127,0,0,0.923665,0.021801,1.83499)"><svg:rect height="1.099" width="6.676" x="3.83" y="4.057"></svg:rect></svg:g><svg:g transform="matrix(0.988127,0,0,0.923665,0.021801,3.61105)"><svg:rect height="1.099" width="6.676" x="3.83" y="4.057"></svg:rect></svg:g><svg:g transform="matrix(0.494064,0,0,0.923665,5.21222,0.0589331)"><svg:rect height="1.099" width="6.676" x="3.83" y="4.057"></svg:rect></svg:g><svg:g transform="matrix(0.494064,0,0,0.923665,5.21222,1.83499)"><svg:rect height="1.099" width="6.676" x="3.83" y="4.057"></svg:rect></svg:g><svg:g transform="matrix(0.494064,0,0,0.923665,5.21222,3.61105)"><svg:rect height="1.099" width="6.676" x="3.83" y="4.057"></svg:rect></svg:g></svg:g><svg:g transform="matrix(1.13621,0,0,1.01489,-1.62981,-1.80281e-15)"><svg:path d="M10.25,4.25L16.619,10.25" style="stroke:black;stroke-width:1px;"></svg:path></svg:g><svg:g transform="matrix(1.13621,0,0,1.01489,-1.62981,-1.80281e-15)"><svg:path d="M16.619,12L10.25,18" style="stroke:black;stroke-width:1px;"></svg:path></svg:g></svg:g></svg:symbol><svg:symbol xmlns:svg="http://www.w3.org/2000/svg" id="insert_chart" viewBox="0 0 24 24"><svg:path d="M19 3H5c-1.1 0-2 .9-2 2v14c0 1.1.9 2 2 2h14c1.1 0 2-.9 2-2V5c0-1.1-.9-2-2-2zM9 17H7v-7h2v7zm4 0h-2V7h2v10zm4 0h-2v-4h2v4z" fill="currentcolor"></svg:path></svg:symbol><svg:symbol xmlns:svg="http://www.w3.org/2000/svg" id="star_outline" viewBox="0 0 24 24"><svg:path d="M12,15.39L8.24,17.66L9.23,13.38L5.91,10.5L10.29,10.13L12,6.09L13.71,10.13L18.09,10.5L14.77,13.38L15.76,17.66M22,9.24L14.81,8.63L12,2L9.19,8.63L2,9.24L7.45,13.97L5.82,21L12,17.27L18.18,21L16.54,13.97L22,9.24Z" fill="currentColor"></svg:path></svg:symbol><svg:symbol xmlns:svg="http://www.w3.org/2000/svg" id="star" viewBox="0 0 24 24"><svg:path d="M12,17.27L18.18,21L16.54,13.97L22,9.24L14.81,8.62L12,2L9.19,8.62L2,9.24L7.45,13.97L5.82,21L12,17.27Z" fill="currentColor"></svg:path></svg:symbol><svg:symbol xmlns:svg="http://www.w3.org/2000/svg" id="arc_chart" viewBox="0 0 24 24"><svg:path d="M16.18,19.6L14.17,16.12C15.15,15.4 15.83,14.28 15.97,13H20C19.83,15.76 18.35,18.16 16.18,19.6M13,7.03V3C17.3,3.26 20.74,6.7 21,11H16.97C16.74,8.91 15.09,7.26 13,7.03M7,12.5C7,13.14 7.13,13.75 7.38,14.3L3.9,16.31C3.32,15.16 3,13.87 3,12.5C3,7.97 6.54,4.27 11,4V8.03C8.75,8.28 7,10.18 7,12.5M11.5,21C8.53,21 5.92,19.5 4.4,17.18L7.88,15.17C8.7,16.28 10,17 11.5,17C12.14,17 12.75,16.87 13.3,16.62L15.31,20.1C14.16,20.68 12.87,21 11.5,21Z" fill="currentcolor"></svg:path></svg:symbol><svg:symbol xmlns:svg="http://www.w3.org/2000/svg" id="edit" viewBox="0 0 24 24"><svg:path d="M20.71,7.04C21.1,6.65 21.1,6 20.71,5.63L18.37,3.29C18,2.9 17.35,2.9 16.96,3.29L15.12,5.12L18.87,8.87M3,17.25V21H6.75L17.81,9.93L14.06,6.18L3,17.25Z" fill="currentcolor"></svg:path></svg:symbol><svg:symbol xmlns:svg="http://www.w3.org/2000/svg" id="streamgraph" viewBox="0 0 24 24"><svg:path d="M17.45,15.18L22,7.31V19L22,21H2V3H4V15.54L9.5,6L16,9.78L20.24,2.45L21.97,3.45L16.74,12.5L10.23,8.75L4.31,19H6.57L10.96,11.44L17.45,15.18Z" fill="currentColor"></svg:path></svg:symbol><svg:symbol xmlns:svg="http://www.w3.org/2000/svg" id="bug" viewBox="0 0 24 24"><svg:path d="M14,12H10V10H14M14,16H10V14H14M20,8H17.19C16.74,7.22 16.12,6.55 15.37,6.04L17,4.41L15.59,3L13.42,5.17C12.96,5.06 12.5,5 12,5C11.5,5 11.04,5.06 10.59,5.17L8.41,3L7,4.41L8.62,6.04C7.88,6.55 7.26,7.22 6.81,8H4V10H6.09C6.04,10.33 6,10.66 6,11V12H4V14H6V15C6,15.34 6.04,15.67 6.09,16H4V18H6.81C7.85,19.79 9.78,21 12,21C14.22,21 16.15,19.79 17.19,18H20V16H17.91C17.96,15.67 18,15.34 18,15V14H20V12H18V11C18,10.66 17.96,10.33 17.91,10H20V8Z" fill="currentColor"></svg:path></svg:symbol><svg:symbol xmlns:svg="http://www.w3.org/2000/svg" id="chevron_down" viewBox="0 0 24 24"><svg:path d="M7.41,8.58L12,13.17L16.59,8.58L18,10L12,16L6,10L7.41,8.58Z" fill="currentColor"></svg:path></svg:symbol><svg:symbol xmlns:svg="http://www.w3.org/2000/svg" id="graph_plus" viewBox="0 0 32 32"><svg:path d="M32 18.133H18.133V32h-4.266V18.133H0v-4.266h13.867V0h4.266v13.867H32z" fill="currentColor"></svg:path></svg:symbol><svg:symbol xmlns:svg="http://www.w3.org/2000/svg" id="autorun" viewBox="0 0 24 24"><svg:path d="M12 4V1L8 5l4 4V6c3.31 0 6 2.69 6 6 0 1.01-.25 1.97-.7 2.8l1.46 1.46C19.54 15.03 20 13.57 20 12c0-4.42-3.58-8-8-8zm0 14c-3.31 0-6-2.69-6-6 0-1.01.25-1.97.7-2.8L5.24 7.74C4.46 8.97 4 10.43 4 12c0 4.42 3.58 8 8 8v3l4-4-4-4v3z" fill="currentcolor"></svg:path></svg:symbol><svg:symbol xmlns:svg="http://www.w3.org/2000/svg" id="compass" viewBox="0 0 24 24"><svg:path d="M14.19,14.19L6,18L9.81,9.81L18,6M12,2A10,10 0 0,0 2,12A10,10 0 0,0 12,22A10,10 0 0,0 22,12A10,10 0 0,0 12,2M12,10.9A1.1,1.1 0 0,0 10.9,12A1.1,1.1 0 0,0 12,13.1A1.1,1.1 0 0,0 13.1,12A1.1,1.1 0 0,0 12,10.9Z" fill="currentColor"></svg:path></svg:symbol><svg:symbol xmlns:svg="http://www.w3.org/2000/svg" id="log" viewBox="0 0 24 24"><svg:path d="M4 2V8H2V2H4M2 22H4V16H2V22M5 12C5 10.9 4.11 10 3 10C1.9 10 1 10.9 1 12C1 13.11 1.9 14 3 14C4.11 14 5 13.11 5 12M24 6V18C24 19.11 23.11 20 22 20H10C8.9 20 8 19.11 8 18V14L6 12L8 10V6C8 4.89 8.9 4 10 4H22C23.11 4 24 4.89 24 6M19 13H11V15H19V13M21 9H11V11H21V9Z" fill="currentcolor"></svg:path></svg:symbol><svg:symbol xmlns:svg="http://www.w3.org/2000/svg" id="table_border" viewBox="0 0 24 24"><svg:path d="M21,19A1,1 0 0,1 20,20H19V18H21V19M15,20V18H17V20H15M11,20V18H13V20H11M7,20V18H9V20H7M4,20A1,1 0 0,1 3,19V18H5V20H4M19,4H5A2,2 0 0,0 3,6V8H5L11,8H13L19,8H21V6C21,4.89 20.11,4 19,4M5,14H3V16H5V14M5,10H3V12H5V10M21,10H19V12H21V10M21,14H19V16H21V14M11,16V14H13V16H11M11,12V10H13V12H11" fill="currentColor"></svg:path></svg:symbol><svg:symbol xmlns:svg="http://www.w3.org/2000/svg" id="chart_box" viewBox="0 0 24 24"><svg:path d="M19 3H5C3.9 3 3 3.9 3 5V19C3 20.1 3.9 21 5 21H19C20.1 21 21 20.1 21 19V5C21 3.9 20.1 3 19 3M9 17H7V10H9V17M13 17H11V7H13V17M17 17H15V13H17V17Z" fill="currentColor"></svg:path></svg:symbol><svg:symbol xmlns:svg="http://www.w3.org/2000/svg" id="analytics" viewBox="0 0 24 24"><svg:path d="M19 3H5c-1.1 0-2 .9-2 2v14c0 1.1.9 2 2 2h14c1.1 0 2-.9 2-2V5c0-1.1-.9-2-2-2zM9 17H7v-5h2v5zm4 0h-2v-3h2v3zm0-5h-2v-2h2v2zm4 5h-2V7h2v10z" fill="currentcolor"></svg:path></svg:symbol><svg:symbol xmlns:svg="http://www.w3.org/2000/svg" id="arrow_right_circle" viewBox="0 0 24 24"><svg:path d="M22,12A10,10 0 0,1 12,22A10,10 0 0,1 2,12A10,10 0 0,1 12,2A10,10 0 0,1 22,12M6,13H14L10.5,16.5L11.92,17.92L17.84,12L11.92,6.08L10.5,7.5L14,11H6V13Z" fill="currentColor"></svg:path></svg:symbol><svg:symbol xmlns:svg="http://www.w3.org/2000/svg" id="delete" viewBox="0 0 24 24"><svg:path d="M19,4H15.5L14.5,3H9.5L8.5,4H5V6H19M6,19A2,2 0 0,0 8,21H16A2,2 0 0,0 18,19V7H6V19Z" fill="currentcolor"></svg:path></svg:symbol><svg:symbol xmlns:svg="http://www.w3.org/2000/svg" id="folder_account" viewBox="0 0 24 24"><svg:path d="M19,17H11V16C11,14.67 13.67,14 15,14C16.33,14 19,14.67 19,16M15,9A2,2 0 0,1 17,11A2,2 0 0,1 15,13A2,2 0 0,1 13,11C13,9.89 13.9,9 15,9M20,6H12L10,4H4C2.89,4 2,4.89 2,6V18A2,2 0 0,0 4,20H20A2,2 0 0,0 22,18V8C22,6.89 21.1,6 20,6Z" fill="currentColor"></svg:path></svg:symbol><svg:symbol xmlns:svg="http://www.w3.org/2000/svg" id="eye" viewBox="0 0 24 24"><svg:path d="M12,9A3,3 0 0,0 9,12A3,3 0 0,0 12,15A3,3 0 0,0 15,12A3,3 0 0,0 12,9M12,17A5,5 0 0,1 7,12A5,5 0 0,1 12,7A5,5 0 0,1 17,12A5,5 0 0,1 12,17M12,4.5C7,4.5 2.73,7.61 1,12C2.73,16.39 7,19.5 12,19.5C17,19.5 21.27,16.39 23,12C21.27,7.61 17,4.5 12,4.5Z" fill="currentcolor"></svg:path></svg:symbol><svg:symbol xmlns:svg="http://www.w3.org/2000/svg" id="web" viewBox="0 0 24 24"><svg:path d="M16.36,14C16.44,13.34 16.5,12.68 16.5,12C16.5,11.32 16.44,10.66 16.36,10H19.74C19.9,10.64 20,11.31 20,12C20,12.69 19.9,13.36 19.74,14M14.59,19.56C15.19,18.45 15.65,17.25 15.97,16H18.92C17.96,17.65 16.43,18.93 14.59,19.56M14.34,14H9.66C9.56,13.34 9.5,12.68 9.5,12C9.5,11.32 9.56,10.65 9.66,10H14.34C14.43,10.65 14.5,11.32 14.5,12C14.5,12.68 14.43,13.34 14.34,14M12,19.96C11.17,18.76 10.5,17.43 10.09,16H13.91C13.5,17.43 12.83,18.76 12,19.96M8,8H5.08C6.03,6.34 7.57,5.06 9.4,4.44C8.8,5.55 8.35,6.75 8,8M5.08,16H8C8.35,17.25 8.8,18.45 9.4,19.56C7.57,18.93 6.03,17.65 5.08,16M4.26,14C4.1,13.36 4,12.69 4,12C4,11.31 4.1,10.64 4.26,10H7.64C7.56,10.66 7.5,11.32 7.5,12C7.5,12.68 7.56,13.34 7.64,14M12,4.03C12.83,5.23 13.5,6.57 13.91,8H10.09C10.5,6.57 11.17,5.23 12,4.03M18.92,8H15.97C15.65,6.75 15.19,5.55 14.59,4.44C16.43,5.07 17.96,6.34 18.92,8M12,2C6.47,2 2,6.5 2,12A10,10 0 0,0 12,22A10,10 0 0,0 22,12A10,10 0 0,0 12,2Z" fill="currentColor"></svg:path></svg:symbol><svg:symbol xmlns:svg="http://www.w3.org/2000/svg" id="text_card" viewBox="0 0 24 24"><svg:path d="M20,20H4A2,2 0 0,1 2,18V6A2,2 0 0,1 4,4H20A2,2 0 0,1 22,6V18A2,2 0 0,1 20,20M5,13V15H16V13H5M5,9V11H19V9H5Z" fill="currentcolor"></svg:path></svg:symbol><svg:symbol xmlns:svg="http://www.w3.org/2000/svg" id="share" viewBox="0 0 24 24"><svg:path d="M21,12L14,5V9C7,10 4,15 3,20C5.5,16.5 9,14.9 14,14.9V19L21,12Z" fill="currentColor"></svg:path></svg:symbol><svg:symbol xmlns:svg="http://www.w3.org/2000/svg" id="folder_open" viewBox="0 0 24 24"><svg:path d="M19,20H4C2.89,20 2,19.1 2,18V6C2,4.89 2.89,4 4,4H10L12,6H19A2,2 0 0,1 21,8H21L4,8V18L6.14,10H23.21L20.93,18.5C20.7,19.37 19.92,20 19,20Z" fill="currentColor"></svg:path></svg:symbol><svg:symbol xmlns:svg="http://www.w3.org/2000/svg" id="undo" viewBox="0 0 24 24"><svg:path d="M12.5 8c-2.65 0-5.05.99-6.9 2.6L2 7v9h9l-3.62-3.62c1.39-1.16 3.16-1.88 5.12-1.88 3.54 0 6.55 2.31 7.6 5.5l2.37-.78C21.08 11.03 17.15 8 12.5 8z" fill="currentcolor"></svg:path></svg:symbol><svg:symbol xmlns:svg="http://www.w3.org/2000/svg" id="clipboard_check" viewBox="0 0 24 24"><svg:path d="M10,17L6,13L7.41,11.59L10,14.17L16.59,7.58L18,9M12,3A1,1 0 0,1 13,4A1,1 0 0,1 12,5A1,1 0 0,1 11,4A1,1 0 0,1 12,3M19,3H14.82C14.4,1.84 13.3,1 12,1C10.7,1 9.6,1.84 9.18,3H5A2,2 0 0,0 3,5V19A2,2 0 0,0 5,21H19A2,2 0 0,0 21,19V5A2,2 0 0,0 19,3Z" fill="currentColor"></svg:path></svg:symbol><svg:symbol xmlns:svg="http://www.w3.org/2000/svg" id="scale_balance" viewBox="0 0 24 24"><svg:path d="M12,3C10.73,3 9.6,3.8 9.18,5H3V7H4.95L2,14C1.53,16 3,17 5.5,17C8,17 9.56,16 9,14L6.05,7H9.17C9.5,7.85 10.15,8.5 11,8.83V20H2V22H22V20H13V8.82C13.85,8.5 14.5,7.85 14.82,7H17.95L15,14C14.53,16 16,17 18.5,17C21,17 22.56,16 22,14L19.05,7H21V5H14.83C14.4,3.8 13.27,3 12,3M12,5A1,1 0 0,1 13,6A1,1 0 0,1 12,7A1,1 0 0,1 11,6A1,1 0 0,1 12,5M5.5,10.25L7,14H4L5.5,10.25M18.5,10.25L20,14H17L18.5,10.25Z" fill="currentColor"></svg:path></svg:symbol><svg:symbol xmlns:svg="http://www.w3.org/2000/svg" id="discord" viewBox="0 0 71 55"><svg:path d="M60.1045 4.8978C55.5792 2.8214 50.7265 1.2916 45.6527 0.41542C45.5603 0.39851 45.468 0.440769 45.4204 0.525289C44.7963 1.6353 44.105 3.0834 43.6209 4.2216C38.1637 3.4046 32.7345 3.4046 27.3892 4.2216C26.905 3.0581 26.1886 1.6353 25.5617 0.525289C25.5141 0.443589 25.4218 0.40133 25.3294 0.41542C20.2584 1.2888 15.4057 2.8186 10.8776 4.8978C10.8384 4.9147 10.8048 4.9429 10.7825 4.9795C1.57795 18.7309 -0.943561 32.1443 0.293408 45.3914C0.299005 45.4562 0.335386 45.5182 0.385761 45.5576C6.45866 50.0174 12.3413 52.7249 18.1147 54.5195C18.2071 54.5477 18.305 54.5139 18.3638 54.4378C19.7295 52.5728 20.9469 50.6063 21.9907 48.5383C22.0523 48.4172 21.9935 48.2735 21.8676 48.2256C19.9366 47.4931 18.0979 46.6 16.3292 45.5858C16.1893 45.5041 16.1781 45.304 16.3068 45.2082C16.679 44.9293 17.0513 44.6391 17.4067 44.3461C17.471 44.2926 17.5606 44.2813 17.6362 44.3151C29.2558 49.6202 41.8354 49.6202 53.3179 44.3151C53.3935 44.2785 53.4831 44.2898 53.5502 44.3433C53.9057 44.6363 54.2779 44.9293 54.6529 45.2082C54.7816 45.304 54.7732 45.5041 54.6333 45.5858C52.8646 46.6197 51.0259 47.4931 49.0921 48.2228C48.9662 48.2707 48.9102 48.4172 48.9718 48.5383C50.038 50.6034 51.2554 52.5699 52.5959 54.435C52.6519 54.5139 52.7526 54.5477 52.845 54.5195C58.6464 52.7249 64.529 50.0174 70.6019 45.5576C70.6551 45.5182 70.6887 45.459 70.6943 45.3942C72.1747 30.0791 68.2147 16.7757 60.1968 4.9823C60.1772 4.9429 60.1437 4.9147 60.1045 4.8978ZM23.7259 37.3253C20.2276 37.3253 17.3451 34.1136 17.3451 30.1693C17.3451 26.225 20.1717 23.0133 23.7259 23.0133C27.308 23.0133 30.1626 26.2532 30.1066 30.1693C30.1066 34.1136 27.28 37.3253 23.7259 37.3253ZM47.3178 37.3253C43.8196 37.3253 40.9371 34.1136 40.9371 30.1693C40.9371 26.225 43.7636 23.0133 47.3178 23.0133C50.9 23.0133 53.7545 26.2532 53.6986 30.1693C53.6986 34.1136 50.9 37.3253 47.3178 37.3253Z" fill="currentColor"></svg:path></svg:symbol><svg:symbol xmlns:svg="http://www.w3.org/2000/svg" id="calendar" viewBox="0 0 24 24"><svg:path d="M19,19H5V8H19M16,1V3H8V1H6V3H5C3.89,3 3,3.89 3,5V19A2,2 0 0,0 5,21H19A2,2 0 0,0 21,19V5C21,3.89 20.1,3 19,3H18V1M17,12H12V17H17V12Z" fill="currentColor"></svg:path></svg:symbol><svg:symbol xmlns:svg="http://www.w3.org/2000/svg" id="cloud" viewBox="0 0 24 24"><svg:path d="M19.35,10.03C18.67,6.59 15.64,4 12,4C9.11,4 6.6,5.64 5.35,8.03C2.34,8.36 0,10.9 0,14A6,6 0 0,0 6,20H19A5,5 0 0,0 24,15C24,12.36 21.95,10.22 19.35,10.03Z" fill="currentColor"></svg:path></svg:symbol><svg:symbol xmlns:svg="http://www.w3.org/2000/svg" id="book_open_variant" viewBox="0 0 24 24"><svg:path d="M17.5 14.33C18.29 14.33 19.13 14.41 20 14.57V16.07C19.38 15.91 18.54 15.83 17.5 15.83C15.6 15.83 14.11 16.16 13 16.82V15.13C14.17 14.6 15.67 14.33 17.5 14.33M13 12.46C14.29 11.93 15.79 11.67 17.5 11.67C18.29 11.67 19.13 11.74 20 11.9V13.4C19.38 13.24 18.54 13.16 17.5 13.16C15.6 13.16 14.11 13.5 13 14.15M17.5 10.5C15.6 10.5 14.11 10.82 13 11.5V9.84C14.23 9.28 15.73 9 17.5 9C18.29 9 19.13 9.08 20 9.23V10.78C19.26 10.59 18.41 10.5 17.5 10.5M21 18.5V7C19.96 6.67 18.79 6.5 17.5 6.5C15.45 6.5 13.62 7 12 8V19.5C13.62 18.5 15.45 18 17.5 18C18.69 18 19.86 18.16 21 18.5M17.5 4.5C19.85 4.5 21.69 5 23 6V20.56C23 20.68 22.95 20.8 22.84 20.91C22.73 21 22.61 21.08 22.5 21.08C22.39 21.08 22.31 21.06 22.25 21.03C20.97 20.34 19.38 20 17.5 20C15.45 20 13.62 20.5 12 21.5C10.66 20.5 8.83 20 6.5 20C4.84 20 3.25 20.36 1.75 21.07C1.72 21.08 1.68 21.08 1.63 21.1C1.59 21.11 1.55 21.12 1.5 21.12C1.39 21.12 1.27 21.08 1.16 21C1.05 20.89 1 20.78 1 20.65V6C2.34 5 4.18 4.5 6.5 4.5C8.83 4.5 10.66 5 12 6C13.34 5 15.17 4.5 17.5 4.5Z" fill="currentColor"></svg:path></svg:symbol><svg:symbol xmlns:svg="http://www.w3.org/2000/svg" id="file_multiple" viewBox="0 0 24 24"><svg:path d="M15,7H20.5L15,1.5V7M8,0H16L22,6V18A2,2 0 0,1 20,20H8C6.89,20 6,19.1 6,18V2A2,2 0 0,1 8,0M4,4V22H20V24H4A2,2 0 0,1 2,22V4H4Z" fill="currentColor"></svg:path></svg:symbol><svg:symbol xmlns:svg="http://www.w3.org/2000/svg" id="console" viewBox="0 0 24 24"><svg:path d="M13,19V16H21V19H13M8.5,13L2.47,7H6.71L11.67,11.95C12.25,12.54 12.25,13.5 11.67,14.07L6.74,19H2.5L8.5,13Z" fill="currentcolor"></svg:path></svg:symbol><svg:symbol xmlns:svg="http://www.w3.org/2000/svg" id="chevron_right_circle" viewBox="0 0 24 24"><svg:path d="M22,12A10,10 0 0,1 12,22A10,10 0 0,1 2,12A10,10 0 0,1 12,2A10,10 0 0,1 22,12M10,18L16,12L10,6L8.6,7.4L13.2,12L8.6,16.6L10,18Z" fill="currentColor"></svg:path></svg:symbol><svg:symbol xmlns:svg="http://www.w3.org/2000/svg" id="form_textbox" viewBox="0 0 24 24"><svg:path d="M17,7H22V17H17V19A1,1 0 0,0 18,20H20V22H17.5C16.95,22 16,21.55 16,21C16,21.55 15.05,22 14.5,22H12V20H14A1,1 0 0,0 15,19V5A1,1 0 0,0 14,4H12V2H14.5C15.05,2 16,2.45 16,3C16,2.45 16.95,2 17.5,2H20V4H18A1,1 0 0,0 17,5V7M2,7H13V9H4V15H13V17H2V7M20,15V9H17V15H20Z" fill="currentColor"></svg:path></svg:symbol><svg:symbol xmlns:svg="http://www.w3.org/2000/svg" id="graph_align" viewBox="0 0 32 30"><svg:path d="M3.692 4.63c0-.53.4-.938.939-.938h5.215V0H4.708C2.13 0 0 2.054 0 4.63v5.216h3.692V4.631zM27.354 0h-5.2v3.692h5.17c.53 0 .984.4.984.939v5.215H32V4.631A4.624 4.624 0 0027.354 0zm.954 24.83c0 .532-.4.94-.939.94h-5.215v3.768h5.215c2.577 0 4.631-2.13 4.631-4.707v-5.139h-3.692v5.139zm-23.677.94c-.531 0-.939-.4-.939-.94v-5.138H0v5.139c0 2.577 2.13 4.707 4.708 4.707h5.138V25.77H4.631z" fill="currentColor"></svg:path></svg:symbol><svg:symbol xmlns:svg="http://www.w3.org/2000/svg" id="menu" viewBox="0 0 24 24"><svg:path d="M3,6H21V8H3V6M3,11H21V13H3V11M3,16H21V18H3V16Z" fill="currentColor"></svg:path></svg:symbol><svg:symbol xmlns:svg="http://www.w3.org/2000/svg" id="line_chart" viewBox="0 0 24 24"><svg:path d="M16,11.78L20.24,4.45L21.97,5.45L16.74,14.5L10.23,10.75L5.46,19H22V21H2V3H4V17.54L9.5,8L16,11.78Z" fill="currentcolor"></svg:path></svg:symbol><svg:symbol xmlns:svg="http://www.w3.org/2000/svg" id="expand_less" viewBox="0 0 24 24"><svg:path d="M12 8l-6 6 1.41 1.41L12 10.83l4.59 4.58L18 14z" fill="currentcolor"></svg:path></svg:symbol><svg:symbol xmlns:svg="http://www.w3.org/2000/svg" id="file_upload" viewBox="0 0 24 24"><svg:path d="M14,2H6A2,2 0 0,0 4,4V20A2,2 0 0,0 6,22H18A2,2 0 0,0 20,20V8L14,2M13.5,16V19H10.5V16H8L12,12L16,16H13.5M13,9V3.5L18.5,9H13Z" fill="currentcolor"></svg:path></svg:symbol><svg:symbol xmlns:svg="http://www.w3.org/2000/svg" id="gesture_tap_hold" viewBox="0 0 24 24"><svg:path d="M10,9A1,1 0 0,1 11,8A1,1 0 0,1 12,9V13.47L13.21,13.6L18.15,15.79C18.68,16.03 19,16.56 19,17.14V21.5C18.97,22.32 18.32,22.97 17.5,23H11C10.62,23 10.26,22.85 10,22.57L5.1,18.37L5.84,17.6C6.03,17.39 6.3,17.28 6.58,17.28H6.8L10,19V9M9,12.44V9A2,2 0 0,1 11,7A2,2 0 0,1 13,9V12.44C14.19,11.75 15,10.47 15,9A4,4 0 0,0 11,5A4,4 0 0,0 7,9C7,10.47 7.81,11.75 9,12.44Z" fill="currentcolor"></svg:path></svg:symbol><svg:symbol xmlns:svg="http://www.w3.org/2000/svg" id="open_in_new" viewBox="0 0 24 24"><svg:path d="M14,3V5H17.59L7.76,14.83L9.17,16.24L19,6.41V10H21V3M19,19H5V5H12V3H5C3.89,3 3,3.9 3,5V19A2,2 0 0,0 5,21H19A2,2 0 0,0 21,19V12H19V19Z" fill="currentColor"></svg:path></svg:symbol><svg:symbol xmlns:svg="http://www.w3.org/2000/svg" id="database_import" viewBox="0 0 24 24"><svg:path d="M12,3C8.59,3 5.69,4.07 4.54,5.57L9.79,10.82C10.5,10.93 11.22,11 12,11C16.42,11 20,9.21 20,7C20,4.79 16.42,3 12,3M3.92,7.08L2.5,8.5L5,11H0V13H5L2.5,15.5L3.92,16.92L8.84,12M20,9C20,11.21 16.42,13 12,13C11.34,13 10.7,12.95 10.09,12.87L7.62,15.34C8.88,15.75 10.38,16 12,16C16.42,16 20,14.21 20,12M20,14C20,16.21 16.42,18 12,18C9.72,18 7.67,17.5 6.21,16.75L4.53,18.43C5.68,19.93 8.59,21 12,21C16.42,21 20,19.21 20,17" fill="currentcolor"></svg:path></svg:symbol><svg:symbol xmlns:svg="http://www.w3.org/2000/svg" id="info_variant" viewBox="0 0 24 24"><svg:path d="M13.5,4A1.5,1.5 0 0,0 12,5.5A1.5,1.5 0 0,0 13.5,7A1.5,1.5 0 0,0 15,5.5A1.5,1.5 0 0,0 13.5,4M13.14,8.77C11.95,8.87 8.7,11.46 8.7,11.46C8.5,11.61 8.56,11.6 8.72,11.88C8.88,12.15 8.86,12.17 9.05,12.04C9.25,11.91 9.58,11.7 10.13,11.36C12.25,10 10.47,13.14 9.56,18.43C9.2,21.05 11.56,19.7 12.17,19.3C12.77,18.91 14.38,17.8 14.54,17.69C14.76,17.54 14.6,17.42 14.43,17.17C14.31,17 14.19,17.12 14.19,17.12C13.54,17.55 12.35,18.45 12.19,17.88C12,17.31 13.22,13.4 13.89,10.71C14,10.07 14.3,8.67 13.14,8.77Z" fill="currentColor"></svg:path></svg:symbol></svg>