<svg xmlns:x="http://www.w3.org/2000/svg"><x:symbol id="salesforce-notext" width="100%" height="100%" viewBox="0 0 273 191" style="fill-rule:evenodd;clip-rule:evenodd;stroke-linejoin:round;stroke-miterlimit:2;">
        <x:path d="M113,21.3C121.78,12.16 134,6.5 147.5,6.5C165.5,6.5 181.1,16.5 189.5,31.4C196.956,28.067 205.033,26.346 213.2,26.35C245.6,26.35 271.9,52.85 271.9,85.55C271.9,118.25 245.6,144.75 213.2,144.75C209.24,144.75 205.38,144.352 201.6,143.6C194.25,156.7 180.2,165.6 164.2,165.6C157.686,165.613 151.255,164.135 145.4,161.28C137.95,178.78 120.6,191.08 100.4,191.08C79.3,191.08 61.4,177.78 54.5,159.08C51.429,159.728 48.299,160.054 45.16,160.052C20.06,160.052 -0.24,139.452 -0.24,114.152C-0.24,97.152 8.9,82.352 22.46,74.352C19.583,67.725 18.102,60.576 18.11,53.352C18.11,24.152 41.81,0.552 71.01,0.552C88.11,0.552 103.41,8.702 113.01,21.352" style="fill:rgb(0, 161, 224);"/>
    </x:symbol>
    <x:symbol id="sqlynx" width="100%" height="100%" viewBox="0 0 200 200">
        <x:g transform="matrix(1,0,0,1,0,-304.5)">
            <x:g transform="matrix(0.8,0,0,1.06952,0,-16.3556)">
                <x:rect x="0" y="300" width="250" height="187" style="fill:none;"/>
                <x:g transform="matrix(0.631463,0,0,0.472335,-230.544,128.592)">
                    <x:path d="M366.666,525.55C383.333,433.113 464.269,362.895 561.475,362.895C670.729,362.895 759.428,451.595 759.428,560.848C759.428,670.101 670.729,758.801 561.475,758.801C528.841,758.801 498.04,750.887 470.89,736.874C474.339,705.76 472.95,683.171 491.576,644.796C511.352,604.049 534.614,596.467 536.814,596.467C537.913,596.467 534.614,600.866 530.215,605.265C514.819,622.861 501.622,647.055 499.423,664.651L498.323,669.05L504.921,661.352C510.42,654.753 522.517,644.856 531.315,641.556C540.113,636.058 540.113,637.158 529.116,649.255C515.919,662.451 508.221,674.549 499.423,691.045C495.024,699.843 489.525,714.139 489.525,717.438C489.525,717.438 493.924,714.139 498.323,709.74C509.32,699.843 526.801,670.222 581.356,676.296C594.472,677.757 607.197,681.147 629.192,686.646C652.286,692.144 661.084,691.045 666.583,683.347C668.782,680.047 669.882,680.047 658.885,677.848C655.585,676.748 648.987,675.648 645.688,673.449C640.189,671.249 623.693,661.352 623.693,660.252C623.693,659.152 637.99,661.352 651.186,664.651C658.885,666.85 667.683,667.95 669.882,667.95C679.78,667.95 687.478,663.551 695.176,653.654L698.475,649.255L694.076,640.457C691.877,634.958 689.677,631.659 690.777,631.659C697.375,633.858 709.473,633.858 711.672,630.559C711.672,629.459 709.473,626.16 706.173,622.861C690.777,606.365 684.179,588.769 684.179,562.375C684.179,548.079 683.079,545.879 670.982,528.283C646.788,490.892 626.992,477.695 595.1,475.496L584.102,475.496C584.102,475.496 575.305,465.598 569.806,456.8C556.609,439.205 529.116,408.412 517.018,399.614L513.719,397.415L514.819,409.512C514.819,422.709 513.719,429.307 507.121,449.102C500.522,468.898 499.423,477.695 499.423,489.793C499.423,507.388 503.822,523.884 512.619,544.78C514.819,550.278 517.018,554.677 517.018,555.777C515.919,555.777 510.993,550.894 508.767,547.777C505.101,542.645 501.1,534.098 495.024,524.984C492.824,521.685 469.73,534.882 458.732,546.979C455.433,550.278 452.134,552.478 452.134,552.478C451.034,552.478 452.134,549.178 454.333,544.78C458.732,537.081 465.331,529.383 478.528,520.585C482.927,517.286 487.326,513.987 488.425,512.887C489.525,510.688 489.525,507.388 489.525,498.591L489.525,485.394C489.525,485.394 441.578,486.282 366.666,525.55ZM654.486,472.197C655.585,466.698 656.685,459 657.785,454.601C658.885,444.703 658.885,417.21 657.785,417.21L653.386,423.808C648.987,432.606 639.089,444.703 629.192,451.302C620.394,457.9 604.997,465.598 594,468.898L586.302,471.097L601.698,472.197C619.294,473.297 635.79,477.695 643.488,482.094C651.186,485.394 651.186,485.394 654.486,472.197ZM656.685,584.37C651.186,582.171 651.186,582.171 645.688,583.27C643.488,584.37 640.189,585.47 639.089,585.47C637.99,585.47 632.491,582.171 628.092,577.772C623.693,573.373 617.095,567.874 614.895,565.675L610.496,561.276L628.092,561.276C648.987,561.276 650.087,561.276 652.286,568.974C653.386,571.173 655.585,576.672 658.885,579.971C664.383,586.57 664.383,587.669 656.685,584.37ZM530.215,543.68C528.016,541.48 524.717,529.383 523.617,520.585C522.517,510.688 523.617,493.092 526.916,483.194C529.116,475.496 536.814,456.8 539.013,455.701C541.213,455.701 548.911,464.499 553.31,473.297C557.709,483.194 562.108,495.291 562.108,498.591C562.108,499.69 559.908,501.89 557.709,504.089C548.911,510.688 544.512,517.286 539.013,531.583C535.714,538.181 532.415,543.68 532.415,544.78C531.315,544.78 531.315,543.68 530.215,543.68Z" style="fill:currentcolor;"/>
                </x:g>
            </x:g>
        </x:g>
    </x:symbol>
<x:symbol xmlns:xlink="http://www.w3.org/1999/xlink" id="salesforce" width="100%" height="100%" viewBox="0 0 273 191"><x:defs><x:path id="a" d="m0.06 0.5h272v190h-272z"/></x:defs><x:g fill-rule="evenodd"><x:mask id="b" fill="#fff"><x:use xlink:href="#a"/></x:mask><x:path d="m113 21.3c8.78-9.14 21-14.8 34.5-14.8 18 0 33.6 10 42 24.9a58 58 0 0 1 23.7-5.05c32.4 0 58.7 26.5 58.7 59.2s-26.3 59.2-58.7 59.2c-3.96 0-7.82-0.398-11.6-1.15-7.35 13.1-21.4 22-37.4 22a42.7 42.7 0 0 1-18.8-4.32c-7.45 17.5-24.8 29.8-45 29.8-21.1 0-39-13.3-45.9-32a45.1 45.1 0 0 1-9.34 0.972c-25.1 0-45.4-20.6-45.4-45.9 0-17 9.14-31.8 22.7-39.8a52.6 52.6 0 0 1-4.35-21c0-29.2 23.7-52.8 52.9-52.8 17.1 0 32.4 8.15 42 20.8" fill="rgb(0, 161, 224)" mask="url(#b)"/><x:path d="m39.4 99.3c-0.171 0.446 0.061 0.539 0.116 0.618 0.511 0.37 1.03 0.638 1.55 0.939 2.78 1.47 5.4 1.9 8.14 1.9 5.58 0 9.05-2.97 9.05-7.75v-0.094c0-4.42-3.92-6.03-7.58-7.18l-0.479-0.155c-2.77-0.898-5.16-1.68-5.16-3.5v-0.093c0-1.56 1.4-2.71 3.56-2.71 2.4 0 5.26 0.799 7.09 1.81 0 0 0.542 0.35 0.739-0.173 0.107-0.283 1.04-2.78 1.14-3.06 0.106-0.293-0.08-0.514-0.271-0.628-2.1-1.28-5-2.15-8-2.15l-0.557 2e-3c-5.11 0-8.68 3.09-8.68 7.51v0.095c0 4.66 3.94 6.18 7.62 7.23l0.592 0.184c2.68 0.824 5 1.54 5 3.42v0.094c0 1.73-1.51 3.02-3.93 3.02-0.941 0-3.94-0.016-7.19-2.07-0.393-0.229-0.617-0.394-0.92-0.579-0.16-0.097-0.56-0.272-0.734 0.252l-1.1 3.06m81.7 0c-0.171 0.446 0.061 0.539 0.118 0.618 0.509 0.37 1.03 0.638 1.55 0.939 2.78 1.47 5.4 1.9 8.14 1.9 5.58 0 9.05-2.97 9.05-7.75v-0.094c0-4.42-3.91-6.03-7.58-7.18l-0.479-0.155c-2.77-0.898-5.16-1.68-5.16-3.5v-0.093c0-1.56 1.4-2.71 3.56-2.71 2.4 0 5.25 0.799 7.09 1.81 0 0 0.542 0.35 0.74-0.173 0.106-0.283 1.04-2.78 1.13-3.06 0.107-0.293-0.08-0.514-0.27-0.628-2.1-1.28-5-2.15-8-2.15l-0.558 2e-3c-5.11 0-8.68 3.09-8.68 7.51v0.095c0 4.66 3.94 6.18 7.62 7.23l0.591 0.184c2.69 0.824 5 1.54 5 3.42v0.094c0 1.73-1.51 3.02-3.93 3.02-0.943 0-3.95-0.016-7.19-2.07-0.393-0.229-0.623-0.387-0.921-0.579-0.101-0.064-0.572-0.248-0.733 0.252l-1.1 3.06m55.8-9.36c0 2.7-0.504 4.83-1.49 6.34-0.984 1.49-2.47 2.22-4.54 2.22s-3.55-0.724-4.52-2.21c-0.977-1.5-1.47-3.64-1.47-6.34 0-2.7 0.496-4.82 1.47-6.31 0.968-1.48 2.44-2.19 4.52-2.19s3.56 0.717 4.54 2.19c0.992 1.49 1.49 3.61 1.49 6.31m4.66-5.01c-0.459-1.55-1.17-2.91-2.12-4.05-0.951-1.14-2.15-2.06-3.58-2.72-1.42-0.665-3.1-1-5-1s-3.57 0.337-5 1c-1.42 0.664-2.63 1.58-3.58 2.72-0.948 1.14-1.66 2.5-2.12 4.05-0.455 1.54-0.686 3.22-0.686 5.01 0 1.79 0.231 3.47 0.686 5.01 0.457 1.55 1.17 2.91 2.12 4.05 0.951 1.14 2.16 2.05 3.58 2.7 1.43 0.648 3.11 0.978 5 0.978 1.89 0 3.57-0.33 4.99-0.978 1.42-0.648 2.63-1.56 3.58-2.7 0.949-1.14 1.66-2.5 2.12-4.05 0.454-1.54 0.685-3.22 0.685-5.01 0-1.78-0.231-3.47-0.685-5.01m38.3 12.8c-0.153-0.453-0.595-0.282-0.595-0.282-0.677 0.259-1.4 0.499-2.17 0.619-0.776 0.122-1.64 0.183-2.55 0.183-2.25 0-4.05-0.671-5.33-2-1.29-1.33-2.01-3.47-2-6.37 7e-3 -2.64 0.645-4.62 1.79-6.14 1.13-1.5 2.87-2.28 5.17-2.28 1.92 0 3.39 0.223 4.93 0.705 0 0 0.365 0.159 0.54-0.322 0.409-1.13 0.711-1.94 1.15-3.18 0.124-0.355-0.18-0.505-0.291-0.548-0.604-0.236-2.03-0.623-3.11-0.786-1.01-0.154-2.18-0.234-3.5-0.234-1.96 0-3.7 0.335-5.19 0.999-1.49 0.663-2.75 1.58-3.75 2.72-1 1.14-1.76 2.5-2.27 4.05-0.505 1.54-0.76 3.23-0.76 5.02 0 3.86 1.04 6.99 3.1 9.28 2.06 2.3 5.16 3.46 9.2 3.46 2.39 0 4.84-0.483 6.6-1.18 0 0 0.336-0.162 0.19-0.554l-1.15-3.16m8.15-10.4c0.223-1.5 0.634-2.75 1.28-3.72 0.967-1.48 2.44-2.29 4.51-2.29 2.07 0 3.44 0.814 4.42 2.29 0.65 0.975 0.934 2.27 1.04 3.72l-11.3-2e-3zm15.7-3.3c-0.397-1.49-1.38-3-2.02-3.69-1.02-1.09-2.01-1.86-3-2.28a11.5 11.5 0 0 0-4.52-0.917c-1.97 0-3.76 0.333-5.21 1.01-1.45 0.682-2.67 1.61-3.63 2.77-0.959 1.16-1.68 2.53-2.14 4.1-0.46 1.55-0.692 3.25-0.692 5.03 0 1.82 0.241 3.51 0.715 5.04 0.479 1.54 1.25 2.89 2.29 4.01 1.04 1.13 2.37 2.01 3.97 2.63 1.59 0.615 3.52 0.934 5.73 0.927 4.56-0.015 6.96-1.03 7.94-1.58 0.175-0.098 0.34-0.267 0.134-0.754l-1.03-2.89c-0.158-0.431-0.594-0.275-0.594-0.275-1.13 0.422-2.73 1.18-6.48 1.17-2.45-4e-3 -4.26-0.727-5.4-1.86-1.16-1.16-1.74-2.85-1.83-5.25l15.8 0.012s0.416-4e-3 0.459-0.41c0.017-0.168 0.541-3.24-0.471-6.79zm-142 3.3c0.223-1.5 0.635-2.75 1.28-3.72 0.968-1.48 2.44-2.29 4.51-2.29 2.07 0 3.44 0.814 4.42 2.29 0.649 0.975 0.933 2.27 1.04 3.72l-11.3-2e-3zm15.7-3.3c-0.396-1.49-1.38-3-2.02-3.69-1.02-1.09-2.01-1.86-3-2.28a11.5 11.5 0 0 0-4.52-0.917c-1.97 0-3.76 0.333-5.21 1.01-1.45 0.682-2.67 1.61-3.63 2.77-0.957 1.16-1.68 2.53-2.14 4.1-0.459 1.55-0.69 3.25-0.69 5.03 0 1.82 0.239 3.51 0.716 5.04 0.478 1.54 1.25 2.89 2.28 4.01 1.04 1.13 2.37 2.01 3.97 2.63 1.59 0.615 3.51 0.934 5.73 0.927 4.56-0.015 6.96-1.03 7.94-1.58 0.174-0.098 0.34-0.267 0.133-0.754l-1.03-2.89c-0.159-0.431-0.595-0.275-0.595-0.275-1.13 0.422-2.73 1.18-6.48 1.17-2.44-4e-3 -4.26-0.727-5.4-1.86-1.16-1.16-1.74-2.85-1.83-5.25l15.8 0.012s0.416-4e-3 0.459-0.41c0.017-0.168 0.541-3.24-0.472-6.79zm-49.8 13.6c-0.619-0.494-0.705-0.615-0.91-0.936-0.313-0.483-0.473-1.17-0.473-2.05 0-1.38 0.46-2.38 1.41-3.05-0.01 2e-3 1.36-1.18 4.58-1.14a32 32 0 0 1 4.28 0.365v7.17h2e-3s-2 0.431-4.26 0.567c-3.21 0.193-4.63-0.924-4.62-0.921zm6.28-11.1c-0.64-0.047-1.47-0.07-2.46-0.07-1.35 0-2.66 0.168-3.88 0.498-1.23 0.332-2.34 0.846-3.29 1.53a7.63 7.63 0 0 0-2.29 2.6c-0.559 1.04-0.844 2.26-0.844 3.64 0 1.4 0.243 2.61 0.723 3.6a6.54 6.54 0 0 0 2.06 2.47c0.877 0.638 1.96 1.11 3.21 1.39 1.24 0.283 2.64 0.426 4.18 0.426 1.62 0 3.23-0.136 4.79-0.399a95.1 95.1 0 0 0 3.97-0.772c0.526-0.121 1.11-0.28 1.11-0.28 0.39-0.099 0.36-0.516 0.36-0.516l-9e-3 -14.4c0-3.16-0.844-5.51-2.51-6.96-1.66-1.45-4.09-2.18-7.24-2.18-1.18 0-3.09 0.16-4.23 0.389 0 0-3.44 0.668-4.86 1.78 0 0-0.312 0.192-0.142 0.627l1.12 3c0.139 0.389 0.518 0.256 0.518 0.256s0.119-0.047 0.259-0.13c3.03-1.65 6.87-1.6 6.87-1.6 1.7 0 3.02 0.345 3.9 1.02 0.861 0.661 1.3 1.66 1.3 3.76v0.667c-1.35-0.196-2.6-0.309-2.6-0.309zm127-8.13a0.428 0.428 0 0 0-0.237-0.568c-0.269-0.102-1.61-0.385-2.64-0.449-1.98-0.124-3.08 0.21-4.07 0.654-0.978 0.441-2.06 1.15-2.66 1.97l-2e-3 -1.92c0-0.264-0.187-0.477-0.453-0.477h-4.04c-0.262 0-0.452 0.213-0.452 0.477v23.5a0.48 0.48 0 0 0 0.479 0.479h4.14a0.479 0.479 0 0 0 0.478-0.479v-11.8c0-1.58 0.174-3.15 0.521-4.14 0.342-0.979 0.807-1.76 1.38-2.32a4.79 4.79 0 0 1 1.95-1.17 7.68 7.68 0 0 1 2.12-0.298c0.825 0 1.73 0.212 1.73 0.212 0.304 0.034 0.473-0.152 0.576-0.426 0.271-0.721 1.04-2.88 1.19-3.31" fill="#FFFFFE"/><x:path d="M162.201 67.548a13.258 13.258 0 0 0-1.559-.37 12.217 12.217 0 0 0-2.144-.166c-2.853 0-5.102.806-6.681 2.398-1.568 1.58-2.635 3.987-3.17 7.154l-.193 1.069h-3.581s-.437-.018-.529.459l-.588 3.28c-.041.314.094.51.514.508h3.486l-3.537 19.743c-.277 1.59-.594 2.898-.945 3.889-.346.978-.684 1.711-1.1 2.243-.403.515-.785.894-1.444 1.115-.544.183-1.17.267-1.856.267-.382 0-.89-.064-1.265-.139-.375-.074-.57-.158-.851-.276 0 0-.409-.156-.57.254-.131.335-1.06 2.89-1.17 3.206-.112.312.045.558.243.629.464.166.809.272 1.441.421.878.207 1.618.22 2.311.22 1.452 0 2.775-.204 3.872-.6 1.104-.399 2.065-1.094 2.915-2.035.919-1.015 1.497-2.078 2.05-3.528.547-1.437 1.013-3.221 1.386-5.3l3.554-20.109h5.196s.438.016.529-.459l.588-3.28c.041-.314-.093-.51-.515-.508h-5.043c.025-.114.254-1.888.833-3.558.247-.713.712-1.288 1.106-1.683a3.273 3.273 0 0 1 1.321-.822 5.48 5.48 0 0 1 1.693-.244c.475 0 .941.057 1.296.131.489.104.679.159.807.197.514.157.583.005.684-.244l1.206-3.312c.124-.356-.178-.506-.29-.55m-70.474 34.117c0 .264-.188.479-.452.479h-4.183c-.265 0-.453-.215-.453-.479V67.997c0-.263.188-.476.453-.476h4.183c.264 0 .452.213.452.476v33.668" fill="#FFFFFE"/></x:g></x:symbol><x:symbol id="sqlynx-inverted" width="100%" height="100%" viewBox="0 0 200 200">
        <x:g transform="matrix(1,0,0,1,0,-301.64)">
            <x:g transform="matrix(0.8,0,0,1.06952,0,-19.2155)">
                <x:g transform="matrix(1.95175,0,0,1.45991,-72.2923,182.402)">
                    <x:path d="M71.086,201.185C50.839,190.421 37.04,169.107 37.04,144.596C37.04,140.339 37.456,136.179 38.25,132.153C61.986,119.965 77.107,119.685 77.107,119.685L77.107,123.989C77.107,126.858 77.107,127.934 76.748,128.651C76.39,129.01 74.955,130.086 73.521,131.162C69.217,134.031 67.065,136.542 65.63,139.052C64.913,140.487 64.554,141.563 64.913,141.563C64.913,141.563 65.989,140.846 67.065,139.77C70.651,135.824 78.183,131.521 78.9,132.597C80.882,135.569 82.187,138.356 83.382,140.03C84.109,141.047 85.715,142.639 86.073,142.639C86.073,142.28 85.356,140.846 84.639,139.052C81.77,132.238 80.335,126.858 80.335,121.12C80.335,117.174 80.694,114.305 82.846,107.849C84.998,101.394 85.356,99.242 85.356,94.938L84.998,90.993L86.073,91.71C90.019,94.579 98.985,104.622 103.289,110.36C105.082,113.229 107.951,116.457 107.951,116.457L111.538,116.457C121.939,117.174 128.395,121.478 136.285,133.673C140.23,139.411 140.589,140.128 140.589,144.791C140.589,153.398 142.741,159.137 147.762,164.517C148.838,165.593 149.555,166.669 149.555,167.027C148.838,168.103 144.893,168.103 142.741,167.386C142.382,167.386 143.099,168.462 143.817,170.255L145.251,173.124L144.175,174.559C141.665,177.787 139.154,179.222 135.926,179.222C135.209,179.222 132.34,178.863 129.829,178.146C125.525,177.07 120.863,176.352 120.863,176.711C120.863,177.07 126.243,180.298 128.036,181.015C129.112,181.732 131.264,182.091 132.34,182.449C135.926,183.167 135.568,183.167 134.85,184.243C133.057,186.753 130.188,187.112 122.656,185.319C115.483,183.525 111.333,182.42 107.056,181.943C89.264,179.962 83.563,189.623 79.976,192.85C78.542,194.285 77.107,195.361 77.107,195.361C77.107,194.285 78.9,189.623 80.335,186.753C83.204,181.373 85.715,177.428 90.019,173.124C93.605,169.179 93.605,168.821 90.736,170.614C87.867,171.69 83.922,174.918 82.128,177.07L79.976,179.58L80.335,178.146C81.052,172.407 85.356,164.517 90.377,158.778C91.812,157.344 92.888,155.909 92.529,155.909C91.812,155.909 84.226,158.382 77.776,171.67C71.805,183.973 72.141,191.301 71.086,201.185ZM131.623,151.964C134.133,153.04 134.133,152.681 132.34,150.529C131.264,149.453 130.547,147.66 130.188,146.943C129.471,144.432 129.112,144.432 122.298,144.432L116.559,144.432L117.994,145.867C118.711,146.584 120.863,148.377 122.298,149.812C123.732,151.247 125.525,152.323 125.884,152.323C126.243,152.323 127.319,151.964 128.036,151.605C129.829,151.247 129.829,151.247 131.623,151.964ZM90.377,138.694C90.736,138.694 90.736,139.052 91.095,139.052C91.095,138.694 92.171,136.9 93.247,134.748C95.04,130.086 96.474,127.934 99.344,125.782C100.061,125.065 100.778,124.348 100.778,123.989C100.778,122.913 99.344,118.968 97.909,115.74C96.474,112.871 93.964,110.001 93.247,110.001C92.529,110.36 90.019,116.457 89.301,118.968C88.225,122.196 87.867,127.934 88.225,131.162C88.584,134.031 89.66,137.976 90.377,138.694ZM130.905,115.381C129.829,119.685 129.829,119.685 127.319,118.609C124.808,117.174 119.428,115.74 113.69,115.381L108.669,115.023L111.179,114.305C114.766,113.229 119.787,110.719 122.656,108.567C125.884,106.415 129.112,102.47 130.547,99.6L131.981,97.449C132.34,97.449 132.34,106.415 131.981,109.643C131.623,111.077 131.264,113.588 130.905,115.381Z" style="fill:currentcolor;"/>
                </x:g>
            </x:g>
        </x:g>
    </x:symbol>
<x:symbol id="hyper" width="100%" height="100%" viewBox="0 0 137.6113 169.39944" style="fill-rule:evenodd;clip-rule:evenodd;stroke-linejoin:round;stroke-miterlimit:2;">
        <x:g id="layer1" transform="translate(299.37112,26.580672)">
            <x:path style="fill:#e86321;fill-opacity:1;fill-rule:nonzero;stroke:none;stroke-width:1.7591331" d="m -230.58265,66.217214 c -31.82244,0 -58.47743,-9.28356 -65.7476,-21.80363 -1.285,2.205784 -2.04087,4.487159 -2.04087,6.864736 v 20.49802 c 0,15.832198 30.36566,28.67526 67.78847,28.67526 37.46403,0 67.82282,-12.843062 67.82282,-28.67526 V 51.27832 c 0,-2.377577 -0.75584,-4.658952 -2.03399,-6.864736 -7.29078,12.52007 -33.93203,21.80363 -65.78883,21.80363 z m 0,0"/>
            <x:path style="fill:#578232;fill-opacity:1;fill-rule:nonzero;stroke:none;stroke-width:1.7591331" d="m -230.58265,107.5912 c -31.82244,0 -58.47743,-9.283552 -65.7476,-21.783022 -1.285,2.17831 -2.04087,4.46656 -2.04087,6.83726 V 113.1572 c 0,15.8322 30.36566,28.66157 67.78847,28.66157 37.46403,0 67.82282,-12.82937 67.82282,-28.66157 V 92.645438 c 0,-2.3707 -0.75584,-4.65895 -2.03399,-6.83726 -7.29078,12.49947 -33.93203,21.783022 -65.78883,21.783022 z m 0,0"/>
            <x:path style="fill:#263f7f;fill-opacity:1;fill-rule:nonzero;stroke:none;stroke-width:1.7591331" d="m -164.60142,3.4312656 c -1.33309,11.6061704 -30.31069,20.8759744 -65.98123,20.8759744 -35.64994,0 -64.60692,-9.269804 -65.94,-20.8622184 -1.16131,2.095841 -1.84847,4.294756 -1.84847,6.5692654 v 20.470535 c 0,15.852802 30.36566,28.682109 67.78847,28.682109 37.46403,0 67.82282,-12.829307 67.82282,-28.682109 V 10.014287 c 0,-2.2745094 -0.68028,-4.4734244 -1.84159,-6.5830214 z m 0,0"/>
            <x:path style="fill:#303030;fill-opacity:1;fill-rule:nonzero;stroke:none;stroke-width:1.7591331" d="m -230.58265,17.813561 c 36.51575,0 66.09118,-9.7027184 66.09118,-21.6936794 0,-11.9772196 -29.57543,-21.7005536 -66.09118,-21.7005536 -36.47453,0.01378 -66.0637,9.723334 -66.0637,21.7005536 0,11.990961 29.58917,21.6936794 66.0637,21.6936794 z m 0,0"/>
        </x:g>
    </x:symbol>
    <x:symbol id="search" viewBox="0 0 24 24"><x:path fill="currentColor" d="M10.25 2a8.25 8.25 0 0 1 6.34 13.53l5.69 5.69a.749.749 0 0 1-.326 1.275.749.749 0 0 1-.734-.215l-5.69-5.69A8.25 8.25 0 1 1 10.25 2ZM3.5 10.25a6.75 6.75 0 1 0 13.5 0 6.75 6.75 0 0 0-13.5 0Z"/></x:symbol><x:symbol id="github" viewBox="0 0 24 24"><x:path d="M12,2A10,10 0 0,0 2,12C2,16.42 4.87,20.17 8.84,21.5C9.34,21.58 9.5,21.27 9.5,21C9.5,20.77 9.5,20.14 9.5,19.31C6.73,19.91 6.14,17.97 6.14,17.97C5.68,16.81 5.03,16.5 5.03,16.5C4.12,15.88 5.1,15.9 5.1,15.9C6.1,15.97 6.63,16.93 6.63,16.93C7.5,18.45 8.97,18 9.54,17.76C9.63,17.11 9.89,16.67 10.17,16.42C7.95,16.17 5.62,15.31 5.62,11.5C5.62,10.39 6,9.5 6.65,8.79C6.55,8.54 6.2,7.5 6.75,6.15C6.75,6.15 7.59,5.88 9.5,7.17C10.29,6.95 11.15,6.84 12,6.84C12.85,6.84 13.71,6.95 14.5,7.17C16.41,5.88 17.25,6.15 17.25,6.15C17.8,7.5 17.45,8.54 17.35,8.79C18,9.5 18.38,10.39 18.38,11.5C18.38,15.32 16.04,16.16 13.81,16.41C14.17,16.72 14.5,17.33 14.5,18.26C14.5,19.6 14.5,20.68 14.5,21C14.5,21.27 14.66,21.59 15.17,21.5C19.14,20.16 22,16.42 22,12A10,10 0 0,0 12,2Z" fill="currentcolor"/></x:symbol><x:symbol id="database" viewBox="0 0 24 24"><x:path fill="currentColor" d="M12 1.25c2.487 0 4.773.402 6.466 1.079.844.337 1.577.758 2.112 1.264.536.507.922 1.151.922 1.907v12.987l-.026.013h.026c0 .756-.386 1.4-.922 1.907-.535.506-1.268.927-2.112 1.264-1.693.677-3.979 1.079-6.466 1.079s-4.774-.402-6.466-1.079c-.844-.337-1.577-.758-2.112-1.264C2.886 19.9 2.5 19.256 2.5 18.5h.026l-.026-.013V5.5c0-.756.386-1.4.922-1.907.535-.506 1.268-.927 2.112-1.264C7.226 1.652 9.513 1.25 12 1.25ZM4 14.371v4.116l-.013.013H4c0 .211.103.487.453.817.351.332.898.666 1.638.962 1.475.589 3.564.971 5.909.971 2.345 0 4.434-.381 5.909-.971.739-.296 1.288-.63 1.638-.962.349-.33.453-.607.453-.817h.013L20 18.487v-4.116a7.85 7.85 0 0 1-1.534.8c-1.693.677-3.979 1.079-6.466 1.079s-4.774-.402-6.466-1.079a7.843 7.843 0 0 1-1.534-.8ZM20 12V7.871a7.85 7.85 0 0 1-1.534.8C16.773 9.348 14.487 9.75 12 9.75s-4.774-.402-6.466-1.079A7.85 7.85 0 0 1 4 7.871V12c0 .21.104.487.453.817.35.332.899.666 1.638.961 1.475.59 3.564.972 5.909.972 2.345 0 4.434-.382 5.909-.972.74-.295 1.287-.629 1.638-.96.35-.33.453-.607.453-.818ZM4 5.5c0 .211.103.487.453.817.351.332.898.666 1.638.962 1.475.589 3.564.971 5.909.971 2.345 0 4.434-.381 5.909-.971.739-.296 1.288-.63 1.638-.962.349-.33.453-.607.453-.817 0-.211-.103-.487-.453-.817-.351-.332-.898-.666-1.638-.962-1.475-.589-3.564-.971-5.909-.971-2.345 0-4.434.381-5.909.971-.739.296-1.288.63-1.638.962C4.104 5.013 4 5.29 4 5.5Z"/></x:symbol><x:symbol id="graph_minus" viewBox="0 0 32 5"><x:path fill="currentColor" d="M0 0h32v4.2H0z"/></x:symbol><x:symbol id="cloud_offline" viewBox="0 0 24 24"><x:path fill="currentColor" d="m2.78 2.22 19.5 19.5a.749.749 0 0 1-.326 1.275.749.749 0 0 1-.734-.215l-2.845-2.845a6.932 6.932 0 0 1-.944.065H5.017C2.229 20 0 17.831 0 15.059a4.899 4.899 0 0 1 3.111-4.58A7.52 7.52 0 0 1 4.36 5.922L1.72 3.28a.751.751 0 0 1 .018-1.042.751.751 0 0 1 1.042-.018ZM16.94 18.5 5.448 7.01a6.026 6.026 0 0 0-.794 3.853.75.75 0 0 1-.552.869c-1.52.385-2.603 1.712-2.603 3.328 0 1.917 1.532 3.44 3.517 3.44Zm-6.104-16a7.865 7.865 0 0 0-3.638.88.75.75 0 1 0 .692 1.331A6.365 6.365 0 0 1 10.836 4c2.588 0 4.77 1.5 5.72 3.655l.179.445a.75.75 0 0 0 .696.471c2.843 0 5.069 2.206 5.069 4.965a4.9 4.9 0 0 1-1.684 3.716.75.75 0 0 0 .986 1.13A6.396 6.396 0 0 0 24 13.536c0-3.44-2.652-6.191-6.054-6.445l-.002-.006a.634.634 0 0 0-.01-.022C16.749 4.358 14.026 2.5 10.837 2.5Z"/></x:symbol><x:symbol id="file" viewBox="0 0 24 24"><x:path fill="currentColor" d="M3 3a2 2 0 0 1 2-2h9.982a2 2 0 0 1 1.414.586l4.018 4.018A2 2 0 0 1 21 7.018V21a2 2 0 0 1-2 2H5a2 2 0 0 1-2-2Zm2-.5a.5.5 0 0 0-.5.5v18a.5.5 0 0 0 .5.5h14a.5.5 0 0 0 .5-.5V8.5h-4a2 2 0 0 1-2-2v-4Zm10 0v4a.5.5 0 0 0 .5.5h4a.5.5 0 0 0-.146-.336l-4.018-4.018A.5.5 0 0 0 15 2.5Z"/></x:symbol><x:symbol id="shell" viewBox="0 0 24 24"><x:g fill="currentcolor" fillRule="nonzero"><x:polygon points="0 0 3.03703704 5 0 10 3 10 6 5 3 0"/><x:polygon points="9 8 9 10 18 10 18 8"/></x:g></x:symbol><x:symbol id="package" viewBox="0 0 24 24"><x:path fill="currentColor" d="M12.876.64V.639l8.25 4.763c.541.313.875.89.875 1.515v9.525a1.75 1.75 0 0 1-.875 1.516l-8.25 4.762a1.748 1.748 0 0 1-1.75 0l-8.25-4.763a1.75 1.75 0 0 1-.875-1.515V6.917c0-.625.334-1.202.875-1.515L11.126.64a1.748 1.748 0 0 1 1.75 0Zm-1 1.298L4.251 6.34l7.75 4.474 7.75-4.474-7.625-4.402a.248.248 0 0 0-.25 0Zm.875 19.123 7.625-4.402a.25.25 0 0 0 .125-.216V7.639l-7.75 4.474ZM3.501 7.64v8.803c0 .09.048.172.125.216l7.625 4.402v-8.947Z"/></x:symbol><x:symbol id="beaker" viewBox="0 0 24 24"><x:path fill="currentColor" d="M8 8.807V3.5h-.563a.75.75 0 0 1 0-1.5h9.125a.75.75 0 0 1 0 1.5H16v5.307l5.125 9.301c.964 1.75-.302 3.892-2.299 3.892H5.174c-1.998 0-3.263-2.142-2.3-3.892ZM4.189 18.832a1.123 1.123 0 0 0 .985 1.668h13.652a1.123 1.123 0 0 0 .985-1.668L17.7 15H6.3ZM14.5 3.5h-5V9a.75.75 0 0 1-.093.362L7.127 13.5h9.746l-2.28-4.138A.75.75 0 0 1 14.5 9Z"/></x:symbol><x:symbol id="settings" viewBox="0 0 16 16"><x:path fill="currentColor" d="M8 0a8.2 8.2 0 0 1 .701.031C9.444.095 9.99.645 10.16 1.29l.288 1.107c.018.066.079.158.212.224.231.114.454.243.668.386.123.082.233.09.299.071l1.103-.303c.644-.176 1.392.021 1.82.63.27.385.506.792.704 1.218.315.675.111 1.422-.364 1.891l-.814.806c-.049.048-.098.147-.088.294.016.257.016.515 0 .772-.01.147.038.246.088.294l.814.806c.475.469.679 1.216.364 1.891a7.977 7.977 0 0 1-.704 1.217c-.428.61-1.176.807-1.82.63l-1.102-.302c-.067-.019-.177-.011-.3.071a5.909 5.909 0 0 1-.668.386c-.133.066-.194.158-.211.224l-.29 1.106c-.168.646-.715 1.196-1.458 1.26a8.006 8.006 0 0 1-1.402 0c-.743-.064-1.289-.614-1.458-1.26l-.289-1.106c-.018-.066-.079-.158-.212-.224a5.738 5.738 0 0 1-.668-.386c-.123-.082-.233-.09-.299-.071l-1.103.303c-.644.176-1.392-.021-1.82-.63a8.12 8.12 0 0 1-.704-1.218c-.315-.675-.111-1.422.363-1.891l.815-.806c.05-.048.098-.147.088-.294a6.214 6.214 0 0 1 0-.772c.01-.147-.038-.246-.088-.294l-.815-.806C.635 6.045.431 5.298.746 4.623a7.92 7.92 0 0 1 .704-1.217c.428-.61 1.176-.807 1.82-.63l1.102.302c.067.019.177.011.3-.071.214-.143.437-.272.668-.386.133-.066.194-.158.211-.224l.29-1.106C6.009.645 6.556.095 7.299.03 7.53.01 7.764 0 8 0Zm-.571 1.525c-.036.003-.108.036-.137.146l-.289 1.105c-.147.561-.549.967-.998 1.189-.173.086-.34.183-.5.29-.417.278-.97.423-1.529.27l-1.103-.303c-.109-.03-.175.016-.195.045-.22.312-.412.644-.573.99-.014.031-.021.11.059.19l.815.806c.411.406.562.957.53 1.456a4.709 4.709 0 0 0 0 .582c.032.499-.119 1.05-.53 1.456l-.815.806c-.081.08-.073.159-.059.19.162.346.353.677.573.989.02.03.085.076.195.046l1.102-.303c.56-.153 1.113-.008 1.53.27.161.107.328.204.501.29.447.222.85.629.997 1.189l.289 1.105c.029.109.101.143.137.146a6.6 6.6 0 0 0 1.142 0c.036-.003.108-.036.137-.146l.289-1.105c.147-.561.549-.967.998-1.189.173-.086.34-.183.5-.29.417-.278.97-.423 1.529-.27l1.103.303c.109.029.175-.016.195-.045.22-.313.411-.644.573-.99.014-.031.021-.11-.059-.19l-.815-.806c-.411-.406-.562-.957-.53-1.456a4.709 4.709 0 0 0 0-.582c-.032-.499.119-1.05.53-1.456l.815-.806c.081-.08.073-.159.059-.19a6.464 6.464 0 0 0-.573-.989c-.02-.03-.085-.076-.195-.046l-1.102.303c-.56.153-1.113.008-1.53-.27a4.44 4.44 0 0 0-.501-.29c-.447-.222-.85-.629-.997-1.189l-.289-1.105c-.029-.11-.101-.143-.137-.146a6.6 6.6 0 0 0-1.142 0ZM11 8a3 3 0 1 1-6 0 3 3 0 0 1 6 0ZM9.5 8a1.5 1.5 0 1 0-3.001.001A1.5 1.5 0 0 0 9.5 8Z"/></x:symbol><x:symbol id="code" viewBox="0 0 24 24"><x:path d="M14.6,16.6L19.2,12L14.6,7.4L16,6L22,12L16,18L14.6,16.6M9.4,16.6L4.8,12L9.4,7.4L8,6L2,12L8,18L9.4,16.6Z" fill="currentcolor"/></x:symbol><x:symbol id="kebab_horizontal" viewBox="0 0 16 16"><x:path fill="currentColor" d="M8 9a1.5 1.5 0 1 0 0-3 1.5 1.5 0 0 0 0 3ZM1.5 9a1.5 1.5 0 1 0 0-3 1.5 1.5 0 0 0 0 3Zm13 0a1.5 1.5 0 1 0 0-3 1.5 1.5 0 0 0 0 3Z"/></x:symbol><x:symbol id="info" viewBox="0 0 24 24"><x:path fill="currentColor" d="M13,9H11V7H13M13,17H11V11H13M12,2A10,10 0 0,0 2,12A10,10 0 0,0 12,22A10,10 0 0,0 22,12A10,10 0 0,0 12,2Z"/></x:symbol><x:symbol id="plan" viewBox="0 0 24 24"><x:path d="M8,4.99980749 C8,4.44762906 8.45303631,4 8.99703014,4 L15.0029699,4 C15.5536144,4 16,4.44371665 16,4.99980749 L16,8.00019251 C16,8.55237094 15.5469637,9 15.0029699,9 L8.99703014,9 C8.4463856,9 8,8.55628335 8,8.00019251 L8,4.99980749 Z M2,15.9998075 C2,15.4476291 2.45303631,15 2.99703014,15 L9.00296986,15 C9.5536144,15 10,15.4437166 10,15.9998075 L10,19.0001925 C10,19.5523709 9.54696369,20 9.00296986,20 L2.99703014,20 C2.4463856,20 2,19.5562834 2,19.0001925 L2,15.9998075 Z M14,15.9998075 C14,15.4476291 14.4530363,15 14.9970301,15 L21.0029699,15 C21.5536144,15 22,15.4437166 22,15.9998075 L22,19.0001925 C22,19.5523709 21.5469637,20 21.0029699,20 L14.9970301,20 C14.4463856,20 14,19.5562834 14,19.0001925 L14,15.9998075 Z M11,13 L6,13 L6,14.0189261 L5,14.0189261 L5,12 L10,12 L10,9.99680278 L11,9.99680278 L11,13 Z M14,9.99680278 L14,12 L19,12 L19,14.0189261 L18,14.0189261 L18,13 L13,13 L13,9.99680278 L14,9.99680278 Z" fill="currentcolor"/></x:symbol><x:symbol id="table" viewBox="0 0 16 16"><x:path fill="currentColor" d="M0 1.75C0 .784.784 0 1.75 0h12.5C15.216 0 16 .784 16 1.75v12.5A1.75 1.75 0 0 1 14.25 16H1.75A1.75 1.75 0 0 1 0 14.25ZM6.5 6.5v8h7.75a.25.25 0 0 0 .25-.25V6.5Zm8-1.5V1.75a.25.25 0 0 0-.25-.25H6.5V5Zm-13 1.5v7.75c0 .138.112.25.25.25H5v-8ZM5 5V1.5H1.75a.25.25 0 0 0-.25.25V5Z"/></x:symbol><x:symbol id="tables_connected" viewBox="0 0 24 24"><x:g id="Artboard1" transform="matrix(0.880121,0,0,0.985328,0,0)" fill="currentColor"><x:g transform="matrix(1.11954,0,0,1,-1.62981,-1.80281e-15)"><x:g transform="matrix(1.01489,0,0,1.01489,0,0)"><x:path d="M12,7.273L12,9.227C12,9.653 11.653,10 11.227,10L2.773,10C2.347,10 2,9.653 2,9.227L2,2.773C2,2.347 2.347,2 2.773,2L11.227,2C11.653,2 12,2.347 12,2.773L12,4.525L11,3.583L11,3L7,3L7,9L11,9L11,6.331L12,7.273Z"/></x:g><x:g transform="matrix(0.494064,0,0,0.923665,5.21222,0.0589331)"><x:rect x="3.83" y="4.057" width="6.676" height="1.099"/></x:g><x:g transform="matrix(0.494064,0,0,0.923665,5.21222,1.83499)"><x:rect x="3.83" y="4.057" width="6.676" height="1.099"/></x:g><x:g transform="matrix(0.494064,0,0,0.923665,5.21222,3.61105)"><x:rect x="3.83" y="4.057" width="6.676" height="1.099"/></x:g></x:g><x:g transform="matrix(1.11954,0,0,1,12.9919,6.08934)"><x:g transform="matrix(1.01489,0,0,1.01489,-13.0605,-6.08934)"><x:path d="M14.869,12.275L14.869,9.975L15.869,10.917L15.869,11.333L14.869,12.275ZM15.869,14.08L15.869,15L19.869,15L19.869,9L16.75,9L15.689,8L24.096,8C24.522,8 24.869,8.347 24.869,8.773L24.869,15.227C24.869,15.653 24.522,16 24.096,16L15.642,16C15.215,16 14.869,15.653 14.869,15.227L14.869,15.023L15.869,14.08Z"/></x:g><x:g transform="matrix(0.494064,0,0,0.923665,1.91382,0.0589331)"><x:rect x="3.83" y="4.057" width="6.676" height="1.099"/></x:g><x:g transform="matrix(0.494064,0,0,0.923665,1.91382,1.83499)"><x:rect x="3.83" y="4.057" width="6.676" height="1.099"/></x:g><x:g transform="matrix(0.494064,0,0,0.923665,1.91382,3.61105)"><x:rect x="3.83" y="4.057" width="6.676" height="1.099"/></x:g></x:g><x:g transform="matrix(1.11954,0,0,1,-1.62981,12.1787)"><x:g transform="matrix(1.01489,0,0,1.01489,-1.77636e-15,-12.1787)"><x:path d="M12,17.725L12,21.227C12,21.653 11.653,22 11.227,22L2.773,22C2.347,22 2,21.653 2,21.227L2,14.773C2,14.347 2.347,14 2.773,14L11.227,14C11.653,14 12,14.347 12,14.773L12,14.977L11,15.919L11,15L7,15L7,21L11,21L11,18.667L12,17.725Z"/></x:g><x:g transform="matrix(0.988127,0,0,0.923665,0.021801,0.0589331)"><x:rect x="3.83" y="4.057" width="6.676" height="1.099"/></x:g><x:g transform="matrix(0.988127,0,0,0.923665,0.021801,1.83499)"><x:rect x="3.83" y="4.057" width="6.676" height="1.099"/></x:g><x:g transform="matrix(0.988127,0,0,0.923665,0.021801,3.61105)"><x:rect x="3.83" y="4.057" width="6.676" height="1.099"/></x:g><x:g transform="matrix(0.494064,0,0,0.923665,5.21222,0.0589331)"><x:rect x="3.83" y="4.057" width="6.676" height="1.099"/></x:g><x:g transform="matrix(0.494064,0,0,0.923665,5.21222,1.83499)"><x:rect x="3.83" y="4.057" width="6.676" height="1.099"/></x:g><x:g transform="matrix(0.494064,0,0,0.923665,5.21222,3.61105)"><x:rect x="3.83" y="4.057" width="6.676" height="1.099"/></x:g></x:g><x:g transform="matrix(1.13621,0,0,1.01489,-1.62981,-1.80281e-15)"><x:path d="M10.25,4.25L16.619,10.25" style="stroke:black;stroke-width:1px;"/></x:g><x:g transform="matrix(1.13621,0,0,1.01489,-1.62981,-1.80281e-15)"><x:path d="M16.619,12L10.25,18" style="stroke:black;stroke-width:1px;"/></x:g></x:g></x:symbol><x:symbol id="graph_plus" viewBox="0 0 32 32"><x:path fill="currentColor" d="M32 18.133H18.133V32h-4.266V18.133H0v-4.266h13.867V0h4.266v13.867H32z"/></x:symbol><x:symbol id="rows" viewBox="0 0 24 24"><x:path fill="currentColor" d="M22 3.75v5.5A1.75 1.75 0 0 1 20.25 11H3.75A1.75 1.75 0 0 1 2 9.25v-5.5C2 2.784 2.784 2 3.75 2h16.5c.966 0 1.75.784 1.75 1.75Zm0 11v5.5A1.75 1.75 0 0 1 20.25 22H3.75A1.75 1.75 0 0 1 2 20.25v-5.5c0-.966.784-1.75 1.75-1.75h16.5c.966 0 1.75.784 1.75 1.75ZM20.25 3.5H3.75a.25.25 0 0 0-.25.25v5.5c0 .138.112.25.25.25h16.5a.25.25 0 0 0 .25-.25v-5.5a.25.25 0 0 0-.25-.25Zm0 11H3.75a.25.25 0 0 0-.25.25v5.5c0 .138.112.25.25.25h16.5a.25.25 0 0 0 .25-.25v-5.5a.25.25 0 0 0-.25-.25Z"/></x:symbol><x:symbol id="cloud" viewBox="0 0 24 24"><x:path fill="currentColor" d="M3.103 10.107c0-4.244 3.445-7.607 7.733-7.607 3.19 0 5.912 1.858 7.099 4.563l.01.022.001.006C21.348 7.345 24 10.095 24 13.536 24 17.148 21.076 20 17.431 20H5.017C2.23 20 0 17.83 0 15.06a4.899 4.899 0 0 1 3.112-4.581 7.696 7.696 0 0 1-.009-.372ZM10.836 4c-3.485 0-6.233 2.717-6.233 6.107 0 .284.022.602.052.756a.75.75 0 0 1-.552.869c-1.52.385-2.603 1.712-2.603 3.328 0 1.917 1.532 3.44 3.517 3.44h12.414c2.843 0 5.069-2.206 5.069-4.964 0-2.759-2.226-4.965-5.069-4.965a.75.75 0 0 1-.696-.47l-.179-.446C15.606 5.5 13.424 4 10.836 4Z"/></x:symbol><x:symbol id="console" viewBox="0 0 24 24"><x:path d="M13,19V16H21V19H13M8.5,13L2.47,7H6.71L11.67,11.95C12.25,12.54 12.25,13.5 11.67,14.07L6.74,19H2.5L8.5,13Z" fill="currentcolor"/></x:symbol><x:symbol id="graph_align" viewBox="0 0 32 30"><x:path fill="currentColor" d="M3.692 4.63c0-.53.4-.938.939-.938h5.215V0H4.708C2.13 0 0 2.054 0 4.63v5.216h3.692V4.631zM27.354 0h-5.2v3.692h5.17c.53 0 .984.4.984.939v5.215H32V4.631A4.624 4.624 0 0027.354 0zm.954 24.83c0 .532-.4.94-.939.94h-5.215v3.768h5.215c2.577 0 4.631-2.13 4.631-4.707v-5.139h-3.692v5.139zm-23.677.94c-.531 0-.939-.4-.939-.94v-5.138H0v5.139c0 2.577 2.13 4.707 4.708 4.707h5.138V25.77H4.631z"/></x:symbol><x:symbol id="info_variant" viewBox="0 0 24 24"><x:path fill="currentColor" d="M13.5,4A1.5,1.5 0 0,0 12,5.5A1.5,1.5 0 0,0 13.5,7A1.5,1.5 0 0,0 15,5.5A1.5,1.5 0 0,0 13.5,4M13.14,8.77C11.95,8.87 8.7,11.46 8.7,11.46C8.5,11.61 8.56,11.6 8.72,11.88C8.88,12.15 8.86,12.17 9.05,12.04C9.25,11.91 9.58,11.7 10.13,11.36C12.25,10 10.47,13.14 9.56,18.43C9.2,21.05 11.56,19.7 12.17,19.3C12.77,18.91 14.38,17.8 14.54,17.69C14.76,17.54 14.6,17.42 14.43,17.17C14.31,17 14.19,17.12 14.19,17.12C13.54,17.55 12.35,18.45 12.19,17.88C12,17.31 13.22,13.4 13.89,10.71C14,10.07 14.3,8.67 13.14,8.77Z"/></x:symbol></svg>