<?xml version="1.0" encoding="UTF-8" standalone="no"?>
<!DOCTYPE svg PUBLIC "-//W3C//DTD SVG 1.1//EN" "http://www.w3.org/Graphics/SVG/1.1/DTD/svg11.dtd">
<svg width="100%" height="100%" viewBox="0 0 100 100" version="1.1" xmlns="http://www.w3.org/2000/svg" xmlns:xlink="http://www.w3.org/1999/xlink" xml:space="preserve" xmlns:serif="http://www.serif.com/" style="fill-rule:evenodd;clip-rule:evenodd;stroke-linejoin:round;stroke-miterlimit:2;">
    <g transform="matrix(1,0,0,1,-266,0)">
        <g id="safari-pinned-tab" transform="matrix(0.568182,0,0,0.480769,429.636,-196.635)">
            <rect x="-288" y="409" width="176" height="208" style="fill:none;"/>
            <g id="robot" transform="matrix(0.619561,0,0,0.732208,-320.195,377.235)">
                <g transform="matrix(0.552417,0,0,0.552417,-845.096,-304.575)">
                    <path d="M2137,702.68C2137,663.119 2104.88,631 2065.32,631L1696.68,631C1657.12,631 1625,663.119 1625,702.68L1625,1071.32C1625,1110.88 1657.12,1143 1696.68,1143L2065.32,1143C2104.88,1143 2137,1110.88 2137,1071.32L2137,702.68Z" style="fill:rgb(36,41,46);"/>
                </g>
                <g transform="matrix(0.994351,0,0,0.994351,44.8474,36.2662)">
                    <g transform="matrix(1,0,0,1,-12.5,25)">
                        <path d="M171.581,145.407C172.116,148.078 174.461,150 177.184,150C192.003,150 237.923,150 255.53,150C257.242,150 258.864,149.233 259.949,147.909C261.034,146.585 261.469,144.844 261.133,143.166C259.062,132.812 255.185,113.424 253.419,104.593C252.885,101.922 250.539,100 247.816,100C240.118,100 224.882,100 217.184,100C214.461,100 212.115,98.078 211.581,95.407C209.678,85.889 205.322,64.111 203.419,54.593C202.885,51.922 200.54,50 197.816,50C188.982,50 169.82,50 159.47,50C157.758,50 156.136,50.767 155.051,52.091C153.966,53.415 153.531,55.156 153.867,56.834C157.682,75.911 168.377,129.385 171.581,145.407Z" style="fill:white;"/>
                    </g>
                    <g transform="matrix(1,0,0,1,12.5,25)">
                        <path d="M38.867,106.834C38.531,105.156 38.966,103.415 40.051,102.091C41.136,100.767 42.758,100 44.47,100C62.077,100 107.997,100 122.816,100C125.539,100 127.884,101.922 128.419,104.593C131.623,120.615 142.318,174.089 146.133,193.166C146.469,194.844 146.034,196.585 144.949,197.909C143.864,199.233 142.242,200 140.53,200C130.18,200 111.018,200 102.184,200C99.46,200 97.115,198.078 96.581,195.407C94.678,185.889 90.322,164.111 88.419,154.593C87.885,151.922 85.539,150 82.816,150C75.118,150 59.882,150 52.184,150C49.461,150 47.115,148.078 46.581,145.407C44.815,136.576 40.938,117.188 38.867,106.834Z" style="fill:white;"/>
                    </g>
                </g>
            </g>
        </g>
    </g>
</svg>
