<?xml version="1.0" encoding="UTF-8" standalone="no"?>
<svg version="1.1"
    xmlns="http://www.w3.org/2000/svg" xmlns:xlink="http://www.w3.org/1999/xlink"
    xml:space="preserve" xmlns:serif="http://www.serif.com/"
>
    <symbol id="hyper" width="100%" height="100%" viewBox="0 0 137.6113 169.39944" style="fill-rule:evenodd;clip-rule:evenodd;stroke-linejoin:round;stroke-miterlimit:2;">
        <g id="layer1" transform="translate(299.37112,26.580672)">
            <path
                style="fill:#e86321;fill-opacity:1;fill-rule:nonzero;stroke:none;stroke-width:1.7591331"
                d="m -230.58265,66.217214 c -31.82244,0 -58.47743,-9.28356 -65.7476,-21.80363 -1.285,2.205784 -2.04087,4.487159 -2.04087,6.864736 v 20.49802 c 0,15.832198 30.36566,28.67526 67.78847,28.67526 37.46403,0 67.82282,-12.843062 67.82282,-28.67526 V 51.27832 c 0,-2.377577 -0.75584,-4.658952 -2.03399,-6.864736 -7.29078,12.52007 -33.93203,21.80363 -65.78883,21.80363 z m 0,0"
                />
            <path
                style="fill:#578232;fill-opacity:1;fill-rule:nonzero;stroke:none;stroke-width:1.7591331"
                d="m -230.58265,107.5912 c -31.82244,0 -58.47743,-9.283552 -65.7476,-21.783022 -1.285,2.17831 -2.04087,4.46656 -2.04087,6.83726 V 113.1572 c 0,15.8322 30.36566,28.66157 67.78847,28.66157 37.46403,0 67.82282,-12.82937 67.82282,-28.66157 V 92.645438 c 0,-2.3707 -0.75584,-4.65895 -2.03399,-6.83726 -7.29078,12.49947 -33.93203,21.783022 -65.78883,21.783022 z m 0,0"
                 />
            <path
                style="fill:#263f7f;fill-opacity:1;fill-rule:nonzero;stroke:none;stroke-width:1.7591331"
                d="m -164.60142,3.4312656 c -1.33309,11.6061704 -30.31069,20.8759744 -65.98123,20.8759744 -35.64994,0 -64.60692,-9.269804 -65.94,-20.8622184 -1.16131,2.095841 -1.84847,4.294756 -1.84847,6.5692654 v 20.470535 c 0,15.852802 30.36566,28.682109 67.78847,28.682109 37.46403,0 67.82282,-12.829307 67.82282,-28.682109 V 10.014287 c 0,-2.2745094 -0.68028,-4.4734244 -1.84159,-6.5830214 z m 0,0"
                />
            <path
                style="fill:#303030;fill-opacity:1;fill-rule:nonzero;stroke:none;stroke-width:1.7591331"
                d="m -230.58265,17.813561 c 36.51575,0 66.09118,-9.7027184 66.09118,-21.6936794 0,-11.9772196 -29.57543,-21.7005536 -66.09118,-21.7005536 -36.47453,0.01378 -66.0637,9.723334 -66.0637,21.7005536 0,11.990961 29.58917,21.6936794 66.0637,21.6936794 z m 0,0"
                />
        </g>
    </symbol>
    <use xlink:href="#hyper" />
</svg>
