<?xml version="1.0" encoding="UTF-8"?>
<svg version="1.1"
    xmlns="http://www.w3.org/2000/svg" xmlns:xlink="http://www.w3.org/1999/xlink"
    xml:space="preserve" xmlns:serif="http://www.serif.com/"
>
    <symbol id="salesforce-notext" width="100%" height="100%" viewBox="0 0 273 191" style="fill-rule:evenodd;clip-rule:evenodd;stroke-linejoin:round;stroke-miterlimit:2;">
        <path d="M113,21.3C121.78,12.16 134,6.5 147.5,6.5C165.5,6.5 181.1,16.5 189.5,31.4C196.956,28.067 205.033,26.346 213.2,26.35C245.6,26.35 271.9,52.85 271.9,85.55C271.9,118.25 245.6,144.75 213.2,144.75C209.24,144.75 205.38,144.352 201.6,143.6C194.25,156.7 180.2,165.6 164.2,165.6C157.686,165.613 151.255,164.135 145.4,161.28C137.95,178.78 120.6,191.08 100.4,191.08C79.3,191.08 61.4,177.78 54.5,159.08C51.429,159.728 48.299,160.054 45.16,160.052C20.06,160.052 -0.24,139.452 -0.24,114.152C-0.24,97.152 8.9,82.352 22.46,74.352C19.583,67.725 18.102,60.576 18.11,53.352C18.11,24.152 41.81,0.552 71.01,0.552C88.11,0.552 103.41,8.702 113.01,21.352" style="fill:rgb(0,161,224);"/>
    </symbol>
    <use xlink:href="#salesforce-notext" />
</svg>
