<svg version="1.1" xmlns="http://www.w3.org/2000/svg" xmlns:xlink="http://www.w3.org/1999/xlink" xml:space="preserve" xmlns:serif="http://www.serif.com/" style="fill-rule:evenodd;clip-rule:evenodd;stroke-linejoin:round;stroke-miterlimit:2;">
    <symbol id="sqlynx" width="100%" height="100%" viewBox="0 0 200 200">
        <g transform="matrix(1,0,0,1,0,-304.5)">
            <g transform="matrix(0.8,0,0,1.06952,0,-16.3556)">
                <rect x="0" y="300" width="250" height="187" style="fill:none;"/>
                <g transform="matrix(0.631463,0,0,0.472335,-230.544,128.592)">
                    <path d="M366.666,525.55C383.333,433.113 464.269,362.895 561.475,362.895C670.729,362.895 759.428,451.595 759.428,560.848C759.428,670.101 670.729,758.801 561.475,758.801C528.841,758.801 498.04,750.887 470.89,736.874C474.339,705.76 472.95,683.171 491.576,644.796C511.352,604.049 534.614,596.467 536.814,596.467C537.913,596.467 534.614,600.866 530.215,605.265C514.819,622.861 501.622,647.055 499.423,664.651L498.323,669.05L504.921,661.352C510.42,654.753 522.517,644.856 531.315,641.556C540.113,636.058 540.113,637.158 529.116,649.255C515.919,662.451 508.221,674.549 499.423,691.045C495.024,699.843 489.525,714.139 489.525,717.438C489.525,717.438 493.924,714.139 498.323,709.74C509.32,699.843 526.801,670.222 581.356,676.296C594.472,677.757 607.197,681.147 629.192,686.646C652.286,692.144 661.084,691.045 666.583,683.347C668.782,680.047 669.882,680.047 658.885,677.848C655.585,676.748 648.987,675.648 645.688,673.449C640.189,671.249 623.693,661.352 623.693,660.252C623.693,659.152 637.99,661.352 651.186,664.651C658.885,666.85 667.683,667.95 669.882,667.95C679.78,667.95 687.478,663.551 695.176,653.654L698.475,649.255L694.076,640.457C691.877,634.958 689.677,631.659 690.777,631.659C697.375,633.858 709.473,633.858 711.672,630.559C711.672,629.459 709.473,626.16 706.173,622.861C690.777,606.365 684.179,588.769 684.179,562.375C684.179,548.079 683.079,545.879 670.982,528.283C646.788,490.892 626.992,477.695 595.1,475.496L584.102,475.496C584.102,475.496 575.305,465.598 569.806,456.8C556.609,439.205 529.116,408.412 517.018,399.614L513.719,397.415L514.819,409.512C514.819,422.709 513.719,429.307 507.121,449.102C500.522,468.898 499.423,477.695 499.423,489.793C499.423,507.388 503.822,523.884 512.619,544.78C514.819,550.278 517.018,554.677 517.018,555.777C515.919,555.777 510.993,550.894 508.767,547.777C505.101,542.645 501.1,534.098 495.024,524.984C492.824,521.685 469.73,534.882 458.732,546.979C455.433,550.278 452.134,552.478 452.134,552.478C451.034,552.478 452.134,549.178 454.333,544.78C458.732,537.081 465.331,529.383 478.528,520.585C482.927,517.286 487.326,513.987 488.425,512.887C489.525,510.688 489.525,507.388 489.525,498.591L489.525,485.394C489.525,485.394 441.578,486.282 366.666,525.55ZM654.486,472.197C655.585,466.698 656.685,459 657.785,454.601C658.885,444.703 658.885,417.21 657.785,417.21L653.386,423.808C648.987,432.606 639.089,444.703 629.192,451.302C620.394,457.9 604.997,465.598 594,468.898L586.302,471.097L601.698,472.197C619.294,473.297 635.79,477.695 643.488,482.094C651.186,485.394 651.186,485.394 654.486,472.197ZM656.685,584.37C651.186,582.171 651.186,582.171 645.688,583.27C643.488,584.37 640.189,585.47 639.089,585.47C637.99,585.47 632.491,582.171 628.092,577.772C623.693,573.373 617.095,567.874 614.895,565.675L610.496,561.276L628.092,561.276C648.987,561.276 650.087,561.276 652.286,568.974C653.386,571.173 655.585,576.672 658.885,579.971C664.383,586.57 664.383,587.669 656.685,584.37ZM530.215,543.68C528.016,541.48 524.717,529.383 523.617,520.585C522.517,510.688 523.617,493.092 526.916,483.194C529.116,475.496 536.814,456.8 539.013,455.701C541.213,455.701 548.911,464.499 553.31,473.297C557.709,483.194 562.108,495.291 562.108,498.591C562.108,499.69 559.908,501.89 557.709,504.089C548.911,510.688 544.512,517.286 539.013,531.583C535.714,538.181 532.415,543.68 532.415,544.78C531.315,544.78 531.315,543.68 530.215,543.68Z" style="fill:currentcolor;"/>
                </g>
            </g>
        </g>
    </symbol>
</svg>
