<svg version="1.1" xmlns="http://www.w3.org/2000/svg" xmlns:xlink="http://www.w3.org/1999/xlink" xml:space="preserve" xmlns:serif="http://www.serif.com/" style="fill-rule:evenodd;clip-rule:evenodd;stroke-linejoin:round;stroke-miterlimit:2;">
    <symbol id="sqlynx-inverted" width="100%" height="100%" viewBox="0 0 200 200">
        <g transform="matrix(1,0,0,1,0,-301.64)">
            <g transform="matrix(0.8,0,0,1.06952,0,-19.2155)">
                <g transform="matrix(1.95175,0,0,1.45991,-72.2923,182.402)">
                    <path d="M71.086,201.185C50.839,190.421 37.04,169.107 37.04,144.596C37.04,140.339 37.456,136.179 38.25,132.153C61.986,119.965 77.107,119.685 77.107,119.685L77.107,123.989C77.107,126.858 77.107,127.934 76.748,128.651C76.39,129.01 74.955,130.086 73.521,131.162C69.217,134.031 67.065,136.542 65.63,139.052C64.913,140.487 64.554,141.563 64.913,141.563C64.913,141.563 65.989,140.846 67.065,139.77C70.651,135.824 78.183,131.521 78.9,132.597C80.882,135.569 82.187,138.356 83.382,140.03C84.109,141.047 85.715,142.639 86.073,142.639C86.073,142.28 85.356,140.846 84.639,139.052C81.77,132.238 80.335,126.858 80.335,121.12C80.335,117.174 80.694,114.305 82.846,107.849C84.998,101.394 85.356,99.242 85.356,94.938L84.998,90.993L86.073,91.71C90.019,94.579 98.985,104.622 103.289,110.36C105.082,113.229 107.951,116.457 107.951,116.457L111.538,116.457C121.939,117.174 128.395,121.478 136.285,133.673C140.23,139.411 140.589,140.128 140.589,144.791C140.589,153.398 142.741,159.137 147.762,164.517C148.838,165.593 149.555,166.669 149.555,167.027C148.838,168.103 144.893,168.103 142.741,167.386C142.382,167.386 143.099,168.462 143.817,170.255L145.251,173.124L144.175,174.559C141.665,177.787 139.154,179.222 135.926,179.222C135.209,179.222 132.34,178.863 129.829,178.146C125.525,177.07 120.863,176.352 120.863,176.711C120.863,177.07 126.243,180.298 128.036,181.015C129.112,181.732 131.264,182.091 132.34,182.449C135.926,183.167 135.568,183.167 134.85,184.243C133.057,186.753 130.188,187.112 122.656,185.319C115.483,183.525 111.333,182.42 107.056,181.943C89.264,179.962 83.563,189.623 79.976,192.85C78.542,194.285 77.107,195.361 77.107,195.361C77.107,194.285 78.9,189.623 80.335,186.753C83.204,181.373 85.715,177.428 90.019,173.124C93.605,169.179 93.605,168.821 90.736,170.614C87.867,171.69 83.922,174.918 82.128,177.07L79.976,179.58L80.335,178.146C81.052,172.407 85.356,164.517 90.377,158.778C91.812,157.344 92.888,155.909 92.529,155.909C91.812,155.909 84.226,158.382 77.776,171.67C71.805,183.973 72.141,191.301 71.086,201.185ZM131.623,151.964C134.133,153.04 134.133,152.681 132.34,150.529C131.264,149.453 130.547,147.66 130.188,146.943C129.471,144.432 129.112,144.432 122.298,144.432L116.559,144.432L117.994,145.867C118.711,146.584 120.863,148.377 122.298,149.812C123.732,151.247 125.525,152.323 125.884,152.323C126.243,152.323 127.319,151.964 128.036,151.605C129.829,151.247 129.829,151.247 131.623,151.964ZM90.377,138.694C90.736,138.694 90.736,139.052 91.095,139.052C91.095,138.694 92.171,136.9 93.247,134.748C95.04,130.086 96.474,127.934 99.344,125.782C100.061,125.065 100.778,124.348 100.778,123.989C100.778,122.913 99.344,118.968 97.909,115.74C96.474,112.871 93.964,110.001 93.247,110.001C92.529,110.36 90.019,116.457 89.301,118.968C88.225,122.196 87.867,127.934 88.225,131.162C88.584,134.031 89.66,137.976 90.377,138.694ZM130.905,115.381C129.829,119.685 129.829,119.685 127.319,118.609C124.808,117.174 119.428,115.74 113.69,115.381L108.669,115.023L111.179,114.305C114.766,113.229 119.787,110.719 122.656,108.567C125.884,106.415 129.112,102.47 130.547,99.6L131.981,97.449C132.34,97.449 132.34,106.415 131.981,109.643C131.623,111.077 131.264,113.588 130.905,115.381Z" style="fill:currentcolor;"/>
                </g>
            </g>
        </g>
    </symbol>
</svg>
