<svg width="100%" height="100%" viewBox="0 0 24 24" version="1.1" xmlns="http://www.w3.org/2000/svg" xmlns:xlink="http://www.w3.org/1999/xlink" xml:space="preserve" xmlns:serif="http://www.serif.com/">
    <symbol id="trino_outlines" width="100%" height="100%" viewBox="0 0 24 24" style="fill-rule:evenodd;clip-rule:evenodd;stroke-linejoin:round;stroke-miterlimit:2;">
        <g transform="matrix(1,0,0,1,-56.4575,0)">
            <g id="Trino-Outlines" serif:id="Trino Outlines" transform="matrix(1,0,0,1,56.4575,0)">
                <rect x="0" y="0" width="24" height="24" style="fill:none;"/>
                <clipPath id="_clip1">
                    <rect x="0" y="0" width="24" height="24"/>
                </clipPath>
                <g clip-path="url(#_clip1)">
                    <g transform="matrix(0.958328,0,0,0.958328,0.500069,0.500067)">
                        <path d="M18.651,16.031L18.651,18.017C18.62,18.596 18.127,19.041 17.548,19.013L17.164,19.013C16.909,19.657 16.524,20.241 16.034,20.731C15.97,20.791 15.934,20.875 15.934,20.963C15.934,21.051 15.97,21.135 16.034,21.196L16.272,21.415C16.342,21.472 16.383,21.558 16.383,21.649C16.383,21.721 16.357,21.79 16.311,21.845C15.185,23.229 13.344,23.997 11.261,23.997C9.463,24.05 7.72,23.364 6.442,22.099C6.439,22.096 6.436,22.092 6.433,22.089C6.331,21.974 6.275,21.825 6.275,21.672C6.275,21.491 6.353,21.319 6.488,21.2C6.625,21.073 6.625,20.853 6.488,20.727C5.997,20.24 5.613,19.657 5.362,19.013L5.012,19.013C4.432,19.041 3.938,18.597 3.905,18.017L3.905,16.031C3.94,15.453 4.434,15.011 5.012,15.039L5.285,15.039C5.616,13.806 6.348,12.718 7.364,11.945C6.941,10.846 6.211,8.69 6.138,6.938C6.023,4.471 6.219,0.078 7.825,0.001C9.432,-0.076 9.197,4.029 8.924,6.696C8.782,8.175 8.741,9.661 8.801,11.146C9.596,10.853 10.437,10.707 11.284,10.716C11.869,10.714 12.453,10.784 13.021,10.923C13.283,9.655 13.897,7.349 15.05,5.727C16.722,3.375 18.486,0.946 19.662,1.627C20.838,2.307 19.354,4.766 18.332,6.054C17.31,7.341 15.546,9.263 14.958,10.281C14.747,10.666 14.528,11.084 14.362,11.434C15.8,12.173 16.86,13.486 17.279,15.047L17.352,15.047L17.352,12.741C17.354,12.619 17.283,12.507 17.172,12.456C16.843,12.317 16.625,11.998 16.614,11.642C16.665,11.167 17.044,10.788 17.519,10.737C18.078,10.677 18.58,11.082 18.64,11.642C18.629,11.997 18.413,12.315 18.086,12.456C17.98,12.51 17.913,12.621 17.917,12.741L17.917,14.893C17.916,15.011 17.981,15.12 18.086,15.174C18.422,15.328 18.641,15.661 18.651,16.031Z" style="fill:none;fill-rule:nonzero;stroke:currentColor;stroke-width:1.04px;"/>
                    </g>
                </g>
            </g>
        </g>
    </symbol>
    <use xlink:href="#trino_outlines" />
</svg>
