<svg width="100%" height="100%" viewBox="0 0 24 24" version="1.1" xmlns="http://www.w3.org/2000/svg" xmlns:xlink="http://www.w3.org/1999/xlink" xml:space="preserve" xmlns:serif="http://www.serif.com/">
    <symbol id="trino_nocolor" width="100%" height="100%" viewBox="0 0 24 24" style="fill-rule:evenodd;clip-rule:evenodd;stroke-linejoin:round;stroke-miterlimit:2;">
    <g transform="matrix(1,0,0,1,-82.9077,0)">
        <g id="Trino-Filled" serif:id="Trino Filled" transform="matrix(1,0,0,1,82.9077,0)">
            <g transform="matrix(0.958328,0,0,0.958328,0.500069,0.500067)">
                <path d="M18.651,16.031L18.651,18.017C18.62,18.596 18.127,19.041 17.548,19.013L17.164,19.013C16.909,19.657 16.524,20.241 16.034,20.731C15.97,20.791 15.934,20.875 15.934,20.963C15.934,21.051 15.97,21.135 16.034,21.196L16.272,21.415C16.342,21.472 16.383,21.558 16.383,21.649C16.383,21.721 16.357,21.79 16.311,21.845C15.185,23.229 13.344,23.997 11.261,23.997C9.463,24.05 7.72,23.364 6.442,22.099C6.439,22.096 6.436,22.092 6.433,22.089C6.331,21.974 6.275,21.825 6.275,21.672C6.275,21.491 6.353,21.319 6.488,21.2C6.625,21.073 6.625,20.853 6.488,20.727C5.997,20.24 5.613,19.657 5.362,19.013L5.012,19.013C4.432,19.041 3.938,18.597 3.905,18.017L3.905,16.031C3.94,15.453 4.434,15.011 5.012,15.039L5.285,15.039C5.616,13.806 6.348,12.718 7.364,11.945C6.941,10.846 6.211,8.69 6.138,6.938C6.023,4.471 6.219,0.078 7.825,0.001C9.432,-0.076 9.197,4.029 8.924,6.696C8.782,8.175 8.741,9.661 8.801,11.146C9.596,10.853 10.437,10.707 11.284,10.716C11.869,10.714 12.453,10.784 13.021,10.923C13.283,9.655 13.897,7.349 15.05,5.727C16.722,3.375 18.486,0.946 19.662,1.627C20.838,2.307 19.354,4.766 18.332,6.054C17.31,7.341 15.546,9.263 14.958,10.281C14.747,10.666 14.528,11.084 14.362,11.434C15.8,12.173 16.86,13.486 17.279,15.047L17.352,15.047L17.352,12.741C17.354,12.619 17.283,12.507 17.172,12.456C16.843,12.317 16.625,11.998 16.614,11.642C16.665,11.167 17.044,10.788 17.519,10.737C18.078,10.677 18.58,11.082 18.64,11.642C18.629,11.997 18.413,12.315 18.086,12.456C17.98,12.51 17.913,12.621 17.917,12.741L17.917,14.893C17.916,15.011 17.981,15.12 18.086,15.174C18.422,15.328 18.641,15.661 18.651,16.031Z" style="fill:currentColor"/>
                <path d="M5.012,19.535C4.157,19.563 3.433,18.904 3.385,18.047C3.384,18.037 3.384,18.027 3.384,18.017L3.384,16.031C3.384,16.02 3.384,16.009 3.385,15.999C3.434,15.183 4.096,14.548 4.898,14.517C5.258,13.456 5.896,12.509 6.744,11.777C6.303,10.574 5.685,8.596 5.617,6.962C5.533,5.169 5.623,2.399 6.248,0.87C6.599,0.009 7.143,-0.489 7.8,-0.52C8.504,-0.554 9.025,-0.105 9.316,0.739C9.799,2.139 9.642,4.808 9.444,6.746C9.326,7.975 9.279,9.209 9.303,10.442C9.949,10.271 10.616,10.188 11.286,10.194C11.734,10.193 12.182,10.231 12.623,10.307C12.942,8.944 13.57,6.91 14.625,5.425C15.842,3.713 17.123,1.977 18.191,1.323C18.825,0.935 19.415,0.881 19.923,1.175C20.456,1.483 20.669,2.016 20.606,2.688C20.501,3.806 19.512,5.408 18.741,6.378C17.734,7.646 15.994,9.533 15.412,10.538C15.289,10.762 15.163,10.998 15.048,11.224C15.466,11.484 15.849,11.791 16.191,12.138C16.132,11.987 16.098,11.825 16.093,11.657C16.092,11.634 16.093,11.61 16.096,11.586C16.172,10.868 16.745,10.295 17.463,10.218C18.309,10.128 19.068,10.74 19.158,11.586C19.161,11.61 19.162,11.634 19.161,11.658C19.146,12.16 18.868,12.615 18.439,12.862L18.439,14.77C18.878,15.03 19.159,15.5 19.173,16.017C19.173,16.021 19.173,16.026 19.173,16.031L19.173,18.017C19.173,18.027 19.173,18.036 19.172,18.045C19.126,18.902 18.403,19.563 17.548,19.535L17.561,19.013C18.134,19.034 18.62,18.592 18.651,18.017L18.651,16.031C18.641,15.661 18.422,15.328 18.086,15.174C17.981,15.12 17.916,15.011 17.917,14.893L17.917,12.741C17.913,12.621 17.98,12.51 18.086,12.456C18.413,12.315 18.629,11.997 18.64,11.642C18.58,11.082 18.078,10.677 17.519,10.737C17.044,10.788 16.665,11.167 16.614,11.642C16.625,11.998 16.843,12.317 17.172,12.456C17.283,12.507 17.354,12.619 17.352,12.741L17.352,15.047L17.279,15.047C16.86,13.486 15.8,12.173 14.362,11.434C14.528,11.084 14.747,10.666 14.958,10.281C15.546,9.263 17.31,7.341 18.332,6.054C19.354,4.766 20.838,2.307 19.662,1.627C18.486,0.946 16.722,3.375 15.05,5.727C13.897,7.349 13.282,9.655 13.021,10.923C12.453,10.784 11.869,10.714 11.284,10.716C10.437,10.707 9.596,10.853 8.801,11.146C8.741,9.661 8.782,8.175 8.924,6.696C9.197,4.028 9.432,-0.076 7.825,0.001C6.219,0.078 6.023,4.47 6.138,6.938C6.211,8.69 6.941,10.846 7.364,11.945C6.348,12.718 5.616,13.806 5.285,15.039L5.012,15.039C4.434,15.011 3.941,15.453 3.905,16.031L3.905,18.017C3.928,18.414 4.167,18.747 4.501,18.909C4.493,18.947 4.49,18.986 4.491,19.026C4.498,19.309 4.729,19.535 5.012,19.535ZM17.548,19.535C17.545,19.535 17.541,19.535 17.537,19.535C17.537,19.535 17.506,19.535 17.506,19.534C17.26,20.054 16.935,20.534 16.543,20.955L16.605,21.012L16.619,21.027L16.382,21.649C16.382,21.558 16.342,21.472 16.272,21.415L16.034,21.196C15.97,21.135 15.934,21.051 15.934,20.963C15.934,20.875 15.97,20.791 16.034,20.731C16.401,20.365 16.708,19.945 16.947,19.487C17.014,19.518 17.088,19.535 17.164,19.535L17.167,19.013L17.548,19.013L17.548,19.535ZM16.619,21.027L16.62,21.026C16.644,21.047 16.665,21.07 16.684,21.094L16.619,21.027ZM16.684,21.094L16.731,21.143L16.826,21.297L16.884,21.467L16.904,21.649L16.854,21.933C16.854,21.933 16.719,22.166 16.715,22.174C15.499,23.669 13.518,24.517 11.269,24.519C9.331,24.574 7.453,23.833 6.075,22.47C6.068,22.463 6.062,22.456 6.055,22.449C6.055,22.449 6.036,22.427 6.036,22.427C5.854,22.218 5.753,21.949 5.753,21.672C5.753,21.413 5.84,21.164 5.993,20.966C5.594,20.544 5.265,20.06 5.018,19.535C5.016,19.535 5.014,19.535 5.012,19.535L5.012,19.521C4.964,19.417 4.918,19.31 4.876,19.203L5.013,19.296L5.015,19.013L5.362,19.013L5.362,19.535L5.5,19.333C5.745,19.85 6.08,20.322 6.488,20.727C6.625,20.853 6.625,21.073 6.488,21.2C6.353,21.319 6.275,21.491 6.275,21.672C6.275,21.825 6.331,21.974 6.433,22.089C6.436,22.092 6.439,22.096 6.442,22.099C7.72,23.364 9.463,24.05 11.261,23.997C13.298,23.997 15.104,23.262 16.236,21.935C16.248,21.936 16.26,21.936 16.272,21.936C16.492,21.936 16.689,21.798 16.763,21.591C16.825,21.421 16.792,21.233 16.684,21.094ZM16.304,21.853L16.272,21.936L16.244,21.925C16.264,21.901 16.284,21.877 16.304,21.853ZM16.797,12.85C16.808,12.866 16.819,12.881 16.831,12.897L16.831,12.87C16.819,12.863 16.808,12.857 16.797,12.85Z" style="fill:currentColor"/>
            </g>
        </g>
    </g>
    </symbol>
    <use xlink:href="#trino_nocolor" />
</svg>
