<svg version="1.1" xmlns="http://www.w3.org/2000/svg" xmlns:xlink="http://www.w3.org/1999/xlink">
    <symbol id="cloud_offline" viewBox="0 0 24 24">
        <!--<path d="m2.78 2.22 19.5 19.5a.749.749 0 0 1-.326 1.275.749.749 0 0 1-.734-.215l-2.845-2.845a6.932 6.932 0 0 1-.944.065H5.017C2.229 20 0 17.831 0 15.059a4.899 4.899 0 0 1 3.111-4.58A7.52 7.52 0 0 1 4.36 5.922L1.72 3.28a.751.751 0 0 1 .018-1.042.751.751 0 0 1 1.042-.018ZM16.94 18.5 5.448 7.01a6.026 6.026 0 0 0-.794 3.853.75.75 0 0 1-.552.869c-1.52.385-2.603 1.712-2.603 3.328 0 1.917 1.532 3.44 3.517 3.44Zm-6.104-16a7.865 7.865 0 0 0-3.638.88.75.75 0 1 0 .692 1.331A6.365 6.365 0 0 1 10.836 4c2.588 0 4.77 1.5 5.72 3.655l.179.445a.75.75 0 0 0 .696.471c2.843 0 5.069 2.206 5.069 4.965a4.9 4.9 0 0 1-1.684 3.716.75.75 0 0 0 .986 1.13A6.396 6.396 0 0 0 24 13.536c0-3.44-2.652-6.191-6.054-6.445l-.002-.006a.634.634 0 0 0-.01-.022C16.749 4.358 14.026 2.5 10.837 2.5Z" fill='currentcolor' ></path>-->
        <path fill="currentColor" d="M19.8 22.6L17.15 20H6.5Q4.2 20 2.6 18.4T1 14.5Q1 12.58 2.19 11.08 3.38 9.57 5.25 9.15 5.33 8.95 5.4 8.76 5.5 8.57 5.55 8.35L1.4 4.2L2.8 2.8L21.2 21.2M6.5 18H15.15L7.1 9.95Q7.05 10.23 7.03 10.5 7 10.73 7 11H6.5Q5.05 11 4.03 12.03 3 13.05 3 14.5 3 15.95 4.03 17 5.05 18 6.5 18M11.13 14M21.6 18.75L20.15 17.35Q20.58 17 20.79 16.54 21 16.08 21 15.5 21 14.45 20.27 13.73 19.55 13 18.5 13H17V11Q17 8.93 15.54 7.46 14.08 6 12 6 11.33 6 10.7 6.16 10.07 6.33 9.5 6.68L8.05 5.23Q8.93 4.63 9.91 4.31 10.9 4 12 4 14.93 4 16.96 6.04 19 8.07 19 11 20.73 11.2 21.86 12.5 23 13.78 23 15.5 23 16.5 22.63 17.31 22.25 18.15 21.6 18.75M14.83 12.03Z"></path>
    </symbol>
    <use xlink:href="#cloud_offline" />
</svg>
