<svg version="1.1" xmlns="http://www.w3.org/2000/svg" xmlns:xlink="http://www.w3.org/1999/xlink">
    <symbol id="package_cut_24" viewBox="0 0 24 24">
        <path fill="currentColor" d="M21.995,6.775L12.751,12.113L12.751,18.255L12.751,22.786C12.235,23.031 11.626,23.009 11.126,22.72L2.876,17.957C2.335,17.645 2.001,17.066 2.001,16.442L2.001,6.917C2.001,6.292 2.335,5.715 2.876,5.402L11.126,0.64C11.667,0.327 12.335,0.327 12.876,0.64L21.126,5.402C21.626,5.691 21.949,6.206 21.995,6.775ZM11.876,1.938L4.251,6.34L12.001,10.814L19.751,6.34L12.126,1.938C12.049,1.893 11.953,1.893 11.876,1.938ZM3.501,7.64L3.501,16.443C3.501,16.533 3.549,16.615 3.626,16.659L11.251,21.061L11.251,12.114L3.501,7.64Z"/>
    </symbol>
    <use xlink:href="#package_cut_24" />
</svg>
