<svg version="1.1" xmlns="http://www.w3.org/2000/svg" xmlns:xlink="http://www.w3.org/1999/xlink">
    <symbol id="plan" viewBox="0 0 20 16">
        <g transform="matrix(0.649504,0,0,0.658017,-0.141347,0.160348)">
            <g transform="matrix(1.53964,0,0,1.51972,-2.86165,-6.32255)">
                <path d="M8,5C8,4.448 8.453,4 8.997,4L15.003,4C15.554,4 16,4.444 16,5L16,8C16,8.552 15.547,9 15.003,9L8.997,9C8.446,9 8,8.556 8,8L8,5ZM2,16C2,15.448 2.453,15 2.997,15L9.003,15C9.554,15 10,15.444 10,16L10,19C10,19.552 9.547,20 9.003,20L2.997,20C2.446,20 2,19.556 2,19L2,16ZM14,16C14,15.448 14.453,15 14.997,15L21.003,15C21.554,15 22,15.444 22,16L22,19C22,19.552 21.547,20 21.003,20L14.997,20C14.446,20 14,19.556 14,19L14,16ZM11,13L6,13L6,14.019L5,14.019L5,12L10,12L10,9.997L11,9.997L11,13ZM14,9.997L14,12L19,12L19,14.019L18,14.019L18,13L13,13L13,9.997L14,9.997Z" style="fill-rule:nonzero;" fill='currentcolor' />
            </g>
        </g>
    </symbol>
    <use xlink:href="#plan" />
</svg>
