<svg version="1.1" xmlns="http://www.w3.org/2000/svg" xmlns:xlink="http://www.w3.org/1999/xlink">
    <symbol id="refresh" viewBox="0 0 16 16">
        <path d="M0.5,8C0.5,3.611 4.111,0 8.5,0C12.889,-0 16.5,3.611 16.5,8C16.5,12.389 12.889,16 8.5,16C4.111,16 0.5,12.389 0.5,8ZM3.927,3.677C3.88,3.63 3.816,3.604 3.75,3.604C3.613,3.604 3.5,3.716 3.5,3.854C3.5,3.854 3.5,6 3.5,6C3.5,6.138 3.612,6.25 3.75,6.25C3.75,6.25 5.896,6.25 5.896,6.25C6.034,6.25 6.146,6.137 6.146,6C6.146,5.934 6.12,5.87 6.073,5.823L5.549,5.299C6.307,4.473 7.378,4.002 8.499,4.002C10.376,4.002 12.013,5.322 12.411,7.157C12.485,7.502 12.792,7.75 13.145,7.75C13.556,7.75 13.895,7.412 13.895,7C13.895,6.947 13.889,6.895 13.878,6.843C13.333,4.319 11.082,2.501 8.5,2.501C6.981,2.501 5.528,3.13 4.488,4.238L3.927,3.677ZM13.5,12.146C13.5,12.146 13.5,10 13.5,10C13.5,9.863 13.387,9.75 13.25,9.75C13.25,9.75 11.104,9.75 11.104,9.75C10.966,9.75 10.854,9.863 10.854,10C10.854,10.066 10.88,10.13 10.927,10.177L11.451,10.701C10.693,11.528 9.622,11.999 8.501,11.999C6.623,11.999 4.986,10.678 4.589,8.843C4.515,8.498 4.208,8.25 3.856,8.25C3.444,8.25 3.105,8.588 3.105,9C3.105,9.053 3.111,9.105 3.122,9.157C3.667,11.681 5.918,13.499 8.5,13.499C10.019,13.499 11.472,12.87 12.512,11.762L13.073,12.323C13.12,12.37 13.184,12.396 13.25,12.396C13.387,12.396 13.5,12.284 13.5,12.146Z" fill="currentColor" />
    </symbol>
    <use xlink:href="#refresh" />
</svg>
