<?xml version="1.0" encoding="UTF-8" standalone="no"?>
<!DOCTYPE svg PUBLIC "-//W3C//DTD SVG 1.1//EN" "http://www.w3.org/Graphics/SVG/1.1/DTD/svg11.dtd">
<svg width="100%" height="100%" viewBox="0 0 24 24" version="1.1" xmlns="http://www.w3.org/2000/svg" xmlns:xlink="http://www.w3.org/1999/xlink" xml:space="preserve" xmlns:serif="http://www.serif.com/" style="fill-rule:evenodd;clip-rule:evenodd;stroke-linejoin:round;stroke-miterlimit:2;">
    <symbol id="upload_browser" viewBox="0 0 24 24">
        <g transform="matrix(1,0,0,-1,0,23)">
            <path fill="currentColor" d="M11.25,9.331L11.25,0.75C11.25,0.339 11.589,0 12,0C12.411,-0 12.75,0.339 12.75,0.75L12.75,9.33L14.699,7.22C14.841,7.053 15.05,6.957 15.27,6.957C15.681,6.957 16.02,7.295 16.02,7.707C16.02,7.906 15.941,8.096 15.8,8.237L12.55,11.757C12.408,11.911 12.208,11.998 11.999,11.998C11.79,11.998 11.59,11.911 11.448,11.757L8.198,8.237C8.063,8.097 7.987,7.91 7.987,7.715C7.987,7.304 8.325,6.965 8.737,6.965C8.952,6.965 9.158,7.058 9.3,7.22L11.249,9.331L11.25,9.331Z"/>
            <path fill="currentColor" d="M8.25,2L1.75,2C0.79,2 0,2.79 0,3.75L0,20.25C0,21.216 0.784,22 1.75,22L22.25,22C23.216,22 24,21.216 24,20.25L24,3.75C24,2.79 23.21,2 22.25,2L15.75,2C15.339,2 15,2.339 15,2.75C15,3.161 15.339,3.5 15.75,3.5L22.25,3.5C22.387,3.5 22.5,3.613 22.5,3.75L22.5,17L1.5,17L1.5,3.75C1.5,3.612 1.612,3.5 1.75,3.5L8.25,3.5C8.661,3.5 9,3.161 9,2.75C9,2.339 8.661,2 8.25,2ZM7,20.5L7,18.5L11,18.5L11,20.5L7,20.5ZM1.75,20.5C1.613,20.5 1.5,20.387 1.5,20.25L1.5,18.5L5.5,18.5L5.5,20.5L1.75,20.5ZM12.5,20.5L12.5,18.5L22.5,18.5L22.5,20.25C22.5,20.387 22.387,20.5 22.25,20.5L12.5,20.5Z"/>
        </g>
    </symbol>
    <use xlink:href="#upload_browser" />
</svg>
