<svg version="1.1" xmlns="http://www.w3.org/2000/svg" xmlns:xlink="http://www.w3.org/1999/xlink">
    <symbol id="gazelle" viewBox="0 0 684 1221">
        <g transform="matrix(1,0,0,1,-254.723,14.5425)">
            <path d="M555,1205.02C527.906,1204.02 498.007,1202.34 481,1200.87C474.125,1200.28 463.55,1200.07 457.5,1200.42C451.45,1200.76 440.338,1201.28 432.807,1201.57C419.174,1202.1 419.107,1202.09 417.534,1199.69C416.666,1198.37 416.225,1196.58 416.556,1195.71C417.034,1194.47 416.165,1194.02 412.329,1193.51C409.673,1193.16 406.375,1192.4 405,1191.81C402.671,1190.82 400.21,1190.39 383,1188.01C373.585,1186.71 367.119,1185.5 362,1184.09C359.525,1183.4 355.7,1182.4 353.5,1181.85C335.094,1177.29 313.743,1168.86 308.75,1164.2C304.798,1160.5 305,1156.07 309.29,1152.35C315.423,1147.04 336.688,1138.69 351,1135.98C359.513,1134.37 365.136,1133.03 366.234,1132.36C366.839,1131.98 370.297,1131.31 373.917,1130.87C377.538,1130.43 383.2,1129.59 386.5,1129.01C389.8,1128.42 395.996,1127.52 400.269,1127C404.542,1126.48 408.9,1125.59 409.954,1125.02C411.007,1124.46 413.361,1123.99 415.184,1123.99C419.483,1123.97 425.132,1121.96 435.289,1116.85C446.959,1110.98 451.946,1109.57 466.5,1108.03C470.9,1107.56 475.924,1106.66 477.665,1106.02C480.224,1105.08 481.754,1105.18 485.644,1106.5C489.623,1107.85 491.181,1107.93 494.628,1106.96L498.797,1105.8L499.481,1097.65C501.189,1077.28 498.414,1038.49 494.748,1031.49L493.415,1028.94L487.032,1034.47C483.521,1037.51 480.283,1040 479.835,1040C479.387,1040 476.429,1042.24 473.261,1044.97C458.123,1058.03 445.796,1068 444.785,1068C444.325,1068 441.09,1070.59 437.595,1073.75C429.802,1080.8 419.407,1089.59 411.75,1095.6C407.725,1098.76 406,1099.63 406,1098.52C406,1096.59 410.571,1087.38 411.954,1086.53C412.825,1085.99 414.485,1082.79 416.379,1078C416.705,1077.17 417.766,1075.4 418.736,1074.05C420.453,1071.67 420.446,1071.62 418.5,1072.42C415.518,1073.65 411.972,1074.76 407.5,1075.87C405.3,1076.41 400.35,1077.87 396.5,1079.11C379.715,1084.51 340,1085.51 340,1080.52C340,1079.89 342.749,1078.05 346.108,1076.45C349.468,1074.84 352.73,1072.81 353.358,1071.94C353.986,1071.06 355.4,1069.85 356.5,1069.24C358.432,1068.18 358.413,1068.11 355.959,1067.17C354.561,1066.64 352.819,1065.49 352.086,1064.6C351.354,1063.72 350.245,1063 349.621,1063C346.383,1063 323.725,1052.98 322.507,1051.01C322.162,1050.45 319.959,1049.12 317.613,1048.05C315.267,1046.98 311.405,1044.62 309.031,1042.8C301.165,1036.78 281.874,1017.58 278.586,1012.5C269.101,997.844 266.867,993.936 265.126,988.956C264.077,985.955 262.227,981.025 261.014,978C259.801,974.975 258.379,970.25 257.853,967.5C257.327,964.75 256.398,960.25 255.787,957.5C254.37,951.115 254.368,901.81 255.784,893C259.019,872.885 267.61,850.128 279.189,831C284.73,821.847 293.998,808.304 295.891,806.595C297.051,805.547 298.015,804.197 298.034,803.595C298.053,802.993 300.329,800.025 303.093,797C305.856,793.975 308.721,790.375 309.459,789C311.207,785.741 330.506,767 332.113,767C332.864,767 332.559,767.883 331.336,769.25C321.774,779.939 304.461,817.262 300.838,835C300.332,837.475 299.534,841.805 299.063,844.622C298.592,847.439 297.711,850.672 297.104,851.806C295.926,854.006 295.613,871.028 296.636,877.217L297.251,880.934L304.303,873.382C318.171,858.533 348.271,841.884 367.25,838.565C370.435,838.008 370.999,838.18 370.995,839.705C370.989,841.537 370.004,843.253 364.216,851.515C360.448,856.892 356.757,863.93 354.43,870.176C346.582,891.236 345.346,896.756 344.84,913C344.595,920.841 347.934,932.605 350.929,934.456C351.448,934.777 352.463,933.834 353.186,932.362C355.017,928.632 357.767,927.045 359.013,929C359.539,929.825 359.976,931.535 359.985,932.8C360.037,940.645 378.71,964.693 390.604,972.234C396.894,976.221 414.017,984.502 418.5,985.724C420.7,986.324 425.015,987.531 428.088,988.407C435.976,990.656 463.646,990.649 470.572,988.398C475.724,986.723 480,983.034 480,980.265C480,978.631 480.548,976.678 483.582,967.5C485.547,961.559 492.722,941.355 496.368,931.5C497.792,927.65 498.967,922.58 498.979,920.233C498.994,917.102 500.428,913.11 504.367,905.233C507.319,899.33 510.073,893.375 510.487,892C510.901,890.625 512.514,886.8 514.072,883.5C519.603,871.781 522.334,861.994 523.14,851C523.563,845.225 524.398,837.35 524.994,833.5C525.591,829.65 526.452,822.9 526.907,818.5C527.361,814.1 528.074,809.476 528.49,808.225C529.29,805.819 527.866,798.991 525.261,792.75C523.757,789.146 523.507,789 518.839,789L513.981,789L511.072,782.75C506.927,773.845 503,764.404 503,763.345C503,762.847 500.744,757.953 497.987,752.47C493.277,743.103 491.954,741.471 476.136,725.5C463.27,712.509 457.981,706.374 453.708,699.485C450.633,694.526 447.821,689.576 447.459,688.485C447.097,687.393 445.776,683.8 444.523,680.5C441.037,671.316 440,665.766 440,656.301C440,648.281 439.726,647.099 436.351,640.565C434.344,636.679 431.725,632.15 430.53,630.5C427.979,626.979 423.458,615.219 422.456,609.5C421.383,603.382 421.585,587.156 422.809,581C426.52,562.345 439.208,542.073 452.5,533.561C459.581,529.027 471.541,525.007 478.068,524.967C483.446,524.935 490.701,522.898 496.5,519.792C498.15,518.908 503.1,514.431 507.5,509.842C514.164,502.894 516.275,499.83 520.141,491.5C526.388,478.042 530.016,466.537 529.928,460.47C529.859,455.728 529.625,455.317 524.815,451.5C522.043,449.3 513.494,441.425 505.817,434C494.426,422.982 490.331,418.202 483.546,408C478.973,401.125 473.839,392.72 472.138,389.323C470.437,385.925 468.613,382.879 468.085,382.553C466.603,381.637 461,369.255 461,366.896C461,365.282 462.647,366.561 468.132,372.434C472.054,376.634 475.43,379.903 475.634,379.699C475.838,379.495 475.074,376.667 473.936,373.414C470.994,365.004 467.944,350.656 468.895,349.705C469.338,349.262 472.111,352.729 475.059,357.408C478.006,362.088 480.607,365.726 480.84,365.494C481.072,365.261 480.5,361.118 479.569,356.286C478.604,351.278 478.01,344.279 478.188,340.011C478.452,333.675 478.783,332.467 480.339,332.17C481.351,331.977 483.151,332.647 484.339,333.659C487.253,336.142 490.678,338 492.337,338C493.088,338 495.818,339.125 498.404,340.5C500.99,341.875 503.209,343 503.336,343C503.463,343 501.506,338.805 498.988,333.677C496.469,328.549 493.168,320.337 491.652,315.427C490.135,310.517 488.131,304.042 487.197,301.037C485.742,296.352 485.073,295.476 482.5,294.881C459.24,289.502 452.823,287.433 440.934,281.484C430.517,276.27 424.51,272.224 415.5,264.351C394.005,245.57 382.46,227.811 367.815,191C364.723,183.227 363.179,178.679 361.028,171C360.334,168.525 359.315,165.15 358.764,163.5C357.111,158.555 354.706,146.064 353.037,133.754C352.534,130.043 351.768,126.443 351.334,125.754C347.889,120.278 347.898,34.528 351.344,29.194C351.808,28.475 352.613,25.325 353.133,22.194C353.653,19.062 354.416,14.473 354.828,11.996C356.223,3.619 358.342,2.957 364.48,8.98C366.71,11.169 370.396,14.207 372.671,15.73C374.946,17.254 379.395,20.525 382.558,23C394.219,32.123 403.235,38.398 414.74,45.395C419.55,48.321 422.536,50.263 426.434,53C427.609,53.825 430.046,55.4 431.849,56.5C434.95,58.391 440.101,61.851 448,67.35C452.055,70.172 473.908,92.67 478.862,99.121C492.286,116.605 502.037,136.849 510.111,164C511.999,170.348 519.384,188.01 524.327,198L526.059,201.5L525.501,198C523.733,186.901 522.884,173.791 523.41,165.719C525.07,140.277 526.676,127.402 528.903,121.685C529.506,120.137 530,117.776 530,116.44C530,108.483 545.099,72.931 554.484,58.791C560.567,49.626 561.315,48.608 565.455,43.867C567.68,41.319 570.737,37.376 572.249,35.105C573.761,32.835 577.361,29.461 580.249,27.608C583.137,25.755 586.393,23.247 587.483,22.033C589.974,19.263 596.739,14.673 603.03,11.485C605.686,10.139 608.125,8.607 608.45,8.08C608.776,7.554 611.45,5.745 614.393,4.061C619.483,1.149 634.286,-8 644.903,-8C651.866,-8 644.601,1.545 640.65,8.216C639.254,10.572 636.774,15.002 635.138,18.06C633.502,21.118 631.451,24.21 630.582,24.932C629.712,25.654 629,26.911 629,27.725C629,28.539 627.918,31.297 626.595,33.853C625.273,36.409 623.278,40.75 622.163,43.5C621.047,46.25 618.98,51.142 617.567,54.371C616.155,57.6 615,61.017 615,61.964C615,62.912 614.047,66.345 612.882,69.593C610.819,75.348 609.97,78.713 608.229,88.037C607.763,90.532 607.008,93.178 606.551,93.918C605.259,96.007 603.788,112.385 603.848,124C603.932,140.321 605.402,164.347 606.412,165.917C606.914,166.697 607.687,170.297 608.13,173.917C610.291,191.591 611.798,196.901 614.725,197.153C615.701,197.237 620.1,197.415 624.5,197.549C637.93,197.959 656.43,199.491 657.704,200.298C661.767,202.873 669.415,194.779 673.577,183.5C674.794,180.2 677.236,173.675 679.002,169C680.769,164.325 682.585,159.15 683.038,157.5C683.491,155.85 685.071,150.45 686.548,145.5C689.189,136.649 690.239,131.513 691.884,119.386C692.34,116.024 693.11,112.649 693.594,111.886C694.749,110.066 696.139,91.481 696.203,77C696.269,61.867 694.728,48.677 690.974,32.236C690.438,29.89 690,26.997 690,25.807C690,24.616 689.585,22.26 689.079,20.571C688.572,18.882 687.18,14.263 685.985,10.307C684.79,6.35 684.106,2.638 684.465,2.057C684.864,1.41 675.74,-18 688.021,-14L702.925,-4L722.064,14.453C734.098,26.774 739.48,33.7 748.912,49C756.131,60.711 757.397,63.511 764.279,83C772.955,107.568 775.447,121.088 776.847,151.17C777.36,162.192 778.056,168.362 778.9,169.379C779.708,170.353 779.94,172.127 779.531,174.209C778.894,177.458 778.924,177.442 781.808,173C783.415,170.525 785.746,167.6 786.988,166.5C788.23,165.4 790.878,162.025 792.873,158.999C794.868,155.974 798.3,151.07 800.5,148.101C806.182,140.432 830.734,115.278 835.5,112.242C837.7,110.841 841.062,108.188 842.971,106.347C844.88,104.506 846.791,103 847.218,103C847.645,103 849.683,101.501 851.747,99.67C853.811,97.838 858.425,94.61 862,92.495C865.575,90.381 869.558,87.942 870.851,87.075C880.434,80.654 913.187,63.638 927.729,57.525C932.711,55.431 934.369,55.127 936.016,56.009C938.018,57.08 938.062,57.694 937.615,78.305C937.112,101.468 935.987,116.745 934.629,118.85C933.806,120.126 932.987,124.657 931.076,138.5C930.621,141.8 929.268,148.1 928.07,152.5C926.871,156.9 925.411,162.3 924.825,164.5C924.24,166.7 923.139,170.197 922.38,172.27C921.621,174.344 921,176.711 921,177.531C921,178.351 920.139,180.929 919.087,183.261C918.035,185.592 916.626,189.3 915.955,191.5C912.649,202.341 900.262,229.335 894.678,237.87C892.93,240.541 890.712,244.025 889.749,245.613C887.621,249.122 883.572,254.71 880.974,257.725C879.919,258.949 877.966,261.649 876.632,263.725C873.983,267.852 845.915,295.99 844.423,296.016C843.915,296.025 841.925,297.426 840,299.129C835.88,302.774 828.457,308 827.399,308C826.991,308 825.788,308.788 824.725,309.75C821.994,312.223 814.064,316.612 794.55,326.453C785.227,331.154 778.59,335 779.8,335C781.569,335 782,335.577 782,337.945C782,341.501 776.157,347.369 767.024,352.985C763.711,355.023 760.178,357.434 759.172,358.345C758.166,359.255 756.987,360 756.553,360C754.783,360 748.323,366.662 745.75,371.142C744.237,373.775 742.999,376.058 742.998,376.215C742.994,376.798 764.584,375.272 766.738,374.537C768.318,373.998 769.142,374.207 769.542,375.25C770.193,376.946 765.196,392.736 762.066,398.871C760.907,401.142 760.208,403 760.513,403C760.817,403 763.356,401.84 766.155,400.422C769.404,398.775 771.59,398.19 772.203,398.803C773.589,400.189 770.044,406.622 764.488,412.802C760.142,417.636 759.982,418 762.196,418C763.506,418 766.269,418.862 768.336,419.916C771.261,421.407 771.807,422.073 770.797,422.916C768.26,425.034 759.412,430.577 755.931,432.229C753.986,433.152 751.519,434.874 750.45,436.056C749.38,437.238 747.154,438.892 745.502,439.732C742.314,441.355 737.35,445.467 725.866,456C719.005,462.292 715.51,467.81 713.635,475.307C712.405,480.228 700.488,490.842 691.353,495.154C686.872,497.269 681.791,499 680.063,499C678.334,499 675.24,499.857 673.186,500.905C669.879,502.592 669.235,503.564 667.569,509.392C666.533,513.012 664.876,516.708 663.884,517.605C661.065,520.156 649.41,523.838 641.771,524.591L634.829,525.275L635.505,528.88C635.877,530.863 636.392,532.826 636.65,533.242C636.907,533.659 641.932,534 647.816,534C653.699,534 660.085,534.52 662.007,535.156C663.928,535.792 671.8,536.65 679.5,537.062C698.588,538.086 702.009,538.834 713.206,544.43C724.485,550.067 730.911,555.665 737.388,565.5C739.924,569.35 742.626,573.4 743.392,574.5C744.159,575.6 747.265,580.345 750.294,585.045C753.324,589.745 756.567,594.226 757.502,595.002C758.438,595.778 760.68,598.683 762.486,601.457C764.291,604.23 768.295,608.96 771.384,611.966C774.473,614.972 777,618.016 777,618.731C777,619.445 775.613,620.873 773.917,621.904C772.087,623.017 771.274,624.051 771.917,624.449C772.513,624.817 773,625.915 773,626.89C773,627.864 775.812,632.824 779.25,637.912C782.688,642.999 786.175,648.186 787,649.438C787.825,650.689 790.182,654.252 792.237,657.356C794.292,660.459 797.543,666.115 799.462,669.924C801.381,673.734 803.418,677.14 803.99,677.494C805.591,678.483 808,684.902 808,688.177C808,694.665 794.059,710.405 778.904,721.028C769.271,727.78 754.236,735.548 746.673,737.68C743.828,738.482 739.925,739.614 738,740.195C736.075,740.776 730.675,741.573 726,741.967C715.882,742.818 711.454,744.49 709.996,748.009C709.297,749.697 709.066,757.939 709.335,771.553C709.748,792.422 710.766,802.967 712.885,808.315C713.498,809.863 714,812.283 714,813.691C714,815.864 719.487,834.131 722.053,840.5C722.496,841.6 724.082,846.325 725.578,851C727.073,855.675 729.318,862.425 730.566,866C731.814,869.575 733.391,874.3 734.069,876.5C734.747,878.7 736.301,883.425 737.523,887C738.746,890.575 740.288,895.525 740.952,898C741.616,900.475 743.18,905.716 744.427,909.647C746.758,916.994 746.547,919.084 743.219,921.562C742.156,922.354 741.936,924.01 742.354,928.062C743.878,942.859 744.77,948.801 745.948,952.02C747.04,955.005 746.989,956.265 745.618,960.305C744.728,962.926 744,967.16 744,969.714C744,972.268 743.575,975.74 743.056,977.429C742.537,979.118 741.127,983.853 739.923,987.951C738.127,994.063 736.814,996.378 732.617,1000.83C729.802,1003.82 725.925,1007.34 724,1008.67C711.858,1017 708.095,1020.21 704.752,1025.06C700.547,1031.16 695,1041.38 695,1043.02C695,1043.61 694.075,1045.99 692.944,1048.3C691.814,1050.61 690.438,1054.53 689.887,1057C689.335,1059.47 688.487,1063.3 688.002,1065.5C685.898,1075.03 684.777,1079.73 683.784,1083.18C682.722,1086.87 683.152,1095.48 684.464,1096.8C684.849,1097.18 690.864,1097.72 697.832,1098C704.799,1098.28 711.166,1098.93 711.981,1099.45C712.795,1099.98 718.42,1100.74 724.481,1101.14C750.039,1102.86 763.481,1107.11 785.441,1120.4C791.007,1123.77 791.911,1124 799.757,1124C804.363,1124 809.081,1124.51 810.242,1125.13C811.403,1125.75 816.436,1126.66 821.427,1127.14C826.417,1127.63 833.65,1128.48 837.5,1129.03C841.35,1129.59 847.2,1130.38 850.5,1130.79C853.8,1131.2 856.991,1131.85 857.592,1132.23C858.193,1132.61 861.343,1133.41 864.592,1134C867.841,1134.6 872.3,1135.49 874.5,1135.98C876.7,1136.48 880.525,1137.33 883,1137.88C889.886,1139.4 906.191,1145.46 912.138,1148.71C921.022,1153.57 922.776,1159.4 916.974,1164.81C912.383,1169.09 887.955,1178.88 876.5,1181.04C874.3,1181.45 869.8,1182.58 866.5,1183.55C863.2,1184.52 857.8,1185.65 854.5,1186.07C851.2,1186.49 846.475,1187.36 844,1188C841.525,1188.64 835.867,1189.51 831.426,1189.95C826.985,1190.39 822.485,1191.19 821.426,1191.73C819.128,1192.92 812.076,1193.94 798.5,1195.05C787.013,1195.99 774.883,1197.58 771.866,1198.54C770.726,1198.9 762.077,1199.59 752.646,1200.08C743.216,1200.56 731.225,1201.38 726,1201.91C698.023,1204.74 597.116,1206.57 555,1205.02ZM489.507,1167.87C496.653,1163.95 505.804,1158.94 509.843,1156.73L517.186,1152.73L516.546,1148.61C516.195,1146.35 515.815,1143.68 515.703,1142.68C515.559,1141.38 517.229,1139.94 521.483,1137.68C524.774,1135.93 530.126,1131.94 533.378,1128.81L539.289,1123.12L538.713,1117.31C538.397,1114.11 535.575,1102.28 532.443,1091C522.222,1054.21 520.114,1045.63 518.984,1036.27C517.947,1027.67 517.474,1026.38 512.016,1017.28C506.222,1007.61 505.414,1005.44 508.586,1008.07C511.368,1010.38 519.825,1009.68 526.497,1006.58C535.479,1002.42 548.266,993.657 555.956,986.403C562.792,979.954 571.009,970.119 570.99,968.408C570.985,967.908 567.722,966.418 563.74,965.097C547.258,959.625 525.277,947.038 512.379,935.684C509.923,933.522 507.759,931.922 507.571,932.127C506.76,933.013 497.093,956.078 495.051,962C492.246,970.135 490.04,980.337 490.017,985.279C489.993,990.476 494.93,999.854 501.39,1006.88C504.308,1010.05 506.966,1013.74 507.296,1015.08C507.626,1016.41 508.8,1024.7 509.905,1033.5C516.449,1085.62 517.359,1101.06 514.46,1110.82C511.885,1119.49 508.147,1120.88 484.5,1121.95C468.779,1122.67 466.71,1122.99 457,1126.25C447.05,1129.6 424.562,1139.9 425.395,1140.73C425.609,1140.94 427.52,1140.38 429.642,1139.49C435.223,1137.13 451.199,1131.87 451.589,1132.26C451.772,1132.44 450.251,1133.47 448.211,1134.54C427.567,1145.39 416,1155.05 416,1161.42C416,1163.51 421.142,1166 425.457,1166C428.755,1166 429.329,1165.51 433.367,1159.21C439.588,1149.5 445.397,1144.77 455.636,1141.06C460.324,1139.37 465.446,1138.08 467.018,1138.2L469.878,1138.42L465.45,1142.6C461.014,1146.79 456.997,1154.27 457.004,1158.33C457.01,1162.17 460.75,1166.79 467.202,1170.92C470.666,1173.14 474.178,1174.97 475.007,1174.98C475.836,1174.99 482.361,1171.79 489.507,1167.87ZM759.965,1163.07C761.522,1160.16 761.218,1156.34 759.097,1152.21C756.987,1148.1 747.81,1139.04 741.25,1134.6C738.913,1133.02 737,1131.31 737,1130.8C737,1130.3 736.55,1130.16 736,1130.5C735.45,1130.84 735,1130.57 735,1129.89C735,1129.22 734.699,1128.97 734.331,1129.34C733.963,1129.7 732.951,1129.39 732.081,1128.63C731.212,1127.88 729.15,1126.79 727.5,1126.21L724.5,1125.16L728.122,1125.08C736.953,1124.89 761.57,1133 772.883,1139.84C778.025,1142.94 779.872,1143.57 782.377,1143.06C784.088,1142.71 785.628,1141.69 785.799,1140.81C786.261,1138.41 780.702,1132.62 773.694,1128.21C757.946,1118.3 741.058,1114.46 709.347,1113.56C686.075,1112.9 678.632,1111.7 672.143,1107.57C663.012,1101.77 662.577,1097.93 668.866,1078.61C671.172,1071.53 672.827,1065.49 672.542,1065.21C671.913,1064.58 660.611,1088.2 655.897,1100C652.948,1107.38 652.5,1109.64 652.5,1117.18C652.5,1125.44 652.645,1126.02 655.455,1128.95C658.469,1132.1 665.211,1134.59 677.25,1136.99L683,1138.14L683,1142.57C683,1145.01 683.15,1147 683.334,1147C683.517,1147 690.83,1149.45 699.584,1152.45C724.189,1160.87 740.197,1164.54 753.715,1164.87C757.926,1164.98 759.129,1164.63 759.965,1163.07ZM621.718,1114.75C624.003,1112.26 631,1098.76 631,1096.83C631,1096.16 633.25,1091.02 636,1085.4C638.75,1079.79 641,1074.87 641,1074.48C641,1074.09 643.068,1069.21 645.596,1063.64C653.46,1046.29 656.719,1038.75 659.481,1031.5C660.948,1027.65 663.015,1022.58 664.074,1020.22C666.852,1014.05 666.469,1008.32 662.433,995.674C660.47,989.529 658.506,983.15 658.068,981.5C655.783,972.902 654.635,968.959 652.828,963.5C651.735,960.2 650.477,956.15 650.031,954.5C647.526,945.225 645.413,943.003 640,943.946C639.175,944.09 633.783,944.499 628.018,944.854L617.536,945.5L613.722,952.5C608.367,962.325 608.123,962.5 599.799,962.5L592.682,962.5L589.872,968C588.327,971.025 585.709,976.567 584.054,980.315C582.398,984.064 580.022,988.513 578.772,990.202C575.095,995.172 554.709,1016 553.521,1016C551.606,1016 542.146,1026.36 540.545,1030.22C538.584,1034.94 538.469,1050.49 540.357,1055.73C542.948,1062.93 544,1066.65 544,1068.62C544,1069.71 544.416,1071.03 544.925,1071.55C545.434,1072.07 547.272,1076.1 549.009,1080.5C553.358,1091.52 563.552,1110.92 566.741,1114.25L569.374,1117L594.513,1117C619.303,1117 619.68,1116.97 621.718,1114.75ZM310.565,1018.95C290.065,999.266 278.64,973.957 276.506,943.5L275.946,935.5L277.876,942.5C286.331,973.161 304.811,995.862 332.721,1009.88C336.143,1011.59 339.189,1013 339.49,1013C339.79,1013 336.464,1009.47 332.098,1005.16C323.181,996.347 314.78,984.132 308.931,971.473C306.769,966.793 305,962.655 305,962.278C305,961.901 307.208,964.947 309.906,969.046C320.921,985.78 337.838,999.379 358.333,1007.97C364.977,1010.76 365.022,1010.56 358.721,1006.25C346.226,997.701 335.551,986.176 328.573,973.697C325.333,967.904 317.929,947.492 318.052,944.693C318.081,944.037 319.858,946.991 322.002,951.257C334.77,976.673 357.051,994.053 388.241,1002.93C399.879,1006.24 409.94,1008.39 410.612,1007.72C410.861,1007.47 407.019,1005.81 402.073,1004.03C397.128,1002.24 388.319,998.375 382.497,995.43C352.046,980.027 333.657,959.332 327.793,933.864C325.699,924.774 326.252,904.87 328.872,895C331.413,885.424 337.902,871.156 343.355,863.15C345.36,860.207 347,857.614 347,857.387C347,856.552 338.301,862.426 331.688,867.726C312.011,883.498 295.941,914.915 295.619,938.242L295.513,945.984L291.373,937.742C286.447,927.935 281.77,914.346 278.768,901.121C277.04,893.509 276.588,888.368 276.604,876.5C276.614,868.101 277.134,859.764 277.784,857.556C279.921,850.3 278.263,852.795 275.033,861.697C257.472,910.083 261.229,958.247 285.554,996.561C290.491,1004.34 303.841,1017.67 311.905,1022.87C315.428,1025.14 318.455,1027 318.632,1027C318.808,1027 315.178,1023.38 310.565,1018.95ZM704.354,1010.19C707.951,1010.32 714.421,1006.45 719.129,1001.35C728.919,990.739 734,973.005 734,949.443L734,936.063L727.931,939.62C715.912,946.664 698.955,953.129 677.253,958.941L673.006,960.078L675.387,964.789C680.3,974.512 689.971,997.791 691.44,1003.43C692.279,1006.65 692.698,1010.35 692.371,1011.66L691.777,1014.02L696.399,1012.04C698.942,1010.95 702.521,1010.12 704.354,1010.19ZM652.5,866.637C654.143,865.719 652.983,865.409 646,864.899C641.325,864.557 635.925,863.567 634,862.7L630.5,861.124L636.164,861.689C639.278,862 643.553,861.906 645.664,861.48C649.261,860.752 649.344,860.657 647,859.952C645.625,859.538 641.448,859.155 637.719,859.1C632.512,859.023 630.796,858.632 630.328,857.413C628.946,853.811 637.94,848.747 648.151,847.378C653.201,846.7 653.332,846.613 650.5,845.808C646.227,844.594 633.25,845.887 628.321,848.018C617.123,852.859 620.133,865.316 633.138,867.949C638.293,868.993 649.658,868.223 652.5,866.637ZM698.93,814.673C698.98,815.506 699.872,815.412 702,814.35C705.325,812.691 705.597,811.181 703.867,804C703.27,801.525 702.494,789.15 702.141,776.5L701.5,753.5L699.194,753.384C697.451,753.296 697.046,753.662 697.533,754.884C700.93,763.4 700.907,799.07 697.495,815C697.031,817.165 697.086,817.232 697.909,815.5C698.432,814.4 698.891,814.028 698.93,814.673ZM533.185,766.474C537.208,765.634 542.436,764.214 544.801,763.318L549.102,761.689L545.611,758.095C543.69,756.118 541.636,753.217 541.046,751.65L539.973,748.8L543.138,751.462C545.694,753.613 546.994,754.022 549.901,753.589C551.88,753.295 555.75,752.749 558.5,752.377C564.164,751.61 578.826,747.038 585.827,743.856C597.41,738.59 609.076,729.322 616.694,719.334C618.116,717.47 619.448,716.114 619.654,716.321C620.11,716.777 615.628,726.264 612.83,730.763L610.801,734.026L613.15,733.122C614.443,732.625 620.9,729.191 627.5,725.491C646.242,714.985 664.35,702.084 683.245,685.774C703.412,668.366 719.667,658.876 733.233,656.591L740.49,655.368L735.995,652.051C729.64,647.363 718.774,642.523 710,640.475C700.173,638.18 675.986,637.388 663.252,638.945C606.177,645.921 549.805,671.274 518.706,703.954C510.36,712.725 510.13,712.884 511.525,708.928C514.444,700.657 519.623,692.504 526.817,684.856C533.024,678.258 533.903,676.917 532.348,676.411C526.125,674.387 519.462,671.41 515.432,668.855C511.277,666.22 510.445,666.028 507.448,667.017C499.812,669.537 487.052,687.802 485.446,698.511L484.787,702.908L495.478,713.204C507.349,724.637 515.716,734.442 518.769,740.5C520.856,744.64 524,759.263 524,764.828C524,768.51 523.69,768.455 533.185,766.474ZM729.792,723.624C747.154,718.62 760.715,712.513 774.866,703.325C783.18,697.928 793.314,689.151 795.112,685.791C796.328,683.519 793.172,677.218 785.451,666.5C782.282,662.1 776.002,652.994 771.497,646.264C766.992,639.534 763.073,634.26 762.789,634.544C762.505,634.828 759.624,635.483 756.386,635.999C753.149,636.515 747.727,637.722 744.337,638.681L738.175,640.425L744.502,646.223C747.982,649.412 752.106,654.041 753.665,656.509C755.966,660.151 757.05,660.997 759.418,660.998C764.339,661.001 775.216,663.188 774.333,663.996C773.875,664.415 771.7,665.321 769.5,666.008C760.706,668.756 737.945,678.479 723.849,685.51C705.353,694.736 698.688,698.616 678.52,711.899L662.54,722.424L667.02,723.726C673.983,725.751 689.062,726.866 705.5,726.571C718.269,726.342 721.882,725.904 729.792,723.624ZM469.177,689.736C472.219,677.615 477.335,668.488 485.912,659.876L493.505,652.253L491.003,650.655C489.626,649.776 487.678,648.482 486.673,647.779C485.061,646.65 484.309,647.086 480.26,651.5C470.983,661.611 465.506,672.088 462.9,684.706C461.731,690.364 461.792,690.927 463.944,694.409C465.2,696.442 466.483,697.85 466.795,697.539C467.106,697.227 468.179,693.716 469.177,689.736ZM712.188,622.937C718.65,616.96 737.372,608 743.399,608C745.695,608 749.124,610.78 752.011,614.982C753.301,616.86 754.078,617.076 757.34,616.464L761.159,615.748L757.748,612.124C755.872,610.131 752.672,606.17 750.637,603.323C748.602,600.475 746.608,598 746.207,597.823C745.806,597.645 741.567,591.425 736.786,584C726.411,567.886 725.35,566.751 711.78,557.27C708.634,555.072 706.37,552.963 706.749,552.584C707.129,552.205 706.665,552.191 705.72,552.554C704.774,552.917 704,552.806 704,552.308C704,550.887 698.347,549.229 687.761,547.547C673.234,545.239 671.126,545.631 680.5,548.898C696.946,554.628 707.238,561.289 719.5,574.135C727.383,582.393 739.682,597.739 738.901,598.341C738.68,598.51 735.685,599.151 732.244,599.765C724.972,601.062 715.116,605.665 709.738,610.275L705.976,613.5L707.165,619.75C707.818,623.188 708.471,626 708.615,626C708.759,626 710.367,624.622 712.188,622.937ZM679.02,621.49C682.784,619.543 684,617.167 684,611.762C684,604.489 674.937,592.961 666.422,589.403C662.55,587.785 655.272,587.566 651.613,588.957C648.594,590.105 646,594.738 646,598.982C646,612.88 667.427,627.485 679.02,621.49ZM606.889,577.586C616.795,569.472 628.576,556.95 630.392,552.603C632.625,547.26 632.408,544.732 629.482,541.983C626.975,539.628 624,531.694 624,527.364C624,525.511 623.307,524.979 620.25,524.488C603.703,521.828 591.857,517.317 584.498,510.873C579.156,506.196 573.891,497.709 570.969,489.066C568.549,481.911 568.3,481.601 558.5,473.567C544.422,462.026 545.568,462.049 546.36,473.317C548.46,503.193 558.054,534.983 570.859,554.5C577.998,565.38 595.072,582.372 599.389,582.893C599.877,582.952 603.252,580.563 606.889,577.586ZM653.252,511.511C658.243,509.725 662,506.012 662,502.865C662,501.303 661.217,501 657.176,501C654.523,501 648.111,500.277 642.926,499.393C612.454,494.2 589.441,484.339 575.499,470.5C567.456,462.516 563.708,456.142 561.163,446.12C559.436,439.32 559.203,438.988 552.943,434.416C546.797,429.927 531.569,415.098 532.327,414.34C532.525,414.141 536.852,416.296 541.941,419.128C547.03,421.96 555.988,426.231 561.847,428.619C567.706,431.007 572.48,433.307 572.456,433.73C572.432,434.154 571.857,436.396 571.178,438.713C567.366,451.715 581.91,468.527 607.377,480.557C615.758,484.516 633.584,491 636.087,491C636.782,491 636.921,489.034 636.493,485.25C635.274,474.482 634.721,473.618 626.51,469.666C617.924,465.533 612.216,460.246 608.284,452.784C605.745,447.965 605.502,446.577 605.522,437C605.549,424.168 607.038,420.459 612.579,419.419L616.153,418.749L615.471,413.624C615.095,410.806 613.269,404.802 611.413,400.283C607.467,390.678 607.241,388.486 609.395,380.701C611.091,374.573 611.46,368.267 610.235,366.351C609.752,365.597 607.517,367.05 603.721,370.585L597.942,375.967L599.843,379.733C604.158,388.286 604.062,388.32 592.29,382.399C570.109,371.242 550.1,367.02 526.25,368.464C520.062,368.838 515,368.927 515,368.661C515,368.012 527.471,363.309 532.553,362.04L536.606,361.029L531.773,351.264C529.114,345.894 526.176,338.203 525.243,334.174C523.612,327.127 523.268,326.582 516.193,319.838C512.149,315.982 508.616,313.051 508.343,313.323C507.447,314.219 512.942,333.065 516.479,341.227L519.944,349.222L517.387,348.734C515.234,348.322 514.912,348.555 515.346,350.213C515.786,351.896 515.491,352.089 513.313,351.543C505.896,349.681 504.999,349.69 505.044,351.625C505.068,352.656 505.736,355.3 506.529,357.5C507.321,359.7 507.977,361.576 507.985,361.67C507.993,361.763 506.198,361.131 503.996,360.266C501.794,359.401 497.693,356.489 494.883,353.794C492.072,351.099 489.618,349.048 489.43,349.237C488.768,349.899 491.834,362.561 493.974,368C495.163,371.025 498.104,377.212 500.508,381.75C502.913,386.288 504.694,390 504.466,390C504.238,390 500.608,388.632 496.399,386.96C492.19,385.288 488.568,384.099 488.349,384.317C487.496,385.17 497.012,396.826 503.496,402.87C510.761,409.642 510.677,409.688 499,405.307C487.995,401.179 488.106,401.157 492.66,406.569C498.598,413.626 513.47,427.835 520.54,433.205C523.862,435.729 532.412,441.595 539.54,446.241C551.518,454.049 572.322,470.181 576.124,474.609C577.017,475.649 578.316,478.3 579.012,480.5C581.283,487.683 587.019,498.065 591.258,502.664C596.154,507.976 600.483,510.357 608,511.872C611.025,512.481 614.4,513.186 615.5,513.438C616.6,513.689 624.475,513.741 633,513.553C644.349,513.302 649.772,512.756 653.252,511.511ZM671.8,491.542C681.196,489.566 691.068,485.737 696.621,481.917C705.249,475.981 709.437,462.147 708.399,443.015C707.92,434.185 707.993,433.68 709.405,436C710.243,437.375 711.644,440.604 712.52,443.176L714.112,447.852L724.306,440.028C729.913,435.725 735.85,430.757 737.5,428.988L740.5,425.771L720.5,427.223L728.107,422.135C737.538,415.826 747.466,405.417 751.75,397.344C753.538,393.976 755,390.987 755,390.702C755,390.417 751.962,391.734 748.25,393.629C744.538,395.524 739.776,397.347 737.669,397.681L733.838,398.288L737.101,393.659C738.895,391.113 740.046,388.713 739.658,388.324C739.269,387.936 734.125,388.829 728.226,390.309C722.327,391.789 715.362,393 712.75,393C709.333,393 707.439,393.561 706,395C704.9,396.1 702.97,397 701.71,397C697.998,397 687.629,394.014 686.797,392.706C686.376,392.043 686.024,391.853 686.015,392.285C685.974,394.382 681.606,390.346 679.937,386.669C676.663,379.458 677.347,374.611 683.925,358.436C691.144,340.686 695.915,332.217 705.225,320.622C717.411,305.444 733.342,294.64 747.923,291.666L754.201,290.386L746.602,283.289C732.938,270.528 708.369,255.626 676,240.467C666.925,236.217 658.668,231.793 657.65,230.636C656.134,228.911 655.871,227.289 656.191,221.624L656.581,214.716L645.041,215.35C634.922,215.906 626.497,217.121 625.527,218.163C625.355,218.348 625.679,222.827 626.249,228.115C626.819,233.403 626.958,239.028 626.558,240.615L625.831,243.5L623.945,241.175C621.345,237.971 615.625,234.19 608.5,230.965C597.595,226.029 591.371,224.699 579,224.664C566.279,224.628 558.994,226.354 547.591,232.106C531.818,240.062 510.839,256.439 513.286,258.886C514.105,259.705 513.982,260 512.823,260C511.917,260 510.311,262.021 509.048,264.75C507.838,267.363 506.215,270.672 505.44,272.105C504.664,273.537 503.911,278.031 503.765,282.091L503.5,289.473L510,290.284C546.304,294.814 570.369,304.735 594.645,325.179C601.771,331.18 610,339.845 610,341.347C610,342.719 617.368,354 618.264,354C619.82,354 618.324,334.976 616.004,325.264C612.32,309.84 599.129,287.395 585.138,272.746C572.605,259.623 560.71,252.132 551.072,251.293C539.962,250.325 531.036,257.82 520.248,277.173C516.298,284.258 515.043,285.87 515.024,283.878C514.99,280.172 519.587,266.553 523.079,260.015C530.062,246.94 543.116,235 550.429,235C557.302,235 577.611,248.815 591.101,262.668C602.886,274.769 611.092,286.294 618.039,300.5C626.591,317.988 627.437,321.893 627.464,344C627.484,360.113 627.186,363.697 625.153,371.781C623.658,377.724 621.906,382.147 620.28,384.079C618.145,386.617 617.833,387.766 618.32,391.316C618.638,393.637 620.081,398.119 621.527,401.277C624.314,407.365 624.275,411.177 621.379,415.75L619.954,418L628.871,418C653.995,418 682.99,423.912 688.675,430.194C692.911,434.874 688.825,447.326 679.014,459.642C674.332,465.519 673.747,465.903 665.429,468.551C653.975,472.198 649.507,475.704 645.23,484.398C642.555,489.836 642.122,491.462 643.171,492.127C645.341,493.503 664.324,493.115 671.8,491.542ZM630,457.595C630,457.372 628.365,455.234 626.367,452.845C621.458,446.973 618.268,440.332 619.678,438.922C621.803,436.797 628.265,436.208 639.167,437.145C650.329,438.104 666.098,440.94 671.315,442.928C672.863,443.517 674.314,444 674.539,444C675.265,444 678.164,437.831 677.671,437.337C676.699,436.366 666.177,434.066 655.649,432.524C643.736,430.778 622.076,430.059 617.765,431.265C611.391,433.049 613.446,441.255 622.731,451.098C628.823,457.555 630,458.608 630,457.595ZM721.545,383.884C726.423,382.656 731.518,377.832 734.844,371.295C737.307,366.453 741,354.516 741,351.395C741,349.122 740.68,349.001 734.75,349.014C725.278,349.034 724,349.594 724,353.722C724,359.427 721.06,369.166 717.788,374.299C713.747,380.639 708.471,383.396 701.639,382.739C697.335,382.326 696.081,381.668 692.716,378.062C690.563,375.753 688.685,374.008 688.542,374.182C688.398,374.357 687.998,375.684 687.651,377.131C687.079,379.522 687.455,379.947 691.761,381.779C694.367,382.889 697.4,384.015 698.5,384.282C702.424,385.236 717.191,384.981 721.545,383.884ZM595.988,361.434C599.295,357.273 602,353.262 602,352.519C602,350.624 582.526,333.968 581.645,335.111C581.48,335.325 580.739,337.075 579.998,339C578.058,344.042 572.439,352.191 569.394,354.38C559.294,361.642 545.568,355.212 541.693,341.404C539.538,333.723 538.386,329.251 539.354,324.152C540.365,318.826 539.948,317.005 536.622,317.003L533.743,317L534.229,327.75C534.749,339.255 537.012,347.752 541.677,355.712L544.19,360L551.935,360C560.478,360 571.419,362.435 580.589,366.377C583.84,367.774 587.282,368.936 588.238,368.959C589.234,368.982 592.542,365.771 595.988,361.434ZM726,334.862C732.672,333.073 737.231,332.574 747.198,332.541C762.089,332.493 760.966,333.631 760.986,318.579C761.006,304.346 758.703,302.658 745.057,306.905C731.527,311.116 714.674,324.543 705.173,338.68L701.02,344.861L709.26,341.001C713.792,338.878 721.325,336.115 726,334.862ZM793.317,306.426C816.489,294.872 833.928,282.088 852.031,263.382C881.072,233.373 898.046,200.363 912.388,146C918.595,122.473 926.952,79.619 925.597,78.264C924.592,77.258 908.409,83.732 892.5,91.503C861.862,106.469 842.272,122.69 821.85,150C804.211,173.588 798.278,184.459 787.463,213C778.579,236.449 771.508,249.984 763.335,259.186C760.951,261.87 759,264.489 759,265.005C759,265.521 760.129,268.497 761.51,271.618C764.016,277.285 764.022,277.29 766.13,275.396C770.928,271.085 784.161,252.1 789.297,242.159C792.326,236.297 797.834,223.625 801.538,214C809.29,193.855 815.069,181.832 822.446,170.5C828.44,161.293 841.093,145.213 849.171,136.536L854.723,130.573L853.845,136.536C853.363,139.816 852.984,155.405 853.004,171.178C853.025,187.787 852.597,201.836 851.986,204.561C851.407,207.148 851.139,209.472 851.391,209.724C851.644,209.977 853.075,208.333 854.571,206.071C856.068,203.81 857.471,202.138 857.689,202.356C858.447,203.113 854.14,221.543 851.462,229C844.804,247.544 834.111,263.701 821.621,274.088C810.009,283.745 792.123,291.509 774.666,294.471C771.839,294.951 770.982,295.51 771.4,296.601C771.712,297.414 772.742,301.84 773.688,306.437C775.711,316.267 773.577,316.268 793.317,306.426ZM492.131,272.12L493.762,269.252L487.327,268.593C478.559,267.694 466.814,263.822 459.066,259.276C451.349,254.747 437.782,241.668 432.711,233.868C423.517,219.726 415.424,199.16 412.546,182.619C410.099,168.562 410.448,167.356 414.671,175.274C416.659,179 418.387,181.925 418.512,181.774C418.637,181.623 418.267,176.691 417.688,170.813C416.833,162.119 416.963,156.803 418.387,142.313C419.35,132.516 420.608,122.297 421.183,119.605C421.774,116.836 422.056,107.612 421.833,98.362L421.439,82.014L425.469,85.81C427.686,87.897 432.65,92.279 436.5,95.547C451.765,108.505 460.47,119.379 467.525,134.304C473.288,146.498 475.503,154.945 478.491,176.132C482.321,203.286 485.109,213.356 493.267,229.5C498.622,240.099 507.87,253.569 508.956,252.352C509.374,251.883 510.283,248.729 510.975,245.343L512.234,239.186L507.735,232.843C497.064,217.799 491.484,201.57 485.439,168C482.707,152.826 482.595,151.632 483.989,152.493C484.555,152.843 484.724,152.443 484.384,151.558C484.057,150.707 483.311,150.308 482.725,150.67C482.048,151.089 481.903,150.694 482.329,149.585C483.23,147.237 482.052,142.85 480.739,143.661C480.119,144.045 479.989,143.826 480.422,143.126C481.918,140.706 470.959,115.804 463.359,104.353C454.337,90.76 444.806,82.393 410,57.509C397.075,48.268 381.645,36.933 375.711,32.319C369.778,27.705 364.426,24.237 363.819,24.612C363.031,25.099 362.883,35.033 363.302,59.397C364.849,149.419 374.408,191.992 401.212,228.224C418.902,252.136 442.264,266.901 471,272.331C488.527,275.643 490.136,275.627 492.131,272.12ZM744.584,245.25C752.076,228.817 758.996,205.12 758.999,195.89C759.001,188.339 754.62,182.859 741.825,174.409C734.32,169.452 732.172,168.653 737.173,172.677C750.454,183.365 752.683,188.184 751.654,203.978C751.004,213.958 748.604,223.821 742.641,241.01C739.477,250.131 738.985,253 740.584,253C740.841,253 742.64,249.512 744.584,245.25ZM602.982,210.75C595.838,182.005 592.595,164.009 590.924,143.85C588.403,113.413 594.206,78.175 606.535,49.054C610.502,39.686 612.705,35.477 622.006,19.5C624.902,14.524 623.637,15.741 617.844,23.5C593.147,56.582 580.517,105.353 585.048,150.144C586.489,164.389 589.477,178.53 593.681,190.992C598.917,206.517 605.298,220.072 602.982,210.75ZM763.655,158.563C761.858,119.027 748.06,76.719 726.456,44.5C722.399,38.45 717.027,31.25 714.517,28.5C710.463,24.056 710.725,24.612 716.874,33.5C736.723,62.191 753.716,111.631 757.516,151.75L758.203,159L752.851,159.003C744.192,159.009 724.581,161.062 723.55,162.07C722.962,162.645 725.123,163 729.212,163C741.247,163 758.749,167.583 762.091,171.61C762.726,172.374 763.485,173 763.778,173C764.071,173 764.015,166.503 763.655,158.563ZM662.667,616.333C662.3,615.967 662,614.81 662,613.762C662,612.03 661.857,612 660.429,613.429C656.959,616.898 653.637,613.86 652.396,606.084C651.78,602.226 651.901,601.748 653.346,602.302C654.639,602.799 655,602.334 655,600.169C655,596.476 656.679,595 660.88,595C663.744,595 665.143,595.841 668.784,599.75L673.209,604.5L671.785,601C669.793,596.103 664.644,592.827 659.533,593.203C656.093,593.456 655.28,593.974 654,596.728C652.281,600.427 651,600.942 651,597.934C651,594.695 652.661,592.383 655.974,591.011C660.165,589.275 667.09,591.276 671.595,595.525C674.926,598.666 675,598.913 675,606.868C675,615.936 673.586,617.494 670.341,612C669.366,610.35 668.271,609 667.907,609C666.273,609 664.966,612.016 665.565,614.404C666.041,616.3 665.828,617 664.775,617C663.982,617 663.033,616.7 662.667,616.333Z" style="fill:currentColor"/>
        </g>
    </symbol>
    <use xlink:href="#gazelle" />
</svg>
