<svg xmlns:x="http://www.w3.org/2000/svg"><x:symbol id="salesforce_notext" width="100%" height="100%" viewBox="0 0 273 191" style="fill-rule:evenodd;clip-rule:evenodd;stroke-linejoin:round;stroke-miterlimit:2;">
        <x:path d="M113,21.3C121.78,12.16 134,6.5 147.5,6.5C165.5,6.5 181.1,16.5 189.5,31.4C196.956,28.067 205.033,26.346 213.2,26.35C245.6,26.35 271.9,52.85 271.9,85.55C271.9,118.25 245.6,144.75 213.2,144.75C209.24,144.75 205.38,144.352 201.6,143.6C194.25,156.7 180.2,165.6 164.2,165.6C157.686,165.613 151.255,164.135 145.4,161.28C137.95,178.78 120.6,191.08 100.4,191.08C79.3,191.08 61.4,177.78 54.5,159.08C51.429,159.728 48.299,160.054 45.16,160.052C20.06,160.052 -0.24,139.452 -0.24,114.152C-0.24,97.152 8.9,82.352 22.46,74.352C19.583,67.725 18.102,60.576 18.11,53.352C18.11,24.152 41.81,0.552 71.01,0.552C88.11,0.552 103.41,8.702 113.01,21.352" style="fill:currentColor;"/>
    </x:symbol>
    <x:symbol xmlns:serif="http://www.serif.com/" id="trino_outlines" width="100%" height="100%" viewBox="0 0 24 24" style="fill-rule:evenodd;clip-rule:evenodd;stroke-linejoin:round;stroke-miterlimit:2;">
        <x:g transform="matrix(1,0,0,1,-56.4575,0)">
            <x:g id="Trino-Outlines" serif:id="Trino Outlines" transform="matrix(1,0,0,1,56.4575,0)">
                <x:rect x="0" y="0" width="24" height="24" style="fill:none;"/>
                <x:clipPath id="_clip1">
                    <x:rect x="0" y="0" width="24" height="24"/>
                </x:clipPath>
                <x:g clip-path="url(#_clip1)">
                    <x:g transform="matrix(0.958328,0,0,0.958328,0.500069,0.500067)">
                        <x:path d="M18.651,16.031L18.651,18.017C18.62,18.596 18.127,19.041 17.548,19.013L17.164,19.013C16.909,19.657 16.524,20.241 16.034,20.731C15.97,20.791 15.934,20.875 15.934,20.963C15.934,21.051 15.97,21.135 16.034,21.196L16.272,21.415C16.342,21.472 16.383,21.558 16.383,21.649C16.383,21.721 16.357,21.79 16.311,21.845C15.185,23.229 13.344,23.997 11.261,23.997C9.463,24.05 7.72,23.364 6.442,22.099C6.439,22.096 6.436,22.092 6.433,22.089C6.331,21.974 6.275,21.825 6.275,21.672C6.275,21.491 6.353,21.319 6.488,21.2C6.625,21.073 6.625,20.853 6.488,20.727C5.997,20.24 5.613,19.657 5.362,19.013L5.012,19.013C4.432,19.041 3.938,18.597 3.905,18.017L3.905,16.031C3.94,15.453 4.434,15.011 5.012,15.039L5.285,15.039C5.616,13.806 6.348,12.718 7.364,11.945C6.941,10.846 6.211,8.69 6.138,6.938C6.023,4.471 6.219,0.078 7.825,0.001C9.432,-0.076 9.197,4.029 8.924,6.696C8.782,8.175 8.741,9.661 8.801,11.146C9.596,10.853 10.437,10.707 11.284,10.716C11.869,10.714 12.453,10.784 13.021,10.923C13.283,9.655 13.897,7.349 15.05,5.727C16.722,3.375 18.486,0.946 19.662,1.627C20.838,2.307 19.354,4.766 18.332,6.054C17.31,7.341 15.546,9.263 14.958,10.281C14.747,10.666 14.528,11.084 14.362,11.434C15.8,12.173 16.86,13.486 17.279,15.047L17.352,15.047L17.352,12.741C17.354,12.619 17.283,12.507 17.172,12.456C16.843,12.317 16.625,11.998 16.614,11.642C16.665,11.167 17.044,10.788 17.519,10.737C18.078,10.677 18.58,11.082 18.64,11.642C18.629,11.997 18.413,12.315 18.086,12.456C17.98,12.51 17.913,12.621 17.917,12.741L17.917,14.893C17.916,15.011 17.981,15.12 18.086,15.174C18.422,15.328 18.641,15.661 18.651,16.031Z" style="fill:none;fill-rule:nonzero;stroke:currentColor;stroke-width:1.04px;"/>
                    </x:g>
                </x:g>
            </x:g>
        </x:g>
    </x:symbol>
    <x:symbol id="dashql" width="100%" height="100%" viewBox="0 0 200 200">
        <x:g transform="matrix(1,0,0,1,0,-304.5)">
            <x:g transform="matrix(0.8,0,0,1.06952,0,-16.3556)">
                <x:rect x="0" y="300" width="250" height="187" style="fill:none;"/>
                <x:g transform="matrix(0.631463,0,0,0.472335,-230.544,128.592)">
                    <x:path d="M366.666,525.55C383.333,433.113 464.269,362.895 561.475,362.895C670.729,362.895 759.428,451.595 759.428,560.848C759.428,670.101 670.729,758.801 561.475,758.801C528.841,758.801 498.04,750.887 470.89,736.874C474.339,705.76 472.95,683.171 491.576,644.796C511.352,604.049 534.614,596.467 536.814,596.467C537.913,596.467 534.614,600.866 530.215,605.265C514.819,622.861 501.622,647.055 499.423,664.651L498.323,669.05L504.921,661.352C510.42,654.753 522.517,644.856 531.315,641.556C540.113,636.058 540.113,637.158 529.116,649.255C515.919,662.451 508.221,674.549 499.423,691.045C495.024,699.843 489.525,714.139 489.525,717.438C489.525,717.438 493.924,714.139 498.323,709.74C509.32,699.843 526.801,670.222 581.356,676.296C594.472,677.757 607.197,681.147 629.192,686.646C652.286,692.144 661.084,691.045 666.583,683.347C668.782,680.047 669.882,680.047 658.885,677.848C655.585,676.748 648.987,675.648 645.688,673.449C640.189,671.249 623.693,661.352 623.693,660.252C623.693,659.152 637.99,661.352 651.186,664.651C658.885,666.85 667.683,667.95 669.882,667.95C679.78,667.95 687.478,663.551 695.176,653.654L698.475,649.255L694.076,640.457C691.877,634.958 689.677,631.659 690.777,631.659C697.375,633.858 709.473,633.858 711.672,630.559C711.672,629.459 709.473,626.16 706.173,622.861C690.777,606.365 684.179,588.769 684.179,562.375C684.179,548.079 683.079,545.879 670.982,528.283C646.788,490.892 626.992,477.695 595.1,475.496L584.102,475.496C584.102,475.496 575.305,465.598 569.806,456.8C556.609,439.205 529.116,408.412 517.018,399.614L513.719,397.415L514.819,409.512C514.819,422.709 513.719,429.307 507.121,449.102C500.522,468.898 499.423,477.695 499.423,489.793C499.423,507.388 503.822,523.884 512.619,544.78C514.819,550.278 517.018,554.677 517.018,555.777C515.919,555.777 510.993,550.894 508.767,547.777C505.101,542.645 501.1,534.098 495.024,524.984C492.824,521.685 469.73,534.882 458.732,546.979C455.433,550.278 452.134,552.478 452.134,552.478C451.034,552.478 452.134,549.178 454.333,544.78C458.732,537.081 465.331,529.383 478.528,520.585C482.927,517.286 487.326,513.987 488.425,512.887C489.525,510.688 489.525,507.388 489.525,498.591L489.525,485.394C489.525,485.394 441.578,486.282 366.666,525.55ZM654.486,472.197C655.585,466.698 656.685,459 657.785,454.601C658.885,444.703 658.885,417.21 657.785,417.21L653.386,423.808C648.987,432.606 639.089,444.703 629.192,451.302C620.394,457.9 604.997,465.598 594,468.898L586.302,471.097L601.698,472.197C619.294,473.297 635.79,477.695 643.488,482.094C651.186,485.394 651.186,485.394 654.486,472.197ZM656.685,584.37C651.186,582.171 651.186,582.171 645.688,583.27C643.488,584.37 640.189,585.47 639.089,585.47C637.99,585.47 632.491,582.171 628.092,577.772C623.693,573.373 617.095,567.874 614.895,565.675L610.496,561.276L628.092,561.276C648.987,561.276 650.087,561.276 652.286,568.974C653.386,571.173 655.585,576.672 658.885,579.971C664.383,586.57 664.383,587.669 656.685,584.37ZM530.215,543.68C528.016,541.48 524.717,529.383 523.617,520.585C522.517,510.688 523.617,493.092 526.916,483.194C529.116,475.496 536.814,456.8 539.013,455.701C541.213,455.701 548.911,464.499 553.31,473.297C557.709,483.194 562.108,495.291 562.108,498.591C562.108,499.69 559.908,501.89 557.709,504.089C548.911,510.688 544.512,517.286 539.013,531.583C535.714,538.181 532.415,543.68 532.415,544.78C531.315,544.78 531.315,543.68 530.215,543.68Z" style="fill:currentcolor;"/>
                </x:g>
            </x:g>
        </x:g>
    </x:symbol>
<x:symbol id="salesforce_outlines" width="100%" height="100%" viewBox="-8 -8 286 199">
        <x:path d="M113,21.3C121.78,12.16 134,6.5 147.5,6.5C165.5,6.5 181.1,16.5 189.5,31.4C196.956,28.067 205.033,26.346 213.2,26.35C245.6,26.35 271.9,52.85 271.9,85.55C271.9,118.25 245.6,144.75 213.2,144.75C209.24,144.75 205.38,144.352 201.6,143.6C194.25,156.7 180.2,165.6 164.2,165.6C157.686,165.613 151.255,164.135 145.4,161.28C137.95,178.78 120.6,191.08 100.4,191.08C79.3,191.08 61.4,177.78 54.5,159.08C51.429,159.728 48.299,160.054 45.16,160.052C20.06,160.052 -0.24,139.452 -0.24,114.152C-0.24,97.152 8.9,82.352 22.46,74.352C19.583,67.725 18.102,60.576 18.11,53.352C18.11,24.152 41.81,0.552 71.01,0.552C88.11,0.552 103.41,8.702 113.01,21.352" style="fill:none;stroke:currentColor;stroke-width:16"/>
    </x:symbol>
    <x:symbol xmlns:xlink="http://www.w3.org/1999/xlink" id="salesforce" width="100%" height="100%" viewBox="0 0 273 191"><x:defs><x:path id="a" d="m0.06 0.5h272v190h-272z"/></x:defs><x:g fill-rule="evenodd"><x:mask id="b" fill="#fff"><x:use xlink:href="#a"/></x:mask><x:path d="m113 21.3c8.78-9.14 21-14.8 34.5-14.8 18 0 33.6 10 42 24.9a58 58 0 0 1 23.7-5.05c32.4 0 58.7 26.5 58.7 59.2s-26.3 59.2-58.7 59.2c-3.96 0-7.82-0.398-11.6-1.15-7.35 13.1-21.4 22-37.4 22a42.7 42.7 0 0 1-18.8-4.32c-7.45 17.5-24.8 29.8-45 29.8-21.1 0-39-13.3-45.9-32a45.1 45.1 0 0 1-9.34 0.972c-25.1 0-45.4-20.6-45.4-45.9 0-17 9.14-31.8 22.7-39.8a52.6 52.6 0 0 1-4.35-21c0-29.2 23.7-52.8 52.9-52.8 17.1 0 32.4 8.15 42 20.8" fill="rgb(0, 161, 224)" mask="url(#b)"/><x:path d="m39.4 99.3c-0.171 0.446 0.061 0.539 0.116 0.618 0.511 0.37 1.03 0.638 1.55 0.939 2.78 1.47 5.4 1.9 8.14 1.9 5.58 0 9.05-2.97 9.05-7.75v-0.094c0-4.42-3.92-6.03-7.58-7.18l-0.479-0.155c-2.77-0.898-5.16-1.68-5.16-3.5v-0.093c0-1.56 1.4-2.71 3.56-2.71 2.4 0 5.26 0.799 7.09 1.81 0 0 0.542 0.35 0.739-0.173 0.107-0.283 1.04-2.78 1.14-3.06 0.106-0.293-0.08-0.514-0.271-0.628-2.1-1.28-5-2.15-8-2.15l-0.557 2e-3c-5.11 0-8.68 3.09-8.68 7.51v0.095c0 4.66 3.94 6.18 7.62 7.23l0.592 0.184c2.68 0.824 5 1.54 5 3.42v0.094c0 1.73-1.51 3.02-3.93 3.02-0.941 0-3.94-0.016-7.19-2.07-0.393-0.229-0.617-0.394-0.92-0.579-0.16-0.097-0.56-0.272-0.734 0.252l-1.1 3.06m81.7 0c-0.171 0.446 0.061 0.539 0.118 0.618 0.509 0.37 1.03 0.638 1.55 0.939 2.78 1.47 5.4 1.9 8.14 1.9 5.58 0 9.05-2.97 9.05-7.75v-0.094c0-4.42-3.91-6.03-7.58-7.18l-0.479-0.155c-2.77-0.898-5.16-1.68-5.16-3.5v-0.093c0-1.56 1.4-2.71 3.56-2.71 2.4 0 5.25 0.799 7.09 1.81 0 0 0.542 0.35 0.74-0.173 0.106-0.283 1.04-2.78 1.13-3.06 0.107-0.293-0.08-0.514-0.27-0.628-2.1-1.28-5-2.15-8-2.15l-0.558 2e-3c-5.11 0-8.68 3.09-8.68 7.51v0.095c0 4.66 3.94 6.18 7.62 7.23l0.591 0.184c2.69 0.824 5 1.54 5 3.42v0.094c0 1.73-1.51 3.02-3.93 3.02-0.943 0-3.95-0.016-7.19-2.07-0.393-0.229-0.623-0.387-0.921-0.579-0.101-0.064-0.572-0.248-0.733 0.252l-1.1 3.06m55.8-9.36c0 2.7-0.504 4.83-1.49 6.34-0.984 1.49-2.47 2.22-4.54 2.22s-3.55-0.724-4.52-2.21c-0.977-1.5-1.47-3.64-1.47-6.34 0-2.7 0.496-4.82 1.47-6.31 0.968-1.48 2.44-2.19 4.52-2.19s3.56 0.717 4.54 2.19c0.992 1.49 1.49 3.61 1.49 6.31m4.66-5.01c-0.459-1.55-1.17-2.91-2.12-4.05-0.951-1.14-2.15-2.06-3.58-2.72-1.42-0.665-3.1-1-5-1s-3.57 0.337-5 1c-1.42 0.664-2.63 1.58-3.58 2.72-0.948 1.14-1.66 2.5-2.12 4.05-0.455 1.54-0.686 3.22-0.686 5.01 0 1.79 0.231 3.47 0.686 5.01 0.457 1.55 1.17 2.91 2.12 4.05 0.951 1.14 2.16 2.05 3.58 2.7 1.43 0.648 3.11 0.978 5 0.978 1.89 0 3.57-0.33 4.99-0.978 1.42-0.648 2.63-1.56 3.58-2.7 0.949-1.14 1.66-2.5 2.12-4.05 0.454-1.54 0.685-3.22 0.685-5.01 0-1.78-0.231-3.47-0.685-5.01m38.3 12.8c-0.153-0.453-0.595-0.282-0.595-0.282-0.677 0.259-1.4 0.499-2.17 0.619-0.776 0.122-1.64 0.183-2.55 0.183-2.25 0-4.05-0.671-5.33-2-1.29-1.33-2.01-3.47-2-6.37 7e-3 -2.64 0.645-4.62 1.79-6.14 1.13-1.5 2.87-2.28 5.17-2.28 1.92 0 3.39 0.223 4.93 0.705 0 0 0.365 0.159 0.54-0.322 0.409-1.13 0.711-1.94 1.15-3.18 0.124-0.355-0.18-0.505-0.291-0.548-0.604-0.236-2.03-0.623-3.11-0.786-1.01-0.154-2.18-0.234-3.5-0.234-1.96 0-3.7 0.335-5.19 0.999-1.49 0.663-2.75 1.58-3.75 2.72-1 1.14-1.76 2.5-2.27 4.05-0.505 1.54-0.76 3.23-0.76 5.02 0 3.86 1.04 6.99 3.1 9.28 2.06 2.3 5.16 3.46 9.2 3.46 2.39 0 4.84-0.483 6.6-1.18 0 0 0.336-0.162 0.19-0.554l-1.15-3.16m8.15-10.4c0.223-1.5 0.634-2.75 1.28-3.72 0.967-1.48 2.44-2.29 4.51-2.29 2.07 0 3.44 0.814 4.42 2.29 0.65 0.975 0.934 2.27 1.04 3.72l-11.3-2e-3zm15.7-3.3c-0.397-1.49-1.38-3-2.02-3.69-1.02-1.09-2.01-1.86-3-2.28a11.5 11.5 0 0 0-4.52-0.917c-1.97 0-3.76 0.333-5.21 1.01-1.45 0.682-2.67 1.61-3.63 2.77-0.959 1.16-1.68 2.53-2.14 4.1-0.46 1.55-0.692 3.25-0.692 5.03 0 1.82 0.241 3.51 0.715 5.04 0.479 1.54 1.25 2.89 2.29 4.01 1.04 1.13 2.37 2.01 3.97 2.63 1.59 0.615 3.52 0.934 5.73 0.927 4.56-0.015 6.96-1.03 7.94-1.58 0.175-0.098 0.34-0.267 0.134-0.754l-1.03-2.89c-0.158-0.431-0.594-0.275-0.594-0.275-1.13 0.422-2.73 1.18-6.48 1.17-2.45-4e-3 -4.26-0.727-5.4-1.86-1.16-1.16-1.74-2.85-1.83-5.25l15.8 0.012s0.416-4e-3 0.459-0.41c0.017-0.168 0.541-3.24-0.471-6.79zm-142 3.3c0.223-1.5 0.635-2.75 1.28-3.72 0.968-1.48 2.44-2.29 4.51-2.29 2.07 0 3.44 0.814 4.42 2.29 0.649 0.975 0.933 2.27 1.04 3.72l-11.3-2e-3zm15.7-3.3c-0.396-1.49-1.38-3-2.02-3.69-1.02-1.09-2.01-1.86-3-2.28a11.5 11.5 0 0 0-4.52-0.917c-1.97 0-3.76 0.333-5.21 1.01-1.45 0.682-2.67 1.61-3.63 2.77-0.957 1.16-1.68 2.53-2.14 4.1-0.459 1.55-0.69 3.25-0.69 5.03 0 1.82 0.239 3.51 0.716 5.04 0.478 1.54 1.25 2.89 2.28 4.01 1.04 1.13 2.37 2.01 3.97 2.63 1.59 0.615 3.51 0.934 5.73 0.927 4.56-0.015 6.96-1.03 7.94-1.58 0.174-0.098 0.34-0.267 0.133-0.754l-1.03-2.89c-0.159-0.431-0.595-0.275-0.595-0.275-1.13 0.422-2.73 1.18-6.48 1.17-2.44-4e-3 -4.26-0.727-5.4-1.86-1.16-1.16-1.74-2.85-1.83-5.25l15.8 0.012s0.416-4e-3 0.459-0.41c0.017-0.168 0.541-3.24-0.472-6.79zm-49.8 13.6c-0.619-0.494-0.705-0.615-0.91-0.936-0.313-0.483-0.473-1.17-0.473-2.05 0-1.38 0.46-2.38 1.41-3.05-0.01 2e-3 1.36-1.18 4.58-1.14a32 32 0 0 1 4.28 0.365v7.17h2e-3s-2 0.431-4.26 0.567c-3.21 0.193-4.63-0.924-4.62-0.921zm6.28-11.1c-0.64-0.047-1.47-0.07-2.46-0.07-1.35 0-2.66 0.168-3.88 0.498-1.23 0.332-2.34 0.846-3.29 1.53a7.63 7.63 0 0 0-2.29 2.6c-0.559 1.04-0.844 2.26-0.844 3.64 0 1.4 0.243 2.61 0.723 3.6a6.54 6.54 0 0 0 2.06 2.47c0.877 0.638 1.96 1.11 3.21 1.39 1.24 0.283 2.64 0.426 4.18 0.426 1.62 0 3.23-0.136 4.79-0.399a95.1 95.1 0 0 0 3.97-0.772c0.526-0.121 1.11-0.28 1.11-0.28 0.39-0.099 0.36-0.516 0.36-0.516l-9e-3 -14.4c0-3.16-0.844-5.51-2.51-6.96-1.66-1.45-4.09-2.18-7.24-2.18-1.18 0-3.09 0.16-4.23 0.389 0 0-3.44 0.668-4.86 1.78 0 0-0.312 0.192-0.142 0.627l1.12 3c0.139 0.389 0.518 0.256 0.518 0.256s0.119-0.047 0.259-0.13c3.03-1.65 6.87-1.6 6.87-1.6 1.7 0 3.02 0.345 3.9 1.02 0.861 0.661 1.3 1.66 1.3 3.76v0.667c-1.35-0.196-2.6-0.309-2.6-0.309zm127-8.13a0.428 0.428 0 0 0-0.237-0.568c-0.269-0.102-1.61-0.385-2.64-0.449-1.98-0.124-3.08 0.21-4.07 0.654-0.978 0.441-2.06 1.15-2.66 1.97l-2e-3 -1.92c0-0.264-0.187-0.477-0.453-0.477h-4.04c-0.262 0-0.452 0.213-0.452 0.477v23.5a0.48 0.48 0 0 0 0.479 0.479h4.14a0.479 0.479 0 0 0 0.478-0.479v-11.8c0-1.58 0.174-3.15 0.521-4.14 0.342-0.979 0.807-1.76 1.38-2.32a4.79 4.79 0 0 1 1.95-1.17 7.68 7.68 0 0 1 2.12-0.298c0.825 0 1.73 0.212 1.73 0.212 0.304 0.034 0.473-0.152 0.576-0.426 0.271-0.721 1.04-2.88 1.19-3.31" fill="#FFFFFE"/><x:path d="M162.201 67.548a13.258 13.258 0 0 0-1.559-.37 12.217 12.217 0 0 0-2.144-.166c-2.853 0-5.102.806-6.681 2.398-1.568 1.58-2.635 3.987-3.17 7.154l-.193 1.069h-3.581s-.437-.018-.529.459l-.588 3.28c-.041.314.094.51.514.508h3.486l-3.537 19.743c-.277 1.59-.594 2.898-.945 3.889-.346.978-.684 1.711-1.1 2.243-.403.515-.785.894-1.444 1.115-.544.183-1.17.267-1.856.267-.382 0-.89-.064-1.265-.139-.375-.074-.57-.158-.851-.276 0 0-.409-.156-.57.254-.131.335-1.06 2.89-1.17 3.206-.112.312.045.558.243.629.464.166.809.272 1.441.421.878.207 1.618.22 2.311.22 1.452 0 2.775-.204 3.872-.6 1.104-.399 2.065-1.094 2.915-2.035.919-1.015 1.497-2.078 2.05-3.528.547-1.437 1.013-3.221 1.386-5.3l3.554-20.109h5.196s.438.016.529-.459l.588-3.28c.041-.314-.093-.51-.515-.508h-5.043c.025-.114.254-1.888.833-3.558.247-.713.712-1.288 1.106-1.683a3.273 3.273 0 0 1 1.321-.822 5.48 5.48 0 0 1 1.693-.244c.475 0 .941.057 1.296.131.489.104.679.159.807.197.514.157.583.005.684-.244l1.206-3.312c.124-.356-.178-.506-.29-.55m-70.474 34.117c0 .264-.188.479-.452.479h-4.183c-.265 0-.453-.215-.453-.479V67.997c0-.263.188-.476.453-.476h4.183c.264 0 .452.213.452.476v33.668" fill="#FFFFFE"/></x:g></x:symbol><x:symbol id="hyper_nocolor" width="100%" height="100%" viewBox="0 0 137.6113 169.39944" style="fill-rule:evenodd;clip-rule:evenodd;stroke-linejoin:round;stroke-miterlimit:2;">
        <x:g id="layer1" transform="translate(299.37112,26.580672)">
            <x:path style="fill:currentColor;fill-opacity:1;fill-rule:nonzero;stroke:none;stroke-width:1.7591331" d="m -230.58265,66.217214 c -31.82244,0 -58.47743,-9.28356 -65.7476,-21.80363 -1.285,2.205784 -2.04087,4.487159 -2.04087,6.864736 v 20.49802 c 0,15.832198 30.36566,28.67526 67.78847,28.67526 37.46403,0 67.82282,-12.843062 67.82282,-28.67526 V 51.27832 c 0,-2.377577 -0.75584,-4.658952 -2.03399,-6.864736 -7.29078,12.52007 -33.93203,21.80363 -65.78883,21.80363 z m 0,0"/>
            <x:path style="fill:currentColor;fill-opacity:1;fill-rule:nonzero;stroke:none;stroke-width:1.7591331" d="m -230.58265,107.5912 c -31.82244,0 -58.47743,-9.283552 -65.7476,-21.783022 -1.285,2.17831 -2.04087,4.46656 -2.04087,6.83726 V 113.1572 c 0,15.8322 30.36566,28.66157 67.78847,28.66157 37.46403,0 67.82282,-12.82937 67.82282,-28.66157 V 92.645438 c 0,-2.3707 -0.75584,-4.65895 -2.03399,-6.83726 -7.29078,12.49947 -33.93203,21.783022 -65.78883,21.783022 z m 0,0"/>
            <x:path style="fill:currentColor;fill-opacity:1;fill-rule:nonzero;stroke:none;stroke-width:1.7591331" d="m -164.60142,3.4312656 c -1.33309,11.6061704 -30.31069,20.8759744 -65.98123,20.8759744 -35.64994,0 -64.60692,-9.269804 -65.94,-20.8622184 -1.16131,2.095841 -1.84847,4.294756 -1.84847,6.5692654 v 20.470535 c 0,15.852802 30.36566,28.682109 67.78847,28.682109 37.46403,0 67.82282,-12.829307 67.82282,-28.682109 V 10.014287 c 0,-2.2745094 -0.68028,-4.4734244 -1.84159,-6.5830214 z m 0,0"/>
            <x:path style="fill:currentColor;fill-opacity:1;fill-rule:nonzero;stroke:none;stroke-width:1.7591331" d="m -230.58265,17.813561 c 36.51575,0 66.09118,-9.7027184 66.09118,-21.6936794 0,-11.9772196 -29.57543,-21.7005536 -66.09118,-21.7005536 -36.47453,0.01378 -66.0637,9.723334 -66.0637,21.7005536 0,11.990961 29.58917,21.6936794 66.0637,21.6936794 z m 0,0"/>
        </x:g>
    </x:symbol>
    <x:symbol id="dashql-inverted" width="100%" height="100%" viewBox="0 0 200 200">
        <x:g transform="matrix(1,0,0,1,0,-301.64)">
            <x:g transform="matrix(0.8,0,0,1.06952,0,-19.2155)">
                <x:g transform="matrix(1.95175,0,0,1.45991,-72.2923,182.402)">
                    <x:path d="M71.086,201.185C50.839,190.421 37.04,169.107 37.04,144.596C37.04,140.339 37.456,136.179 38.25,132.153C61.986,119.965 77.107,119.685 77.107,119.685L77.107,123.989C77.107,126.858 77.107,127.934 76.748,128.651C76.39,129.01 74.955,130.086 73.521,131.162C69.217,134.031 67.065,136.542 65.63,139.052C64.913,140.487 64.554,141.563 64.913,141.563C64.913,141.563 65.989,140.846 67.065,139.77C70.651,135.824 78.183,131.521 78.9,132.597C80.882,135.569 82.187,138.356 83.382,140.03C84.109,141.047 85.715,142.639 86.073,142.639C86.073,142.28 85.356,140.846 84.639,139.052C81.77,132.238 80.335,126.858 80.335,121.12C80.335,117.174 80.694,114.305 82.846,107.849C84.998,101.394 85.356,99.242 85.356,94.938L84.998,90.993L86.073,91.71C90.019,94.579 98.985,104.622 103.289,110.36C105.082,113.229 107.951,116.457 107.951,116.457L111.538,116.457C121.939,117.174 128.395,121.478 136.285,133.673C140.23,139.411 140.589,140.128 140.589,144.791C140.589,153.398 142.741,159.137 147.762,164.517C148.838,165.593 149.555,166.669 149.555,167.027C148.838,168.103 144.893,168.103 142.741,167.386C142.382,167.386 143.099,168.462 143.817,170.255L145.251,173.124L144.175,174.559C141.665,177.787 139.154,179.222 135.926,179.222C135.209,179.222 132.34,178.863 129.829,178.146C125.525,177.07 120.863,176.352 120.863,176.711C120.863,177.07 126.243,180.298 128.036,181.015C129.112,181.732 131.264,182.091 132.34,182.449C135.926,183.167 135.568,183.167 134.85,184.243C133.057,186.753 130.188,187.112 122.656,185.319C115.483,183.525 111.333,182.42 107.056,181.943C89.264,179.962 83.563,189.623 79.976,192.85C78.542,194.285 77.107,195.361 77.107,195.361C77.107,194.285 78.9,189.623 80.335,186.753C83.204,181.373 85.715,177.428 90.019,173.124C93.605,169.179 93.605,168.821 90.736,170.614C87.867,171.69 83.922,174.918 82.128,177.07L79.976,179.58L80.335,178.146C81.052,172.407 85.356,164.517 90.377,158.778C91.812,157.344 92.888,155.909 92.529,155.909C91.812,155.909 84.226,158.382 77.776,171.67C71.805,183.973 72.141,191.301 71.086,201.185ZM131.623,151.964C134.133,153.04 134.133,152.681 132.34,150.529C131.264,149.453 130.547,147.66 130.188,146.943C129.471,144.432 129.112,144.432 122.298,144.432L116.559,144.432L117.994,145.867C118.711,146.584 120.863,148.377 122.298,149.812C123.732,151.247 125.525,152.323 125.884,152.323C126.243,152.323 127.319,151.964 128.036,151.605C129.829,151.247 129.829,151.247 131.623,151.964ZM90.377,138.694C90.736,138.694 90.736,139.052 91.095,139.052C91.095,138.694 92.171,136.9 93.247,134.748C95.04,130.086 96.474,127.934 99.344,125.782C100.061,125.065 100.778,124.348 100.778,123.989C100.778,122.913 99.344,118.968 97.909,115.74C96.474,112.871 93.964,110.001 93.247,110.001C92.529,110.36 90.019,116.457 89.301,118.968C88.225,122.196 87.867,127.934 88.225,131.162C88.584,134.031 89.66,137.976 90.377,138.694ZM130.905,115.381C129.829,119.685 129.829,119.685 127.319,118.609C124.808,117.174 119.428,115.74 113.69,115.381L108.669,115.023L111.179,114.305C114.766,113.229 119.787,110.719 122.656,108.567C125.884,106.415 129.112,102.47 130.547,99.6L131.981,97.449C132.34,97.449 132.34,106.415 131.981,109.643C131.623,111.077 131.264,113.588 130.905,115.381Z" style="fill:currentcolor;"/>
                </x:g>
            </x:g>
        </x:g>
    </x:symbol>
<x:symbol id="hyper" width="100%" height="100%" viewBox="0 0 137.6113 169.39944" style="fill-rule:evenodd;clip-rule:evenodd;stroke-linejoin:round;stroke-miterlimit:2;">
        <x:g id="layer1" transform="translate(299.37112,26.580672)">
            <x:path style="fill:#e86321;fill-opacity:1;fill-rule:nonzero;stroke:none;stroke-width:1.7591331" d="m -230.58265,66.217214 c -31.82244,0 -58.47743,-9.28356 -65.7476,-21.80363 -1.285,2.205784 -2.04087,4.487159 -2.04087,6.864736 v 20.49802 c 0,15.832198 30.36566,28.67526 67.78847,28.67526 37.46403,0 67.82282,-12.843062 67.82282,-28.67526 V 51.27832 c 0,-2.377577 -0.75584,-4.658952 -2.03399,-6.864736 -7.29078,12.52007 -33.93203,21.80363 -65.78883,21.80363 z m 0,0"/>
            <x:path style="fill:#578232;fill-opacity:1;fill-rule:nonzero;stroke:none;stroke-width:1.7591331" d="m -230.58265,107.5912 c -31.82244,0 -58.47743,-9.283552 -65.7476,-21.783022 -1.285,2.17831 -2.04087,4.46656 -2.04087,6.83726 V 113.1572 c 0,15.8322 30.36566,28.66157 67.78847,28.66157 37.46403,0 67.82282,-12.82937 67.82282,-28.66157 V 92.645438 c 0,-2.3707 -0.75584,-4.65895 -2.03399,-6.83726 -7.29078,12.49947 -33.93203,21.783022 -65.78883,21.783022 z m 0,0"/>
            <x:path style="fill:#263f7f;fill-opacity:1;fill-rule:nonzero;stroke:none;stroke-width:1.7591331" d="m -164.60142,3.4312656 c -1.33309,11.6061704 -30.31069,20.8759744 -65.98123,20.8759744 -35.64994,0 -64.60692,-9.269804 -65.94,-20.8622184 -1.16131,2.095841 -1.84847,4.294756 -1.84847,6.5692654 v 20.470535 c 0,15.852802 30.36566,28.682109 67.78847,28.682109 37.46403,0 67.82282,-12.829307 67.82282,-28.682109 V 10.014287 c 0,-2.2745094 -0.68028,-4.4734244 -1.84159,-6.5830214 z m 0,0"/>
            <x:path style="fill:#303030;fill-opacity:1;fill-rule:nonzero;stroke:none;stroke-width:1.7591331" d="m -230.58265,17.813561 c 36.51575,0 66.09118,-9.7027184 66.09118,-21.6936794 0,-11.9772196 -29.57543,-21.7005536 -66.09118,-21.7005536 -36.47453,0.01378 -66.0637,9.723334 -66.0637,21.7005536 0,11.990961 29.58917,21.6936794 66.0637,21.6936794 z m 0,0"/>
        </x:g>
    </x:symbol>
    <x:symbol id="hyper_outlines" width="100%" height="100%" viewBox="0 0 144 182">
        <x:g id="layer1" transform="translate(304,30)">
            <x:path style="fill:none;stroke:currentColor;stroke-width:8" d="m -230.58265,66.217214 c -31.82244,0 -58.47743,-9.28356 -65.7476,-21.80363 -1.285,2.205784 -2.04087,4.487159 -2.04087,6.864736 v 20.49802 c 0,15.832198 30.36566,28.67526 67.78847,28.67526 37.46403,0 67.82282,-12.843062 67.82282,-28.67526 V 51.27832 c 0,-2.377577 -0.75584,-4.658952 -2.03399,-6.864736 -7.29078,12.52007 -33.93203,21.80363 -65.78883,21.80363 z m 0,0"/>
            <x:path style="fill:none;stroke:currentColor;stroke-width:8" d="m -230.58265,107.5912 c -31.82244,0 -58.47743,-9.283552 -65.7476,-21.783022 -1.285,2.17831 -2.04087,4.46656 -2.04087,6.83726 V 113.1572 c 0,15.8322 30.36566,28.66157 67.78847,28.66157 37.46403,0 67.82282,-12.82937 67.82282,-28.66157 V 92.645438 c 0,-2.3707 -0.75584,-4.65895 -2.03399,-6.83726 -7.29078,12.49947 -33.93203,21.783022 -65.78883,21.783022 z m 0,0"/>
            <x:path style="fill:none;stroke:currentColor;stroke-width:8" d="m -164.60142,3.4312656 c -1.33309,11.6061704 -30.31069,20.8759744 -65.98123,20.8759744 -35.64994,0 -64.60692,-9.269804 -65.94,-20.8622184 -1.16131,2.095841 -1.84847,4.294756 -1.84847,6.5692654 v 20.470535 c 0,15.852802 30.36566,28.682109 67.78847,28.682109 37.46403,0 67.82282,-12.829307 67.82282,-28.682109 V 10.014287 c 0,-2.2745094 -0.68028,-4.4734244 -1.84159,-6.5830214 z m 0,0"/>
            <x:path style="fill:none;stroke:currentColor;stroke-width:8" d="m -230.58265,17.813561 c 36.51575,0 66.09118,-9.7027184 66.09118,-21.6936794 0,-11.9772196 -29.57543,-21.7005536 -66.09118,-21.7005536 -36.47453,0.01378 -66.0637,9.723334 -66.0637,21.7005536 0,11.990961 29.58917,21.6936794 66.0637,21.6936794 z m 0,0"/>
        </x:g>
    </x:symbol>
    <x:symbol xmlns:serif="http://www.serif.com/" id="trino_nocolor" width="100%" height="100%" viewBox="0 0 24 24" style="fill-rule:evenodd;clip-rule:evenodd;stroke-linejoin:round;stroke-miterlimit:2;">
    <x:g transform="matrix(1,0,0,1,-82.9077,0)">
        <x:g id="Trino-Filled" serif:id="Trino Filled" transform="matrix(1,0,0,1,82.9077,0)">
            <x:g transform="matrix(0.958328,0,0,0.958328,0.500069,0.500067)">
                <x:path d="M18.651,16.031L18.651,18.017C18.62,18.596 18.127,19.041 17.548,19.013L17.164,19.013C16.909,19.657 16.524,20.241 16.034,20.731C15.97,20.791 15.934,20.875 15.934,20.963C15.934,21.051 15.97,21.135 16.034,21.196L16.272,21.415C16.342,21.472 16.383,21.558 16.383,21.649C16.383,21.721 16.357,21.79 16.311,21.845C15.185,23.229 13.344,23.997 11.261,23.997C9.463,24.05 7.72,23.364 6.442,22.099C6.439,22.096 6.436,22.092 6.433,22.089C6.331,21.974 6.275,21.825 6.275,21.672C6.275,21.491 6.353,21.319 6.488,21.2C6.625,21.073 6.625,20.853 6.488,20.727C5.997,20.24 5.613,19.657 5.362,19.013L5.012,19.013C4.432,19.041 3.938,18.597 3.905,18.017L3.905,16.031C3.94,15.453 4.434,15.011 5.012,15.039L5.285,15.039C5.616,13.806 6.348,12.718 7.364,11.945C6.941,10.846 6.211,8.69 6.138,6.938C6.023,4.471 6.219,0.078 7.825,0.001C9.432,-0.076 9.197,4.029 8.924,6.696C8.782,8.175 8.741,9.661 8.801,11.146C9.596,10.853 10.437,10.707 11.284,10.716C11.869,10.714 12.453,10.784 13.021,10.923C13.283,9.655 13.897,7.349 15.05,5.727C16.722,3.375 18.486,0.946 19.662,1.627C20.838,2.307 19.354,4.766 18.332,6.054C17.31,7.341 15.546,9.263 14.958,10.281C14.747,10.666 14.528,11.084 14.362,11.434C15.8,12.173 16.86,13.486 17.279,15.047L17.352,15.047L17.352,12.741C17.354,12.619 17.283,12.507 17.172,12.456C16.843,12.317 16.625,11.998 16.614,11.642C16.665,11.167 17.044,10.788 17.519,10.737C18.078,10.677 18.58,11.082 18.64,11.642C18.629,11.997 18.413,12.315 18.086,12.456C17.98,12.51 17.913,12.621 17.917,12.741L17.917,14.893C17.916,15.011 17.981,15.12 18.086,15.174C18.422,15.328 18.641,15.661 18.651,16.031Z" style="fill:currentColor"/>
                <x:path d="M5.012,19.535C4.157,19.563 3.433,18.904 3.385,18.047C3.384,18.037 3.384,18.027 3.384,18.017L3.384,16.031C3.384,16.02 3.384,16.009 3.385,15.999C3.434,15.183 4.096,14.548 4.898,14.517C5.258,13.456 5.896,12.509 6.744,11.777C6.303,10.574 5.685,8.596 5.617,6.962C5.533,5.169 5.623,2.399 6.248,0.87C6.599,0.009 7.143,-0.489 7.8,-0.52C8.504,-0.554 9.025,-0.105 9.316,0.739C9.799,2.139 9.642,4.808 9.444,6.746C9.326,7.975 9.279,9.209 9.303,10.442C9.949,10.271 10.616,10.188 11.286,10.194C11.734,10.193 12.182,10.231 12.623,10.307C12.942,8.944 13.57,6.91 14.625,5.425C15.842,3.713 17.123,1.977 18.191,1.323C18.825,0.935 19.415,0.881 19.923,1.175C20.456,1.483 20.669,2.016 20.606,2.688C20.501,3.806 19.512,5.408 18.741,6.378C17.734,7.646 15.994,9.533 15.412,10.538C15.289,10.762 15.163,10.998 15.048,11.224C15.466,11.484 15.849,11.791 16.191,12.138C16.132,11.987 16.098,11.825 16.093,11.657C16.092,11.634 16.093,11.61 16.096,11.586C16.172,10.868 16.745,10.295 17.463,10.218C18.309,10.128 19.068,10.74 19.158,11.586C19.161,11.61 19.162,11.634 19.161,11.658C19.146,12.16 18.868,12.615 18.439,12.862L18.439,14.77C18.878,15.03 19.159,15.5 19.173,16.017C19.173,16.021 19.173,16.026 19.173,16.031L19.173,18.017C19.173,18.027 19.173,18.036 19.172,18.045C19.126,18.902 18.403,19.563 17.548,19.535L17.561,19.013C18.134,19.034 18.62,18.592 18.651,18.017L18.651,16.031C18.641,15.661 18.422,15.328 18.086,15.174C17.981,15.12 17.916,15.011 17.917,14.893L17.917,12.741C17.913,12.621 17.98,12.51 18.086,12.456C18.413,12.315 18.629,11.997 18.64,11.642C18.58,11.082 18.078,10.677 17.519,10.737C17.044,10.788 16.665,11.167 16.614,11.642C16.625,11.998 16.843,12.317 17.172,12.456C17.283,12.507 17.354,12.619 17.352,12.741L17.352,15.047L17.279,15.047C16.86,13.486 15.8,12.173 14.362,11.434C14.528,11.084 14.747,10.666 14.958,10.281C15.546,9.263 17.31,7.341 18.332,6.054C19.354,4.766 20.838,2.307 19.662,1.627C18.486,0.946 16.722,3.375 15.05,5.727C13.897,7.349 13.282,9.655 13.021,10.923C12.453,10.784 11.869,10.714 11.284,10.716C10.437,10.707 9.596,10.853 8.801,11.146C8.741,9.661 8.782,8.175 8.924,6.696C9.197,4.028 9.432,-0.076 7.825,0.001C6.219,0.078 6.023,4.47 6.138,6.938C6.211,8.69 6.941,10.846 7.364,11.945C6.348,12.718 5.616,13.806 5.285,15.039L5.012,15.039C4.434,15.011 3.941,15.453 3.905,16.031L3.905,18.017C3.928,18.414 4.167,18.747 4.501,18.909C4.493,18.947 4.49,18.986 4.491,19.026C4.498,19.309 4.729,19.535 5.012,19.535ZM17.548,19.535C17.545,19.535 17.541,19.535 17.537,19.535C17.537,19.535 17.506,19.535 17.506,19.534C17.26,20.054 16.935,20.534 16.543,20.955L16.605,21.012L16.619,21.027L16.382,21.649C16.382,21.558 16.342,21.472 16.272,21.415L16.034,21.196C15.97,21.135 15.934,21.051 15.934,20.963C15.934,20.875 15.97,20.791 16.034,20.731C16.401,20.365 16.708,19.945 16.947,19.487C17.014,19.518 17.088,19.535 17.164,19.535L17.167,19.013L17.548,19.013L17.548,19.535ZM16.619,21.027L16.62,21.026C16.644,21.047 16.665,21.07 16.684,21.094L16.619,21.027ZM16.684,21.094L16.731,21.143L16.826,21.297L16.884,21.467L16.904,21.649L16.854,21.933C16.854,21.933 16.719,22.166 16.715,22.174C15.499,23.669 13.518,24.517 11.269,24.519C9.331,24.574 7.453,23.833 6.075,22.47C6.068,22.463 6.062,22.456 6.055,22.449C6.055,22.449 6.036,22.427 6.036,22.427C5.854,22.218 5.753,21.949 5.753,21.672C5.753,21.413 5.84,21.164 5.993,20.966C5.594,20.544 5.265,20.06 5.018,19.535C5.016,19.535 5.014,19.535 5.012,19.535L5.012,19.521C4.964,19.417 4.918,19.31 4.876,19.203L5.013,19.296L5.015,19.013L5.362,19.013L5.362,19.535L5.5,19.333C5.745,19.85 6.08,20.322 6.488,20.727C6.625,20.853 6.625,21.073 6.488,21.2C6.353,21.319 6.275,21.491 6.275,21.672C6.275,21.825 6.331,21.974 6.433,22.089C6.436,22.092 6.439,22.096 6.442,22.099C7.72,23.364 9.463,24.05 11.261,23.997C13.298,23.997 15.104,23.262 16.236,21.935C16.248,21.936 16.26,21.936 16.272,21.936C16.492,21.936 16.689,21.798 16.763,21.591C16.825,21.421 16.792,21.233 16.684,21.094ZM16.304,21.853L16.272,21.936L16.244,21.925C16.264,21.901 16.284,21.877 16.304,21.853ZM16.797,12.85C16.808,12.866 16.819,12.881 16.831,12.897L16.831,12.87C16.819,12.863 16.808,12.857 16.797,12.85Z" style="fill:currentColor"/>
            </x:g>
        </x:g>
    </x:g>
    </x:symbol>
    <x:symbol xmlns:serif="http://www.serif.com/" id="trino" width="100%" height="100%" viewBox="0 0 24 24" style="fill-rule:evenodd;clip-rule:evenodd;stroke-linejoin:round;stroke-miterlimit:2;">
        <x:g transform="matrix(1,0,0,1,-5.31372e-05,0)">
            <x:g id="Trino-Color" serif:id="Trino Color" transform="matrix(0.385035,0,0,0.379798,5.31372e-05,0)">
                <x:rect x="0" y="0" width="62.332" height="63.192" style="fill:none;"/>
                <x:g id="Layer_3" transform="matrix(0.986396,0,0,1,10.0123,0.00156571)">
                    <x:g id="Layer_2">
                        <x:g id="Layer_31" serif:id="Layer_3">
                            <x:path d="M39.09,30.67C39.09,29.024 37.736,27.67 36.09,27.67C34.444,27.67 33.09,29.024 33.09,30.67C33.122,31.836 33.89,32.861 35,33.22L35,37.79C33.693,34.442 31.245,31.661 28.09,29.94C28.55,28.94 29.02,28.08 29.47,27.29C31.189,24.747 33.084,22.328 35.14,20.05C36.27,18.71 37.34,17.45 38.21,16.35C40.65,13.29 43.33,8.77 42.83,6.09C42.707,5.33 42.247,4.664 41.58,4.28C38.19,2.28 33.58,8.78 29.05,15.05C26.05,19.19 24.5,25.05 23.79,28.34C22.401,28.036 20.982,27.881 19.56,27.88C17.492,27.874 15.437,28.212 13.48,28.88C13.353,25.21 13.463,21.536 13.81,17.88C14.81,8.37 14.37,2.79 12.52,0.88C12.039,0.299 11.314,-0.027 10.56,0C5.1,0.27 5.72,16.58 5.81,18.44C6.03,22.9 7.81,28.32 8.89,31.32C6.37,33.313 4.535,36.044 3.64,39.13L3.25,39.13C3.203,39.128 3.155,39.127 3.108,39.127C1.442,39.127 0.057,40.465 -0,42.13L0,47.3C0.063,48.966 1.45,50.303 3.118,50.303C3.162,50.303 3.206,50.302 3.25,50.3L3.91,50.3C4.662,52.062 5.784,53.641 7.2,54.93L6.2,55.81C5.718,56.226 5.659,56.963 6.07,57.45C9.07,61.1 13.98,63.19 19.49,63.19C25,63.19 29.93,61.1 32.91,57.45C33.321,56.963 33.262,56.226 32.78,55.81L31.78,54.93C33.2,53.613 34.322,52.007 35.07,50.22L35.82,50.22C35.864,50.222 35.908,50.223 35.952,50.223C37.62,50.223 39.007,48.886 39.07,47.22L39.07,42.09C39.04,40.893 38.282,39.829 37.16,39.41L37.16,33.22C38.279,32.871 39.058,31.842 39.09,30.67Z" style="fill:rgb(205,204,204);fill-rule:nonzero;"/>
                            <x:path d="M14.62,55.74C15.54,55.13 13.12,55.36 12.92,54.95C11.954,54.864 10.996,54.694 10.06,54.44C8.36,53.99 4.28,51.25 3.84,48.62C3.4,45.99 3.84,41 5.68,38C6.832,36.172 8.318,34.578 10.06,33.3C11.802,32.022 6.49,24.81 6.19,18.4C5.89,11.99 6.39,0.58 10.57,0.38C14.75,0.18 14.14,10.86 13.43,17.81C13.008,22.425 12.942,27.065 13.23,31.69C15.011,31.124 16.862,30.815 18.73,30.77C20.376,30.732 22.02,30.886 23.63,31.23C25.24,31.574 24.96,21.39 29.34,15.23C33.72,9.07 38.34,2.78 41.34,4.57C44.34,6.36 40.52,12.75 37.87,16.08C35.22,19.41 30.63,24.41 29.1,27.08C28.097,28.857 27.212,30.697 26.45,32.59C29.178,33.99 31.41,36.197 32.84,38.91C35,43.22 35.16,48.52 34,50.77C32.821,52.872 30.762,54.341 28.39,54.77C27.06,54.83 21.47,56.22 21.47,56.22L14.62,55.74Z" style="fill:white;fill-rule:nonzero;"/>
                            <x:path d="M24.41,31.32C24.41,31.32 27.75,22.61 30.74,17.72C33.73,12.83 37.74,9.13 39,9.88C40.26,10.63 36.43,15.2 33.07,19.69C30.333,23.655 27.851,27.79 25.64,32.07L24.41,31.32Z" style="fill:rgb(221,0,161);fill-rule:nonzero;"/>
                            <x:path d="M11,32.81L12,32.07C12,32.07 11.86,23.36 12,18.07C12.14,12.78 12.41,6.17 10.64,6.23C8.87,6.29 7.64,11.4 8.33,18.61C8.827,23.409 9.72,28.158 11,32.81Z" style="fill:rgb(221,0,161);fill-rule:nonzero;"/>
                            <x:circle cx="8.02" cy="49.54" r="1.94" style="fill:rgb(249,216,210);"/>
                            <x:circle cx="30.95" cy="49.54" r="1.94" style="fill:rgb(249,216,210);"/>
                            <x:path d="M22.7,49.38C22.672,49.364 22.641,49.355 22.609,49.355C22.542,49.355 22.481,49.392 22.45,49.45C22.419,49.508 21.87,50.45 21.03,50.51C20.455,50.493 19.912,50.24 19.53,49.81L19.53,48.33C20.07,48.03 20.94,47.13 20.94,46.82C20.784,46.14 20.145,45.673 19.45,45.73C18.45,45.73 17.75,46.38 17.75,46.92C17.75,47.46 18.85,48.16 19.16,48.36L19.16,49.82C18.841,50.225 18.364,50.476 17.85,50.51C17.06,50.51 16.46,49.43 16.45,49.42C16.402,49.331 16.291,49.296 16.2,49.34C16.11,49.392 16.075,49.506 16.12,49.6C16.165,49.694 16.83,50.89 17.85,50.89C18.432,50.865 18.979,50.6 19.36,50.16C19.775,50.595 20.34,50.856 20.94,50.89L21.06,50.89C21.789,50.746 22.417,50.284 22.77,49.63C22.786,49.602 22.795,49.571 22.795,49.539C22.795,49.472 22.758,49.411 22.7,49.38Z" style="fill:rgb(16,17,14);fill-rule:nonzero;"/>
                            <x:path d="M10.06,33.32C10.06,33.32 7.29,26.32 6.76,22.66C6.23,19 5.76,12.89 6.46,8.82C6.761,6.945 7.168,5.089 7.68,3.26C8.192,1.431 6.39,12.75 6.87,16.9C7.35,21.05 10.06,33.32 10.06,33.32Z" style="fill:rgb(229,229,229);fill-rule:nonzero;"/>
                            <x:path d="M23.63,31.23C23.63,31.23 25.63,20.64 28.54,16.48C31.45,12.32 35.06,7.27 36.89,6L38.72,4.72C38.72,4.72 31.38,12.42 28.54,18.72C25.7,25.02 23.63,31.23 23.63,31.23Z" style="fill:rgb(229,229,229);fill-rule:nonzero;"/>
                            <x:path d="M12,43.23C11.997,43.23 11.993,43.23 11.99,43.23C11.156,43.23 10.47,43.916 10.47,44.75C10.47,45.584 11.156,46.27 11.99,46.27C12.824,46.27 13.51,45.584 13.51,44.75C13.51,43.92 12.83,43.235 12,43.23ZM12.43,44.64C12.205,44.64 12.02,44.455 12.02,44.23C12.02,44.005 12.205,43.82 12.43,43.82C12.655,43.82 12.84,44.005 12.84,44.23C12.84,44.23 12.84,44.23 12.84,44.23C12.84,44.455 12.655,44.64 12.43,44.64C12.423,44.64 12.417,44.64 12.41,44.64L12.43,44.64Z" style="fill:rgb(16,17,14);fill-rule:nonzero;"/>
                            <x:path d="M26.92,43.23C26.086,43.23 25.4,43.916 25.4,44.75C25.4,45.584 26.086,46.27 26.92,46.27C27.754,46.27 28.44,45.584 28.44,44.75C28.44,43.916 27.754,43.23 26.92,43.23ZM27.35,44.64C27.127,44.635 26.945,44.453 26.94,44.23C26.972,44.026 27.149,43.875 27.355,43.875C27.561,43.875 27.738,44.026 27.77,44.23C27.765,44.457 27.577,44.64 27.35,44.64Z" style="fill:rgb(16,17,14);fill-rule:nonzero;"/>
                            <x:ellipse cx="19.73" cy="45.32" rx="14.1" ry="10.16" style="fill:rgb(138,204,206);fill-opacity:0.2;"/>
                            <x:path d="M36.8,39.67L36.8,33C37.879,32.762 38.669,31.823 38.72,30.72C38.577,29.38 37.433,28.352 36.085,28.352C34.737,28.352 33.593,29.38 33.45,30.72C33.496,31.822 34.284,32.761 35.36,33L35.36,39.5L35.17,39.5C33.17,32.56 27.26,28.25 19.55,28.25C11.84,28.25 5.89,32.52 3.92,39.5L3.25,39.5C1.752,39.427 0.455,40.592 0.37,42.09L0.37,47.26C0.461,48.754 1.755,49.914 3.25,49.84L4.16,49.84C4.933,51.801 6.168,53.548 7.76,54.93L6.46,56.09C6.282,56.24 6.179,56.461 6.179,56.694C6.179,56.884 6.247,57.067 6.37,57.21C9.29,60.74 14.08,62.81 19.5,62.81C24.92,62.81 29.71,60.81 32.63,57.21C32.753,57.067 32.821,56.884 32.821,56.694C32.821,56.461 32.718,56.24 32.54,56.09L31.24,54.93C32.825,53.542 34.059,51.797 34.84,49.84L35.84,49.84C37.335,49.914 38.629,48.754 38.72,47.26L38.72,42.09C38.674,40.955 37.895,39.973 36.8,39.67ZM19.55,35.62C26.69,35.62 32.49,40.32 32.49,46.09C32.49,52.34 25.97,55.09 19.55,55.09C13.13,55.09 6.61,52.29 6.61,46.09C6.61,40.32 12.41,35.62 19.55,35.62Z" style="fill:white;fill-rule:nonzero;"/>
                            <x:path d="M37.28,45.53L35.36,45.53L35.36,44.59C35.359,43.314 35.232,42.041 34.98,40.79L35.79,40.79C35.82,40.788 35.851,40.787 35.881,40.787C36.604,40.787 37.205,41.368 37.23,42.09L37.28,45.53Z" style="fill:rgb(81,81,81);fill-rule:nonzero;"/>
                            <x:path d="M35.84,48.55L34.84,48.55C35.03,47.844 35.174,47.125 35.27,46.4L37.27,46.4L37.27,47.26C37.245,47.977 36.648,48.553 35.931,48.553C35.901,48.553 35.87,48.552 35.84,48.55Z" style="fill:rgb(81,81,81);fill-rule:nonzero;"/>
                            <x:path d="M19.55,61.48C14.75,61.48 10.49,59.75 7.8,56.69L9.15,55.49C12.222,57.541 15.857,58.59 19.55,58.49C23.243,58.588 26.877,57.54 29.95,55.49L31.29,56.69C28.61,59.75 24.34,61.48 19.55,61.48Z" style="fill:rgb(81,81,81);fill-rule:nonzero;"/>
                            <x:path d="M3.25,40.79L4.11,40.79C3.86,42.041 3.733,43.314 3.73,44.59C3.706,44.903 3.706,45.217 3.73,45.53L1.86,45.53L1.86,42.09C1.86,42.082 1.86,42.073 1.86,42.065C1.86,41.363 2.438,40.785 3.14,40.785C3.177,40.785 3.213,40.787 3.25,40.79Z" style="fill:rgb(81,81,81);fill-rule:nonzero;"/>
                            <x:path d="M19.55,34.76C17.926,34.765 16.31,34.997 14.75,35.45L14.75,30.24C16.311,29.797 17.927,29.578 19.55,29.59C21.169,29.579 22.782,29.798 24.34,30.24L24.34,35.49C22.79,35.005 21.174,34.759 19.55,34.76Z" style="fill-rule:nonzero;"/>
                            <x:path d="M13.8,30.54L13.8,35.8C9,37.56 5.65,41.53 5.65,46.09C5.65,52 11.26,56 19.55,56C27.84,56 33.45,52 33.45,46.09C33.45,41.53 30.09,37.56 25.3,35.8L25.3,30.54C30.91,32.54 34.41,37.73 34.41,44.63C34.41,52.39 28.46,57.63 19.55,57.63C10.64,57.63 4.69,52.42 4.69,44.63C4.69,37.73 8.19,32.56 13.8,30.54Z" style="fill:rgb(81,81,81);fill-rule:nonzero;"/>
                            <x:path d="M1.81,46.4L3.81,46.4C3.901,47.126 4.045,47.845 4.24,48.55L3.24,48.55C3.21,48.552 3.179,48.553 3.149,48.553C2.43,48.553 1.83,47.978 1.8,47.26L1.81,46.4Z" style="fill:rgb(81,81,81);fill-rule:nonzero;"/>
                            <x:ellipse cx="36.08" cy="30.67" rx="1.2" ry="1.08" style="fill:rgb(81,81,81);"/>
                        </x:g>
                    </x:g>
                </x:g>
            </x:g>
        </x:g>
    </x:symbol>
    <x:symbol id="search" viewBox="0 0 24 24"><x:path fill="currentColor" d="M10.25 2a8.25 8.25 0 0 1 6.34 13.53l5.69 5.69a.749.749 0 0 1-.326 1.275.749.749 0 0 1-.734-.215l-5.69-5.69A8.25 8.25 0 1 1 10.25 2ZM3.5 10.25a6.75 6.75 0 1 0 13.5 0 6.75 6.75 0 0 0-13.5 0Z"/></x:symbol><x:symbol id="sort_desc_16" viewBox="0 0 16 16"><x:path fill="currentColor" d="M0 4.25a.75.75 0 0 1 .75-.75h7.5a.75.75 0 0 1 0 1.5H.75A.75.75 0 0 1 0 4.25Zm0 4a.75.75 0 0 1 .75-.75h4.5a.75.75 0 0 1 0 1.5H.75A.75.75 0 0 1 0 8.25Zm0 4a.75.75 0 0 1 .75-.75h2.5a.75.75 0 0 1 0 1.5H.75a.75.75 0 0 1-.75-.75ZM13.5 10h2.25a.25.25 0 0 1 .177.427l-3 3a.25.25 0 0 1-.354 0l-3-3A.25.25 0 0 1 9.75 10H12V3.75a.75.75 0 0 1 1.5 0V10Z"/></x:symbol><x:symbol id="upload_browser" viewBox="0 0 24 24">
        <x:g transform="matrix(1,0,0,-1,0,23)">
            <x:path fill="currentColor" d="M11.25,9.331L11.25,0.75C11.25,0.339 11.589,0 12,0C12.411,-0 12.75,0.339 12.75,0.75L12.75,9.33L14.699,7.22C14.841,7.053 15.05,6.957 15.27,6.957C15.681,6.957 16.02,7.295 16.02,7.707C16.02,7.906 15.941,8.096 15.8,8.237L12.55,11.757C12.408,11.911 12.208,11.998 11.999,11.998C11.79,11.998 11.59,11.911 11.448,11.757L8.198,8.237C8.063,8.097 7.987,7.91 7.987,7.715C7.987,7.304 8.325,6.965 8.737,6.965C8.952,6.965 9.158,7.058 9.3,7.22L11.249,9.331L11.25,9.331Z"/>
            <x:path fill="currentColor" d="M8.25,2L1.75,2C0.79,2 0,2.79 0,3.75L0,20.25C0,21.216 0.784,22 1.75,22L22.25,22C23.216,22 24,21.216 24,20.25L24,3.75C24,2.79 23.21,2 22.25,2L15.75,2C15.339,2 15,2.339 15,2.75C15,3.161 15.339,3.5 15.75,3.5L22.25,3.5C22.387,3.5 22.5,3.613 22.5,3.75L22.5,17L1.5,17L1.5,3.75C1.5,3.612 1.612,3.5 1.75,3.5L8.25,3.5C8.661,3.5 9,3.161 9,2.75C9,2.339 8.661,2 8.25,2ZM7,20.5L7,18.5L11,18.5L11,20.5L7,20.5ZM1.75,20.5C1.613,20.5 1.5,20.387 1.5,20.25L1.5,18.5L5.5,18.5L5.5,20.5L1.75,20.5ZM12.5,20.5L12.5,18.5L22.5,18.5L22.5,20.25C22.5,20.387 22.387,20.5 22.25,20.5L12.5,20.5Z"/>
        </x:g>
    </x:symbol>
    <x:symbol id="github" viewBox="0 0 24 24"><x:path d="M12,2A10,10 0 0,0 2,12C2,16.42 4.87,20.17 8.84,21.5C9.34,21.58 9.5,21.27 9.5,21C9.5,20.77 9.5,20.14 9.5,19.31C6.73,19.91 6.14,17.97 6.14,17.97C5.68,16.81 5.03,16.5 5.03,16.5C4.12,15.88 5.1,15.9 5.1,15.9C6.1,15.97 6.63,16.93 6.63,16.93C7.5,18.45 8.97,18 9.54,17.76C9.63,17.11 9.89,16.67 10.17,16.42C7.95,16.17 5.62,15.31 5.62,11.5C5.62,10.39 6,9.5 6.65,8.79C6.55,8.54 6.2,7.5 6.75,6.15C6.75,6.15 7.59,5.88 9.5,7.17C10.29,6.95 11.15,6.84 12,6.84C12.85,6.84 13.71,6.95 14.5,7.17C16.41,5.88 17.25,6.15 17.25,6.15C17.8,7.5 17.45,8.54 17.35,8.79C18,9.5 18.38,10.39 18.38,11.5C18.38,15.32 16.04,16.16 13.81,16.41C14.17,16.72 14.5,17.33 14.5,18.26C14.5,19.6 14.5,20.68 14.5,21C14.5,21.27 14.66,21.59 15.17,21.5C19.14,20.16 22,16.42 22,12A10,10 0 0,0 12,2Z" fill="currentcolor"/></x:symbol><x:symbol id="rocket_circle_16" viewBox="0 0 16 16"><x:path fill="currentColor" d="M8 16A8 8 0 1 1 8 0a8 8 0 0 1 0 16Zm3.031-12a4.38 4.38 0 0 0-3.097 1.283l-.23.229c-.156.157-.308.32-.452.49H5.65a.876.876 0 0 0-.746.417l-.856 1.388a.377.377 0 0 0 .21.556l1.552.477 1.35 1.35.478 1.553a.374.374 0 0 0 .555.21l1.389-.855a.876.876 0 0 0 .416-.746V8.747c.17-.144.333-.295.49-.452l.23-.23A4.379 4.379 0 0 0 12 4.969v-.093A.876.876 0 0 0 11.124 4Zm-5.107 7.144h-.001a.809.809 0 0 0-1.33-.881c-.395.394-.564 1.258-.62 1.62a.12.12 0 0 0 .035.108.12.12 0 0 0 .108.035c.362-.056 1.226-.225 1.62-.619a.803.803 0 0 0 .188-.263Z"/></x:symbol><x:symbol id="tag" viewBox="0 0 24 24"><x:path fill="currentColor" d="M7.75 6.5a1.25 1.25 0 1 0 0 2.5 1.25 1.25 0 0 0 0-2.5Z"/><x:path fill="currentColor" d="M2.5 1h8.44a1.5 1.5 0 0 1 1.06.44l10.25 10.25a1.5 1.5 0 0 1 0 2.12l-8.44 8.44a1.5 1.5 0 0 1-2.12 0L1.44 12A1.497 1.497 0 0 1 1 10.94V2.5A1.5 1.5 0 0 1 2.5 1Zm0 1.5v8.44l10.25 10.25 8.44-8.44L10.94 2.5Z"/></x:symbol><x:symbol id="database" viewBox="0 0 24 24"><x:path fill="currentColor" d="M12 1.25c2.487 0 4.773.402 6.466 1.079.844.337 1.577.758 2.112 1.264.536.507.922 1.151.922 1.907v12.987l-.026.013h.026c0 .756-.386 1.4-.922 1.907-.535.506-1.268.927-2.112 1.264-1.693.677-3.979 1.079-6.466 1.079s-4.774-.402-6.466-1.079c-.844-.337-1.577-.758-2.112-1.264C2.886 19.9 2.5 19.256 2.5 18.5h.026l-.026-.013V5.5c0-.756.386-1.4.922-1.907.535-.506 1.268-.927 2.112-1.264C7.226 1.652 9.513 1.25 12 1.25ZM4 14.371v4.116l-.013.013H4c0 .211.103.487.453.817.351.332.898.666 1.638.962 1.475.589 3.564.971 5.909.971 2.345 0 4.434-.381 5.909-.971.739-.296 1.288-.63 1.638-.962.349-.33.453-.607.453-.817h.013L20 18.487v-4.116a7.85 7.85 0 0 1-1.534.8c-1.693.677-3.979 1.079-6.466 1.079s-4.774-.402-6.466-1.079a7.843 7.843 0 0 1-1.534-.8ZM20 12V7.871a7.85 7.85 0 0 1-1.534.8C16.773 9.348 14.487 9.75 12 9.75s-4.774-.402-6.466-1.079A7.85 7.85 0 0 1 4 7.871V12c0 .21.104.487.453.817.35.332.899.666 1.638.961 1.475.59 3.564.972 5.909.972 2.345 0 4.434-.382 5.909-.972.74-.295 1.287-.629 1.638-.96.35-.33.453-.607.453-.818ZM4 5.5c0 .211.103.487.453.817.351.332.898.666 1.638.962 1.475.589 3.564.971 5.909.971 2.345 0 4.434-.381 5.909-.971.739-.296 1.288-.63 1.638-.962.349-.33.453-.607.453-.817 0-.211-.103-.487-.453-.817-.351-.332-.898-.666-1.638-.962-1.475-.589-3.564-.971-5.909-.971-2.345 0-4.434.381-5.909.971-.739.296-1.288.63-1.638.962C4.104 5.013 4 5.29 4 5.5Z"/></x:symbol><x:symbol id="graph_minus" viewBox="0 0 32 5"><x:path fill="currentColor" d="M0 0h32v4.2H0z"/></x:symbol><x:symbol id="cloud_offline" viewBox="0 0 24 24"><x:path fill="currentColor" d="m2.78 2.22 19.5 19.5a.749.749 0 0 1-.326 1.275.749.749 0 0 1-.734-.215l-2.845-2.845a6.932 6.932 0 0 1-.944.065H5.017C2.229 20 0 17.831 0 15.059a4.899 4.899 0 0 1 3.111-4.58A7.52 7.52 0 0 1 4.36 5.922L1.72 3.28a.751.751 0 0 1 .018-1.042.751.751 0 0 1 1.042-.018ZM16.94 18.5 5.448 7.01a6.026 6.026 0 0 0-.794 3.853.75.75 0 0 1-.552.869c-1.52.385-2.603 1.712-2.603 3.328 0 1.917 1.532 3.44 3.517 3.44Zm-6.104-16a7.865 7.865 0 0 0-3.638.88.75.75 0 1 0 .692 1.331A6.365 6.365 0 0 1 10.836 4c2.588 0 4.77 1.5 5.72 3.655l.179.445a.75.75 0 0 0 .696.471c2.843 0 5.069 2.206 5.069 4.965a4.9 4.9 0 0 1-1.684 3.716.75.75 0 0 0 .986 1.13A6.396 6.396 0 0 0 24 13.536c0-3.44-2.652-6.191-6.054-6.445l-.002-.006a.634.634 0 0 0-.01-.022C16.749 4.358 14.026 2.5 10.837 2.5Z"/></x:symbol><x:symbol id="file" viewBox="0 0 24 24"><x:path fill="currentColor" d="M3 3a2 2 0 0 1 2-2h9.982a2 2 0 0 1 1.414.586l4.018 4.018A2 2 0 0 1 21 7.018V21a2 2 0 0 1-2 2H5a2 2 0 0 1-2-2Zm2-.5a.5.5 0 0 0-.5.5v18a.5.5 0 0 0 .5.5h14a.5.5 0 0 0 .5-.5V8.5h-4a2 2 0 0 1-2-2v-4Zm10 0v4a.5.5 0 0 0 .5.5h4a.5.5 0 0 0-.146-.336l-4.018-4.018A.5.5 0 0 0 15 2.5Z"/></x:symbol><x:symbol id="alert_fill" viewBox="0 0 24 24"><x:path fill="currentColor" d="M9.836 3.244c.963-1.665 3.365-1.665 4.328 0l8.967 15.504c.963 1.667-.24 3.752-2.165 3.752H3.034c-1.926 0-3.128-2.085-2.165-3.752ZM12 8.5a.75.75 0 0 0-.75.75v4.5a.75.75 0 0 0 1.5 0v-4.5A.75.75 0 0 0 12 8.5Zm1 9a1 1 0 1 0-2 0 1 1 0 0 0 2 0Z"/></x:symbol><x:symbol id="sort_asc_16" viewBox="0 0 16 16"><x:path fill="currentColor" d="m12.927 2.573 3 3A.25.25 0 0 1 15.75 6H13.5v6.75a.75.75 0 0 1-1.5 0V6H9.75a.25.25 0 0 1-.177-.427l3-3a.25.25 0 0 1 .354 0ZM0 12.25a.75.75 0 0 1 .75-.75h7.5a.75.75 0 0 1 0 1.5H.75a.75.75 0 0 1-.75-.75Zm0-4a.75.75 0 0 1 .75-.75h4.5a.75.75 0 0 1 0 1.5H.75A.75.75 0 0 1 0 8.25Zm0-4a.75.75 0 0 1 .75-.75h2.5a.75.75 0 0 1 0 1.5H.75A.75.75 0 0 1 0 4.25Z"/></x:symbol><x:symbol id="x" viewBox="0 0 24 24"><x:path fill="currentColor" d="M5.72 5.72a.75.75 0 0 1 1.06 0L12 10.94l5.22-5.22a.749.749 0 0 1 1.275.326.749.749 0 0 1-.215.734L13.06 12l5.22 5.22a.749.749 0 0 1-.326 1.275.749.749 0 0 1-.734-.215L12 13.06l-5.22 5.22a.751.751 0 0 1-1.042-.018.751.751 0 0 1-.018-1.042L10.94 12 5.72 6.78a.75.75 0 0 1 0-1.06Z"/></x:symbol><x:symbol id="shell" viewBox="0 0 24 24"><x:g fill="currentcolor" fillRule="nonzero"><x:polygon points="0 0 3.03703704 5 0 10 3 10 6 5 3 0"/><x:polygon points="9 8 9 10 18 10 18 8"/></x:g></x:symbol><x:symbol id="package" viewBox="0 0 24 24"><x:path fill="currentColor" d="M12.876.64V.639l8.25 4.763c.541.313.875.89.875 1.515v9.525a1.75 1.75 0 0 1-.875 1.516l-8.25 4.762a1.748 1.748 0 0 1-1.75 0l-8.25-4.763a1.75 1.75 0 0 1-.875-1.515V6.917c0-.625.334-1.202.875-1.515L11.126.64a1.748 1.748 0 0 1 1.75 0Zm-1 1.298L4.251 6.34l7.75 4.474 7.75-4.474-7.625-4.402a.248.248 0 0 0-.25 0Zm.875 19.123 7.625-4.402a.25.25 0 0 0 .125-.216V7.639l-7.75 4.474ZM3.501 7.64v8.803c0 .09.048.172.125.216l7.625 4.402v-8.947Z"/></x:symbol><x:symbol id="beaker" viewBox="0 0 24 24"><x:path fill="currentColor" d="M8 8.807V3.5h-.563a.75.75 0 0 1 0-1.5h9.125a.75.75 0 0 1 0 1.5H16v5.307l5.125 9.301c.964 1.75-.302 3.892-2.299 3.892H5.174c-1.998 0-3.263-2.142-2.3-3.892ZM4.189 18.832a1.123 1.123 0 0 0 .985 1.668h13.652a1.123 1.123 0 0 0 .985-1.668L17.7 15H6.3ZM14.5 3.5h-5V9a.75.75 0 0 1-.093.362L7.127 13.5h9.746l-2.28-4.138A.75.75 0 0 1 14.5 9Z"/></x:symbol><x:symbol id="circle_slash" viewBox="0 0 24 24"><x:path fill="currentColor" d="M12 1c6.075 0 11 4.925 11 11s-4.925 11-11 11S1 18.075 1 12 5.925 1 12 1ZM5.834 19.227A9.464 9.464 0 0 0 12 21.5a9.5 9.5 0 0 0 9.5-9.5 9.464 9.464 0 0 0-2.273-6.166ZM2.5 12a9.464 9.464 0 0 0 2.273 6.166L18.166 4.773A9.463 9.463 0 0 0 12 2.5 9.5 9.5 0 0 0 2.5 12Z"/></x:symbol><x:symbol id="settings" viewBox="0 0 16 16"><x:path fill="currentColor" d="M8 0a8.2 8.2 0 0 1 .701.031C9.444.095 9.99.645 10.16 1.29l.288 1.107c.018.066.079.158.212.224.231.114.454.243.668.386.123.082.233.09.299.071l1.103-.303c.644-.176 1.392.021 1.82.63.27.385.506.792.704 1.218.315.675.111 1.422-.364 1.891l-.814.806c-.049.048-.098.147-.088.294.016.257.016.515 0 .772-.01.147.038.246.088.294l.814.806c.475.469.679 1.216.364 1.891a7.977 7.977 0 0 1-.704 1.217c-.428.61-1.176.807-1.82.63l-1.102-.302c-.067-.019-.177-.011-.3.071a5.909 5.909 0 0 1-.668.386c-.133.066-.194.158-.211.224l-.29 1.106c-.168.646-.715 1.196-1.458 1.26a8.006 8.006 0 0 1-1.402 0c-.743-.064-1.289-.614-1.458-1.26l-.289-1.106c-.018-.066-.079-.158-.212-.224a5.738 5.738 0 0 1-.668-.386c-.123-.082-.233-.09-.299-.071l-1.103.303c-.644.176-1.392-.021-1.82-.63a8.12 8.12 0 0 1-.704-1.218c-.315-.675-.111-1.422.363-1.891l.815-.806c.05-.048.098-.147.088-.294a6.214 6.214 0 0 1 0-.772c.01-.147-.038-.246-.088-.294l-.815-.806C.635 6.045.431 5.298.746 4.623a7.92 7.92 0 0 1 .704-1.217c.428-.61 1.176-.807 1.82-.63l1.102.302c.067.019.177.011.3-.071.214-.143.437-.272.668-.386.133-.066.194-.158.211-.224l.29-1.106C6.009.645 6.556.095 7.299.03 7.53.01 7.764 0 8 0Zm-.571 1.525c-.036.003-.108.036-.137.146l-.289 1.105c-.147.561-.549.967-.998 1.189-.173.086-.34.183-.5.29-.417.278-.97.423-1.529.27l-1.103-.303c-.109-.03-.175.016-.195.045-.22.312-.412.644-.573.99-.014.031-.021.11.059.19l.815.806c.411.406.562.957.53 1.456a4.709 4.709 0 0 0 0 .582c.032.499-.119 1.05-.53 1.456l-.815.806c-.081.08-.073.159-.059.19.162.346.353.677.573.989.02.03.085.076.195.046l1.102-.303c.56-.153 1.113-.008 1.53.27.161.107.328.204.501.29.447.222.85.629.997 1.189l.289 1.105c.029.109.101.143.137.146a6.6 6.6 0 0 0 1.142 0c.036-.003.108-.036.137-.146l.289-1.105c.147-.561.549-.967.998-1.189.173-.086.34-.183.5-.29.417-.278.97-.423 1.529-.27l1.103.303c.109.029.175-.016.195-.045.22-.313.411-.644.573-.99.014-.031.021-.11-.059-.19l-.815-.806c-.411-.406-.562-.957-.53-1.456a4.709 4.709 0 0 0 0-.582c-.032-.499.119-1.05.53-1.456l.815-.806c.081-.08.073-.159.059-.19a6.464 6.464 0 0 0-.573-.989c-.02-.03-.085-.076-.195-.046l-1.102.303c-.56.153-1.113.008-1.53-.27a4.44 4.44 0 0 0-.501-.29c-.447-.222-.85-.629-.997-1.189l-.289-1.105c-.029-.11-.101-.143-.137-.146a6.6 6.6 0 0 0-1.142 0ZM11 8a3 3 0 1 1-6 0 3 3 0 0 1 6 0ZM9.5 8a1.5 1.5 0 1 0-3.001.001A1.5 1.5 0 0 0 9.5 8Z"/></x:symbol><x:symbol id="download" viewBox="0 0 24 24"><x:path fill="currentColor" d="M4.75 17.25a.75.75 0 0 1 .75.75v2.25c0 .138.112.25.25.25h12.5a.25.25 0 0 0 .25-.25V18a.75.75 0 0 1 1.5 0v2.25A1.75 1.75 0 0 1 18.25 22H5.75A1.75 1.75 0 0 1 4 20.25V18a.75.75 0 0 1 .75-.75Z"/><x:path fill="currentColor" d="M5.22 9.97a.749.749 0 0 1 1.06 0l4.97 4.969V2.75a.75.75 0 0 1 1.5 0v12.189l4.97-4.969a.749.749 0 1 1 1.06 1.06l-6.25 6.25a.749.749 0 0 1-1.06 0l-6.25-6.25a.749.749 0 0 1 0-1.06Z"/></x:symbol><x:symbol id="plug" viewBox="0 0 24 24"><x:path fill="currentColor" d="M7 11.5H2.938c-.794 0-1.438.644-1.438 1.437v8.313a.75.75 0 0 1-1.5 0v-8.312A2.939 2.939 0 0 1 2.937 10H7V6.151c0-.897.678-1.648 1.57-1.74l6.055-.626 1.006-1.174A1.752 1.752 0 0 1 16.96 2h1.29c.966 0 1.75.784 1.75 1.75V6h3.25a.75.75 0 0 1 0 1.5H20V14h3.25a.75.75 0 0 1 0 1.5H20v2.25a1.75 1.75 0 0 1-1.75 1.75h-1.29a1.75 1.75 0 0 1-1.329-.611l-1.006-1.174-6.055-.627A1.749 1.749 0 0 1 7 15.348Zm9.77-7.913v.001l-1.201 1.4a.75.75 0 0 1-.492.258l-6.353.657a.25.25 0 0 0-.224.249v9.196a.25.25 0 0 0 .224.249l6.353.657c.191.02.368.112.493.258l1.2 1.401a.252.252 0 0 0 .19.087h1.29a.25.25 0 0 0 .25-.25v-14a.25.25 0 0 0-.25-.25h-1.29a.252.252 0 0 0-.19.087Z"/></x:symbol><x:symbol id="code" viewBox="0 0 24 24"><x:path d="M14.6,16.6L19.2,12L14.6,7.4L16,6L22,12L16,18L14.6,16.6M9.4,16.6L4.8,12L9.4,7.4L8,6L2,12L8,18L9.4,16.6Z" fill="currentcolor"/></x:symbol><x:symbol id="kebab_horizontal" viewBox="0 0 16 16"><x:path fill="currentColor" d="M8 9a1.5 1.5 0 1 0 0-3 1.5 1.5 0 0 0 0 3ZM1.5 9a1.5 1.5 0 1 0 0-3 1.5 1.5 0 0 0 0 3Zm13 0a1.5 1.5 0 1 0 0-3 1.5 1.5 0 0 0 0 3Z"/></x:symbol><x:symbol id="package_cut_24" viewBox="0 0 24 24"><x:path fill="currentColor" d="M21.995,6.775L12.751,12.113L12.751,18.255L12.751,22.786C12.235,23.031 11.626,23.009 11.126,22.72L2.876,17.957C2.335,17.645 2.001,17.066 2.001,16.442L2.001,6.917C2.001,6.292 2.335,5.715 2.876,5.402L11.126,0.64C11.667,0.327 12.335,0.327 12.876,0.64L21.126,5.402C21.626,5.691 21.949,6.206 21.995,6.775ZM11.876,1.938L4.251,6.34L12.001,10.814L19.751,6.34L12.126,1.938C12.049,1.893 11.953,1.893 11.876,1.938ZM3.501,7.64L3.501,16.443C3.501,16.533 3.549,16.615 3.626,16.659L11.251,21.061L11.251,12.114L3.501,7.64Z"/></x:symbol><x:symbol id="info" viewBox="0 0 24 24"><x:path fill="currentColor" d="M13,9H11V7H13M13,17H11V11H13M12,2A10,10 0 0,0 2,12A10,10 0 0,0 12,22A10,10 0 0,0 22,12A10,10 0 0,0 12,2Z"/></x:symbol><x:symbol id="refresh" viewBox="0 0 16 16"><x:path d="M0.5,8C0.5,3.611 4.111,0 8.5,0C12.889,-0 16.5,3.611 16.5,8C16.5,12.389 12.889,16 8.5,16C4.111,16 0.5,12.389 0.5,8ZM3.927,3.677C3.88,3.63 3.816,3.604 3.75,3.604C3.613,3.604 3.5,3.716 3.5,3.854C3.5,3.854 3.5,6 3.5,6C3.5,6.138 3.612,6.25 3.75,6.25C3.75,6.25 5.896,6.25 5.896,6.25C6.034,6.25 6.146,6.137 6.146,6C6.146,5.934 6.12,5.87 6.073,5.823L5.549,5.299C6.307,4.473 7.378,4.002 8.499,4.002C10.376,4.002 12.013,5.322 12.411,7.157C12.485,7.502 12.792,7.75 13.145,7.75C13.556,7.75 13.895,7.412 13.895,7C13.895,6.947 13.889,6.895 13.878,6.843C13.333,4.319 11.082,2.501 8.5,2.501C6.981,2.501 5.528,3.13 4.488,4.238L3.927,3.677ZM13.5,12.146C13.5,12.146 13.5,10 13.5,10C13.5,9.863 13.387,9.75 13.25,9.75C13.25,9.75 11.104,9.75 11.104,9.75C10.966,9.75 10.854,9.863 10.854,10C10.854,10.066 10.88,10.13 10.927,10.177L11.451,10.701C10.693,11.528 9.622,11.999 8.501,11.999C6.623,11.999 4.986,10.678 4.589,8.843C4.515,8.498 4.208,8.25 3.856,8.25C3.444,8.25 3.105,8.588 3.105,9C3.105,9.053 3.111,9.105 3.122,9.157C3.667,11.681 5.918,13.499 8.5,13.499C10.019,13.499 11.472,12.87 12.512,11.762L13.073,12.323C13.12,12.37 13.184,12.396 13.25,12.396C13.387,12.396 13.5,12.284 13.5,12.146Z" fill="currentColor"/></x:symbol><x:symbol id="info_circle" viewBox="0 0 24 24"><x:path fill="currentColor" d="M13 7.5a1 1 0 1 1-2 0 1 1 0 0 1 2 0Zm-3 3.75a.75.75 0 0 1 .75-.75h1.5a.75.75 0 0 1 .75.75v4.25h.75a.75.75 0 0 1 0 1.5h-3a.75.75 0 0 1 0-1.5h.75V12h-.75a.75.75 0 0 1-.75-.75Z"/><x:path fill="currentColor" d="M12 1c6.075 0 11 4.925 11 11s-4.925 11-11 11S1 18.075 1 12 5.925 1 12 1ZM2.5 12a9.5 9.5 0 0 0 9.5 9.5 9.5 9.5 0 0 0 9.5-9.5A9.5 9.5 0 0 0 12 2.5 9.5 9.5 0 0 0 2.5 12Z"/></x:symbol><x:symbol id="folder_fill" viewBox="0 0 24 24"><x:path fill="currentColor" d="M2 4.75C2 3.784 2.784 3 3.75 3h4.971c.58 0 1.12.286 1.447.765l1.404 2.063c.046.069.124.11.207.11h8.471c.966 0 1.75.783 1.75 1.75V19.25A1.75 1.75 0 0 1 20.25 21H3.75A1.75 1.75 0 0 1 2 19.25Z"/></x:symbol><x:symbol id="plan" viewBox="0 0 20 16"><x:g transform="matrix(0.649504,0,0,0.658017,-0.141347,0.160348)"><x:g transform="matrix(1.53964,0,0,1.51972,-2.86165,-6.32255)"><x:path d="M8,5C8,4.448 8.453,4 8.997,4L15.003,4C15.554,4 16,4.444 16,5L16,8C16,8.552 15.547,9 15.003,9L8.997,9C8.446,9 8,8.556 8,8L8,5ZM2,16C2,15.448 2.453,15 2.997,15L9.003,15C9.554,15 10,15.444 10,16L10,19C10,19.552 9.547,20 9.003,20L2.997,20C2.446,20 2,19.556 2,19L2,16ZM14,16C14,15.448 14.453,15 14.997,15L21.003,15C21.554,15 22,15.444 22,16L22,19C22,19.552 21.547,20 21.003,20L14.997,20C14.446,20 14,19.556 14,19L14,16ZM11,13L6,13L6,14.019L5,14.019L5,12L10,12L10,9.997L11,9.997L11,13ZM14,9.997L14,12L19,12L19,14.019L18,14.019L18,13L13,13L13,9.997L14,9.997Z" style="fill-rule:nonzero;" fill="currentcolor"/></x:g></x:g></x:symbol><x:symbol id="table" viewBox="0 0 16 16"><x:path fill="currentColor" d="M0 1.75C0 .784.784 0 1.75 0h12.5C15.216 0 16 .784 16 1.75v12.5A1.75 1.75 0 0 1 14.25 16H1.75A1.75 1.75 0 0 1 0 14.25ZM6.5 6.5v8h7.75a.25.25 0 0 0 .25-.25V6.5Zm8-1.5V1.75a.25.25 0 0 0-.25-.25H6.5V5Zm-13 1.5v7.75c0 .138.112.25.25.25H5v-8ZM5 5V1.5H1.75a.25.25 0 0 0-.25.25V5Z"/></x:symbol><x:symbol id="package_cut_16" viewBox="0 0 16 16"><x:path fill="currentColor" d="M14.995,4.817L8.75,8.432L8.751,15.675C8.233,15.921 7.623,15.898 7.122,15.608L1.872,12.563C1.333,12.25 1,11.672 1,11.049L1,4.951C1,4.327 1.332,3.75 1.872,3.437L7.122,0.392C7.664,0.077 8.336,0.077 8.878,0.392L14.128,3.437C14.629,3.728 14.951,4.246 14.995,4.817ZM2.5,5.677L2.5,11.049C2.5,11.139 2.547,11.22 2.625,11.265L7.25,13.948L7.25,8.432L2.5,5.677ZM7.875,1.69L3.245,4.375L8,7.133L12.755,4.375L8.125,1.69C8.048,1.645 7.952,1.645 7.875,1.69Z"/></x:symbol><x:symbol id="tables_connected" viewBox="0 0 24 24">
        <x:g id="Artboard1" transform="matrix(-0.880121,0,0,0.985328,24,0)" fill="currentColor">
            <x:rect x="0" y="0" width="27.269" height="24.357" style="fill:none;"/>
            <x:g transform="matrix(1.11954,0,0,1,-1.62981,-1.80281e-15)">
                <x:g transform="matrix(1.01489,0,0,1.01489,0,0)">
                    <x:path d="M12,7.273L12,9.227C12,9.653 11.653,10 11.227,10L2.773,10C2.347,10 2,9.653 2,9.227L2,2.773C2,2.347 2.347,2 2.773,2L11.227,2C11.653,2 12,2.347 12,2.773L12,4.525L11,3.583L11,3L7,3L7,9L11,9L11,6.331L12,7.273Z"/>
                </x:g>
                <x:g transform="matrix(0.494064,0,0,0.923665,5.21222,0.0589331)">
                    <x:rect x="3.83" y="4.057" width="6.676" height="1.099"/>
                </x:g>
                <x:g transform="matrix(0.494064,0,0,0.923665,5.21222,1.83499)">
                    <x:rect x="3.83" y="4.057" width="6.676" height="1.099"/>
                </x:g>
                <x:g transform="matrix(0.494064,0,0,0.923665,5.21222,3.61105)">
                    <x:rect x="3.83" y="4.057" width="6.676" height="1.099"/>
                </x:g>
            </x:g>
            <x:g transform="matrix(1.11954,0,0,1,12.9919,6.08934)">
                <x:g transform="matrix(1.01489,0,0,1.01489,-13.0605,-6.08934)">
                    <x:path d="M14.869,12.275L14.869,9.975L15.869,10.917L15.869,11.333L14.869,12.275ZM15.869,14.08L15.869,15L19.869,15L19.869,9L16.75,9L15.689,8L24.096,8C24.522,8 24.869,8.347 24.869,8.773L24.869,15.227C24.869,15.653 24.522,16 24.096,16L15.642,16C15.215,16 14.869,15.653 14.869,15.227L14.869,15.023L15.869,14.08Z"/>
                </x:g>
                <x:g transform="matrix(0.494064,0,0,0.923665,1.91382,0.0589331)">
                    <x:rect x="3.83" y="4.057" width="6.676" height="1.099"/>
                </x:g>
                <x:g transform="matrix(0.494064,0,0,0.923665,1.91382,1.83499)">
                    <x:rect x="3.83" y="4.057" width="6.676" height="1.099"/>
                </x:g>
                <x:g transform="matrix(0.494064,0,0,0.923665,1.91382,3.61105)">
                    <x:rect x="3.83" y="4.057" width="6.676" height="1.099"/>
                </x:g>
            </x:g>
            <x:g transform="matrix(1.11954,0,0,1,-1.62981,12.1787)">
                <x:g transform="matrix(1.01489,0,0,1.01489,-1.77636e-15,-12.1787)">
                    <x:path d="M12,17.725L12,21.227C12,21.653 11.653,22 11.227,22L2.773,22C2.347,22 2,21.653 2,21.227L2,14.773C2,14.347 2.347,14 2.773,14L11.227,14C11.653,14 12,14.347 12,14.773L12,14.977L11,15.919L11,15L7,15L7,21L11,21L11,18.667L12,17.725Z"/>
                </x:g>
                <x:g transform="matrix(0.988127,0,0,0.923665,0.021801,0.0589331)">
                    <x:rect x="3.83" y="4.057" width="6.676" height="1.099"/>
                </x:g>
                <x:g transform="matrix(0.988127,0,0,0.923665,0.021801,1.83499)">
                    <x:rect x="3.83" y="4.057" width="6.676" height="1.099"/>
                </x:g>
                <x:g transform="matrix(0.988127,0,0,0.923665,0.021801,3.61105)">
                    <x:rect x="3.83" y="4.057" width="6.676" height="1.099"/>
                </x:g>
                <x:g transform="matrix(0.494064,0,0,0.923665,5.21222,0.0589331)">
                    <x:rect x="3.83" y="4.057" width="6.676" height="1.099"/>
                </x:g>
                <x:g transform="matrix(0.494064,0,0,0.923665,5.21222,1.83499)">
                    <x:rect x="3.83" y="4.057" width="6.676" height="1.099"/>
                </x:g>
                <x:g transform="matrix(0.494064,0,0,0.923665,5.21222,3.61105)">
                    <x:rect x="3.83" y="4.057" width="6.676" height="1.099"/>
                </x:g>
            </x:g>
            <x:g transform="matrix(1.13621,0,0,1.01489,-1.62981,-1.80281e-15)">
                <x:path d="M10.25,4.25L16.619,10.25" style="fill:none;stroke:currentColor;stroke-width:1px;"/>
            </x:g>
            <x:g transform="matrix(1.13621,0,0,1.01489,-1.62981,-1.80281e-15)">
                <x:path d="M16.619,12L10.25,18" style="fill:none;stroke:currentColor;stroke-width:1px;"/>
            </x:g>
        </x:g>
    </x:symbol>
    <x:symbol id="graph_plus" viewBox="0 0 32 32"><x:path fill="currentColor" d="M32 18.133H18.133V32h-4.266V18.133H0v-4.266h13.867V0h4.266v13.867H32z"/></x:symbol><x:symbol id="download_desktop" viewBox="0 0 24 24"><x:path fill="currentColor" d="M11.25 9.331V.75a.75.75 0 0 1 1.5 0v8.58l1.949-2.11A.75.75 0 1 1 15.8 8.237l-3.25 3.52a.75.75 0 0 1-1.102 0l-3.25-3.52A.75.75 0 1 1 9.3 7.22l1.949 2.111Z"/><x:path fill="currentColor" d="M2.5 3.75v11.5c0 .138.112.25.25.25h18.5a.25.25 0 0 0 .25-.25V3.75a.25.25 0 0 0-.25-.25h-5.5a.75.75 0 0 1 0-1.5h5.5c.966 0 1.75.784 1.75 1.75v11.5A1.75 1.75 0 0 1 21.25 17h-6.204c.171 1.375.805 2.652 1.769 3.757A.752.752 0 0 1 16.25 22h-8.5a.75.75 0 0 1-.566-1.243c.965-1.105 1.599-2.382 1.77-3.757H2.75A1.75 1.75 0 0 1 1 15.25V3.75C1 2.784 1.784 2 2.75 2h5.5a.75.75 0 0 1 0 1.5h-5.5a.25.25 0 0 0-.25.25ZM10.463 17c-.126 1.266-.564 2.445-1.223 3.5h5.52c-.66-1.055-1.098-2.234-1.223-3.5Z"/></x:symbol><x:symbol id="log" viewBox="0 0 24 24"><x:path fill="currentColor" d="M9.197 10a.75.75 0 0 0 0 1.5h6.5a.75.75 0 0 0 0-1.5h-6.5Zm-2.382 4a.75.75 0 0 0 0 1.5h6.5a.75.75 0 0 0 0-1.5h-6.5Zm-1.581 4a.75.75 0 0 0 0 1.5h6.5a.75.75 0 0 0 0-1.5h-6.5Z"/><x:path fill="currentColor" d="M4.125 0h15.75a4.11 4.11 0 0 1 2.92 1.205A4.11 4.11 0 0 1 24 4.125c0 1.384-.476 2.794-1.128 4.16-.652 1.365-1.515 2.757-2.352 4.104l-.008.013c-.849 1.368-1.669 2.691-2.28 3.97-.614 1.283-.982 2.45-.982 3.503a2.625 2.625 0 1 0 4.083-2.183.75.75 0 1 1 .834-1.247A4.126 4.126 0 0 1 19.875 24H4.5a4.125 4.125 0 0 1-4.125-4.125c0-2.234 1.258-4.656 2.59-6.902.348-.586.702-1.162 1.05-1.728.8-1.304 1.567-2.553 2.144-3.738H3.39c-.823 0-1.886-.193-2.567-1.035A3.647 3.647 0 0 1 0 4.125 4.125 4.125 0 0 1 4.125 0ZM15.75 19.875c0-1.38.476-2.786 1.128-4.15.649-1.358 1.509-2.743 2.343-4.086l.017-.028c.849-1.367 1.669-2.692 2.28-3.972.614-1.285.982-2.457.982-3.514A2.615 2.615 0 0 0 19.875 1.5a2.625 2.625 0 0 0-2.625 2.625c0 .865.421 1.509 1.167 2.009A.75.75 0 0 1 18 7.507H7.812c-.65 1.483-1.624 3.069-2.577 4.619-.334.544-.666 1.083-.98 1.612-1.355 2.287-2.38 4.371-2.38 6.137A2.625 2.625 0 0 0 4.5 22.5h12.193a4.108 4.108 0 0 1-.943-2.625ZM1.5 4.125c-.01.511.163 1.008.487 1.403.254.313.74.479 1.402.479h12.86a3.648 3.648 0 0 1-.499-1.882 4.11 4.11 0 0 1 .943-2.625H4.125A2.625 2.625 0 0 0 1.5 4.125Z"/></x:symbol><x:symbol id="alert_fill_12" viewBox="0 0 12 12"><x:path fill="currentColor" d="M4.855.708c.5-.896 1.79-.896 2.29 0l4.675 8.351a1.312 1.312 0 0 1-1.146 1.954H1.33A1.313 1.313 0 0 1 .183 9.058ZM7 7V3H5v4Zm-1 3a1 1 0 1 0 0-2 1 1 0 0 0 0 2Z"/></x:symbol><x:symbol id="rows" viewBox="0 0 24 24"><x:path fill="currentColor" d="M22 3.75v5.5A1.75 1.75 0 0 1 20.25 11H3.75A1.75 1.75 0 0 1 2 9.25v-5.5C2 2.784 2.784 2 3.75 2h16.5c.966 0 1.75.784 1.75 1.75Zm0 11v5.5A1.75 1.75 0 0 1 20.25 22H3.75A1.75 1.75 0 0 1 2 20.25v-5.5c0-.966.784-1.75 1.75-1.75h16.5c.966 0 1.75.784 1.75 1.75ZM20.25 3.5H3.75a.25.25 0 0 0-.25.25v5.5c0 .138.112.25.25.25h16.5a.25.25 0 0 0 .25-.25v-5.5a.25.25 0 0 0-.25-.25Zm0 11H3.75a.25.25 0 0 0-.25.25v5.5c0 .138.112.25.25.25h16.5a.25.25 0 0 0 .25-.25v-5.5a.25.25 0 0 0-.25-.25Z"/></x:symbol><x:symbol id="zap" viewBox="0 0 24 24"><x:path fill="currentColor" d="M15.716 1.329a1.341 1.341 0 0 1 2.109 1.55L15.147 9h4.161c1.623 0 2.372 2.016 1.143 3.075L8.102 22.721a1.148 1.148 0 0 1-1.81-1.317L8.996 15H4.674c-1.619 0-2.37-2.008-1.148-3.07l12.19-10.6Zm.452 1.595L4.51 13.061a.25.25 0 0 0 .164.439h5.45a.749.749 0 0 1 .692 1.041l-2.559 6.066 11.215-9.668a.25.25 0 0 0-.164-.439H14a.75.75 0 0 1-.687-1.05Z"/></x:symbol><x:symbol id="sort_desc_24" viewBox="0 0 24 24"><x:path fill="currentColor" d="M18.5 16.44V6.75a.75.75 0 0 0-1.5 0v9.69l-2.22-2.22a.75.75 0 1 0-1.06 1.06l3.5 3.5a.75.75 0 0 0 1.06 0l3.5-3.5a.75.75 0 1 0-1.06-1.06l-2.22 2.22ZM2 7.25a.75.75 0 0 1 .75-.75h9.5a.75.75 0 0 1 0 1.5h-9.5A.75.75 0 0 1 2 7.25Zm0 5a.75.75 0 0 1 .75-.75h5.5a.75.75 0 0 1 0 1.5h-5.5a.75.75 0 0 1-.75-.75Zm0 5a.75.75 0 0 1 .75-.75h3.5a.75.75 0 0 1 0 1.5h-3.5a.75.75 0 0 1-.75-.75Z"/></x:symbol><x:symbol id="sort_asc_24" viewBox="0 0 24 24"><x:path fill="currentColor" d="M18.5 17.25a.75.75 0 0 1-1.5 0V7.56l-2.22 2.22a.75.75 0 1 1-1.06-1.06l3.5-3.5a.75.75 0 0 1 1.06 0l3.5 3.5a.75.75 0 0 1-1.06 1.06L18.5 7.56v9.69Zm-15.75.25a.75.75 0 0 1 0-1.5h9.5a.75.75 0 0 1 0 1.5h-9.5Zm0-5a.75.75 0 0 1 0-1.5h5.5a.75.75 0 0 1 0 1.5h-5.5Zm0-5a.75.75 0 0 1 0-1.5h3.5a.75.75 0 0 1 0 1.5h-3.5Z"/></x:symbol><x:symbol id="cloud" viewBox="0 0 24 24"><x:path fill="currentColor" d="M3.103 10.107c0-4.244 3.445-7.607 7.733-7.607 3.19 0 5.912 1.858 7.099 4.563l.01.022.001.006C21.348 7.345 24 10.095 24 13.536 24 17.148 21.076 20 17.431 20H5.017C2.23 20 0 17.83 0 15.06a4.899 4.899 0 0 1 3.112-4.581 7.696 7.696 0 0 1-.009-.372ZM10.836 4c-3.485 0-6.233 2.717-6.233 6.107 0 .284.022.602.052.756a.75.75 0 0 1-.552.869c-1.52.385-2.603 1.712-2.603 3.328 0 1.917 1.532 3.44 3.517 3.44h12.414c2.843 0 5.069-2.206 5.069-4.964 0-2.759-2.226-4.965-5.069-4.965a.75.75 0 0 1-.696-.47l-.179-.446C15.606 5.5 13.424 4 10.836 4Z"/></x:symbol><x:symbol id="console" viewBox="0 0 24 24"><x:path d="M13,19V16H21V19H13M8.5,13L2.47,7H6.71L11.67,11.95C12.25,12.54 12.25,13.5 11.67,14.07L6.74,19H2.5L8.5,13Z" fill="currentcolor"/></x:symbol><x:symbol id="graph_align" viewBox="0 0 32 30"><x:path fill="currentColor" d="M3.692 4.63c0-.53.4-.938.939-.938h5.215V0H4.708C2.13 0 0 2.054 0 4.63v5.216h3.692V4.631zM27.354 0h-5.2v3.692h5.17c.53 0 .984.4.984.939v5.215H32V4.631A4.624 4.624 0 0027.354 0zm.954 24.83c0 .532-.4.94-.939.94h-5.215v3.768h5.215c2.577 0 4.631-2.13 4.631-4.707v-5.139h-3.692v5.139zm-23.677.94c-.531 0-.939-.4-.939-.94v-5.138H0v5.139c0 2.577 2.13 4.707 4.708 4.707h5.138V25.77H4.631z"/></x:symbol><x:symbol id="processor" viewBox="0 0 24 24"><x:g id="Artboard1" transform="matrix(0.0342333,0,0,0.0327011,-6.12419,-4.82029)"><x:g transform="matrix(1.02696,0,0,1.07508,2.70781,-36.5103)"><x:g transform="matrix(1,0,0,1,0.895762,0.404353)"><x:path d="M682.667,298.667C706.073,298.667 725.333,317.927 725.333,341.333L725.333,682.667C725.333,706.073 706.073,725.333 682.667,725.333L341.333,725.333C317.927,725.333 298.667,706.073 298.667,682.667L298.667,341.333C298.667,317.927 317.927,298.667 341.333,298.667L682.667,298.667M682.667,256L341.333,256C294.521,256 256,294.521 256,341.333L256,682.667C256,729.479 294.521,768 341.333,768L682.667,768C729.479,768 768,729.479 768,682.667L768,341.333C768,294.521 729.479,256 682.667,256Z" fill="currentColor"/></x:g><x:g transform="matrix(1,0,0,1,0.895762,0.404353)"><x:path d="M554.667,426.667C578.073,426.667 597.333,445.927 597.333,469.333L597.333,554.667C597.333,578.073 578.073,597.333 554.667,597.333L469.333,597.333C445.927,597.333 426.667,578.073 426.667,554.667L426.667,469.333C426.667,445.927 445.927,426.667 469.333,426.667L554.667,426.667M554.667,384L469.333,384C422.521,384 384,422.521 384,469.333L384,554.667C384,601.479 422.521,640 469.333,640L554.667,640C601.479,640 640,601.479 640,554.667L640,469.333C640,422.521 601.479,384 554.667,384ZM405.333,298.667C393.63,298.667 384,289.036 384,277.333L384,192C384,180.297 393.63,170.667 405.333,170.667C417.036,170.667 426.667,180.297 426.667,192L426.667,277.333C426.667,289.036 417.036,298.667 405.333,298.667L405.333,298.667ZM618.667,298.667C606.964,298.667 597.333,289.036 597.333,277.333L597.333,192C597.333,180.297 606.964,170.667 618.667,170.667C630.37,170.667 640,180.297 640,192L640,277.333C640,289.036 630.37,298.667 618.667,298.667ZM405.333,853.333C393.63,853.333 384,843.703 384,832L384,746.667C384,734.964 393.63,725.333 405.333,725.333C417.036,725.333 426.667,734.964 426.667,746.667L426.667,832C426.667,843.703 417.036,853.333 405.333,853.333L405.333,853.333ZM618.667,853.333C606.964,853.333 597.333,843.703 597.333,832L597.333,746.667C597.333,734.964 606.964,725.333 618.667,725.333C630.37,725.333 640,734.964 640,746.667L640,832C640,843.703 630.37,853.333 618.667,853.333ZM832,426.667L746.667,426.667C734.964,426.667 725.333,417.036 725.333,405.333C725.333,393.63 734.964,384 746.667,384L832,384C843.703,384 853.333,393.63 853.333,405.333C853.333,417.036 843.703,426.667 832,426.667ZM832,640L746.667,640C734.964,640 725.333,630.37 725.333,618.667C725.333,606.964 734.964,597.333 746.667,597.333L832,597.333C843.703,597.333 853.333,606.964 853.333,618.667C853.333,630.37 843.703,640 832,640ZM277.333,426.667L192,426.667C180.297,426.667 170.667,417.036 170.667,405.333C170.667,393.63 180.297,384 192,384L277.333,384C289.036,384 298.667,393.63 298.667,405.333C298.667,417.036 289.036,426.667 277.333,426.667ZM277.333,640L192,640C180.297,640 170.667,630.37 170.667,618.667C170.667,606.964 180.297,597.333 192,597.333L277.333,597.333C289.036,597.333 298.667,606.964 298.667,618.667C298.667,630.37 289.036,640 277.333,640Z" fill="currentColor"/></x:g></x:g></x:g></x:symbol><x:symbol id="x_circle_16" viewBox="0 0 16 16"><x:path fill="currentColor" d="M2.343 13.657A8 8 0 1 1 13.658 2.343 8 8 0 0 1 2.343 13.657ZM6.03 4.97a.751.751 0 0 0-1.042.018.751.751 0 0 0-.018 1.042L6.94 8 4.97 9.97a.749.749 0 0 0 .326 1.275.749.749 0 0 0 .734-.215L8 9.06l1.97 1.97a.749.749 0 0 0 1.275-.326.749.749 0 0 0-.215-.734L9.06 8l1.97-1.97a.749.749 0 0 0-.326-1.275.749.749 0 0 0-.734.215L8 6.94Z"/></x:symbol><x:symbol id="folder" viewBox="0 0 24 24"><x:path fill="currentColor" d="M2 4.75C2 3.784 2.784 3 3.75 3h4.971c.58 0 1.12.286 1.447.765l1.404 2.063c.046.069.124.11.207.11h8.471c.966 0 1.75.783 1.75 1.75V19.25A1.75 1.75 0 0 1 20.25 21H3.75A1.75 1.75 0 0 1 2 19.25Zm1.75-.25a.25.25 0 0 0-.25.25v14.5c0 .138.112.25.25.25h16.5a.25.25 0 0 0 .25-.25V7.687a.25.25 0 0 0-.25-.25h-8.471a1.75 1.75 0 0 1-1.447-.765L8.928 4.61a.252.252 0 0 0-.208-.11Z"/></x:symbol><x:symbol id="alert_fill_16" viewBox="0 0 16 16"><x:path fill="currentColor" d="M6.457 1.047c.659-1.234 2.427-1.234 3.086 0l6.082 11.378A1.75 1.75 0 0 1 14.082 15H1.918a1.75 1.75 0 0 1-1.543-2.575ZM8 5a.75.75 0 0 0-.75.75v2.5a.75.75 0 0 0 1.5 0v-2.5A.75.75 0 0 0 8 5Zm1 6a1 1 0 1 0-2 0 1 1 0 0 0 2 0Z"/></x:symbol><x:symbol id="info_variant" viewBox="0 0 24 24"><x:path fill="currentColor" d="M13.5,4A1.5,1.5 0 0,0 12,5.5A1.5,1.5 0 0,0 13.5,7A1.5,1.5 0 0,0 15,5.5A1.5,1.5 0 0,0 13.5,4M13.14,8.77C11.95,8.87 8.7,11.46 8.7,11.46C8.5,11.61 8.56,11.6 8.72,11.88C8.88,12.15 8.86,12.17 9.05,12.04C9.25,11.91 9.58,11.7 10.13,11.36C12.25,10 10.47,13.14 9.56,18.43C9.2,21.05 11.56,19.7 12.17,19.3C12.77,18.91 14.38,17.8 14.54,17.69C14.76,17.54 14.6,17.42 14.43,17.17C14.31,17 14.19,17.12 14.19,17.12C13.54,17.55 12.35,18.45 12.19,17.88C12,17.31 13.22,13.4 13.89,10.71C14,10.07 14.3,8.67 13.14,8.77Z"/></x:symbol><x:symbol id="star_circle_16" viewBox="0 0 16 16"><x:path fill="currentColor" d="M8 16A8 8 0 1 1 8 0a8 8 0 0 1 0 16Zm.252-12.932a.476.476 0 0 0-.682.195l-1.2 2.432-2.684.39a.477.477 0 0 0-.266.816l1.944 1.892-.46 2.674a.479.479 0 0 0 .694.504L8 10.709l2.4 1.261a.478.478 0 0 0 .694-.504l-.458-2.673L12.578 6.9a.479.479 0 0 0-.265-.815l-2.685-.39-1.2-2.432a.473.473 0 0 0-.176-.195Z"/></x:symbol></svg>
