<svg width="100%" height="100%" viewBox="0 0 24 24" version="1.1" xmlns="http://www.w3.org/2000/svg" xmlns:xlink="http://www.w3.org/1999/xlink" xml:space="preserve" xmlns:serif="http://www.serif.com/">
    <symbol id="trino" width="100%" height="100%" viewBox="0 0 24 24" style="fill-rule:evenodd;clip-rule:evenodd;stroke-linejoin:round;stroke-miterlimit:2;">
        <g transform="matrix(1,0,0,1,-5.31372e-05,0)">
            <g id="Trino-Color" serif:id="Trino Color" transform="matrix(0.385035,0,0,0.379798,5.31372e-05,0)">
                <rect x="0" y="0" width="62.332" height="63.192" style="fill:none;"/>
                <g id="Layer_3" transform="matrix(0.986396,0,0,1,10.0123,0.00156571)">
                    <g id="Layer_2">
                        <g id="Layer_31" serif:id="Layer_3">
                            <path d="M39.09,30.67C39.09,29.024 37.736,27.67 36.09,27.67C34.444,27.67 33.09,29.024 33.09,30.67C33.122,31.836 33.89,32.861 35,33.22L35,37.79C33.693,34.442 31.245,31.661 28.09,29.94C28.55,28.94 29.02,28.08 29.47,27.29C31.189,24.747 33.084,22.328 35.14,20.05C36.27,18.71 37.34,17.45 38.21,16.35C40.65,13.29 43.33,8.77 42.83,6.09C42.707,5.33 42.247,4.664 41.58,4.28C38.19,2.28 33.58,8.78 29.05,15.05C26.05,19.19 24.5,25.05 23.79,28.34C22.401,28.036 20.982,27.881 19.56,27.88C17.492,27.874 15.437,28.212 13.48,28.88C13.353,25.21 13.463,21.536 13.81,17.88C14.81,8.37 14.37,2.79 12.52,0.88C12.039,0.299 11.314,-0.027 10.56,0C5.1,0.27 5.72,16.58 5.81,18.44C6.03,22.9 7.81,28.32 8.89,31.32C6.37,33.313 4.535,36.044 3.64,39.13L3.25,39.13C3.203,39.128 3.155,39.127 3.108,39.127C1.442,39.127 0.057,40.465 -0,42.13L0,47.3C0.063,48.966 1.45,50.303 3.118,50.303C3.162,50.303 3.206,50.302 3.25,50.3L3.91,50.3C4.662,52.062 5.784,53.641 7.2,54.93L6.2,55.81C5.718,56.226 5.659,56.963 6.07,57.45C9.07,61.1 13.98,63.19 19.49,63.19C25,63.19 29.93,61.1 32.91,57.45C33.321,56.963 33.262,56.226 32.78,55.81L31.78,54.93C33.2,53.613 34.322,52.007 35.07,50.22L35.82,50.22C35.864,50.222 35.908,50.223 35.952,50.223C37.62,50.223 39.007,48.886 39.07,47.22L39.07,42.09C39.04,40.893 38.282,39.829 37.16,39.41L37.16,33.22C38.279,32.871 39.058,31.842 39.09,30.67Z" style="fill:rgb(205,204,204);fill-rule:nonzero;"/>
                            <path d="M14.62,55.74C15.54,55.13 13.12,55.36 12.92,54.95C11.954,54.864 10.996,54.694 10.06,54.44C8.36,53.99 4.28,51.25 3.84,48.62C3.4,45.99 3.84,41 5.68,38C6.832,36.172 8.318,34.578 10.06,33.3C11.802,32.022 6.49,24.81 6.19,18.4C5.89,11.99 6.39,0.58 10.57,0.38C14.75,0.18 14.14,10.86 13.43,17.81C13.008,22.425 12.942,27.065 13.23,31.69C15.011,31.124 16.862,30.815 18.73,30.77C20.376,30.732 22.02,30.886 23.63,31.23C25.24,31.574 24.96,21.39 29.34,15.23C33.72,9.07 38.34,2.78 41.34,4.57C44.34,6.36 40.52,12.75 37.87,16.08C35.22,19.41 30.63,24.41 29.1,27.08C28.097,28.857 27.212,30.697 26.45,32.59C29.178,33.99 31.41,36.197 32.84,38.91C35,43.22 35.16,48.52 34,50.77C32.821,52.872 30.762,54.341 28.39,54.77C27.06,54.83 21.47,56.22 21.47,56.22L14.62,55.74Z" style="fill:white;fill-rule:nonzero;"/>
                            <path d="M24.41,31.32C24.41,31.32 27.75,22.61 30.74,17.72C33.73,12.83 37.74,9.13 39,9.88C40.26,10.63 36.43,15.2 33.07,19.69C30.333,23.655 27.851,27.79 25.64,32.07L24.41,31.32Z" style="fill:rgb(221,0,161);fill-rule:nonzero;"/>
                            <path d="M11,32.81L12,32.07C12,32.07 11.86,23.36 12,18.07C12.14,12.78 12.41,6.17 10.64,6.23C8.87,6.29 7.64,11.4 8.33,18.61C8.827,23.409 9.72,28.158 11,32.81Z" style="fill:rgb(221,0,161);fill-rule:nonzero;"/>
                            <circle cx="8.02" cy="49.54" r="1.94" style="fill:rgb(249,216,210);"/>
                            <circle cx="30.95" cy="49.54" r="1.94" style="fill:rgb(249,216,210);"/>
                            <path d="M22.7,49.38C22.672,49.364 22.641,49.355 22.609,49.355C22.542,49.355 22.481,49.392 22.45,49.45C22.419,49.508 21.87,50.45 21.03,50.51C20.455,50.493 19.912,50.24 19.53,49.81L19.53,48.33C20.07,48.03 20.94,47.13 20.94,46.82C20.784,46.14 20.145,45.673 19.45,45.73C18.45,45.73 17.75,46.38 17.75,46.92C17.75,47.46 18.85,48.16 19.16,48.36L19.16,49.82C18.841,50.225 18.364,50.476 17.85,50.51C17.06,50.51 16.46,49.43 16.45,49.42C16.402,49.331 16.291,49.296 16.2,49.34C16.11,49.392 16.075,49.506 16.12,49.6C16.165,49.694 16.83,50.89 17.85,50.89C18.432,50.865 18.979,50.6 19.36,50.16C19.775,50.595 20.34,50.856 20.94,50.89L21.06,50.89C21.789,50.746 22.417,50.284 22.77,49.63C22.786,49.602 22.795,49.571 22.795,49.539C22.795,49.472 22.758,49.411 22.7,49.38Z" style="fill:rgb(16,17,14);fill-rule:nonzero;"/>
                            <path d="M10.06,33.32C10.06,33.32 7.29,26.32 6.76,22.66C6.23,19 5.76,12.89 6.46,8.82C6.761,6.945 7.168,5.089 7.68,3.26C8.192,1.431 6.39,12.75 6.87,16.9C7.35,21.05 10.06,33.32 10.06,33.32Z" style="fill:rgb(229,229,229);fill-rule:nonzero;"/>
                            <path d="M23.63,31.23C23.63,31.23 25.63,20.64 28.54,16.48C31.45,12.32 35.06,7.27 36.89,6L38.72,4.72C38.72,4.72 31.38,12.42 28.54,18.72C25.7,25.02 23.63,31.23 23.63,31.23Z" style="fill:rgb(229,229,229);fill-rule:nonzero;"/>
                            <path d="M12,43.23C11.997,43.23 11.993,43.23 11.99,43.23C11.156,43.23 10.47,43.916 10.47,44.75C10.47,45.584 11.156,46.27 11.99,46.27C12.824,46.27 13.51,45.584 13.51,44.75C13.51,43.92 12.83,43.235 12,43.23ZM12.43,44.64C12.205,44.64 12.02,44.455 12.02,44.23C12.02,44.005 12.205,43.82 12.43,43.82C12.655,43.82 12.84,44.005 12.84,44.23C12.84,44.23 12.84,44.23 12.84,44.23C12.84,44.455 12.655,44.64 12.43,44.64C12.423,44.64 12.417,44.64 12.41,44.64L12.43,44.64Z" style="fill:rgb(16,17,14);fill-rule:nonzero;"/>
                            <path d="M26.92,43.23C26.086,43.23 25.4,43.916 25.4,44.75C25.4,45.584 26.086,46.27 26.92,46.27C27.754,46.27 28.44,45.584 28.44,44.75C28.44,43.916 27.754,43.23 26.92,43.23ZM27.35,44.64C27.127,44.635 26.945,44.453 26.94,44.23C26.972,44.026 27.149,43.875 27.355,43.875C27.561,43.875 27.738,44.026 27.77,44.23C27.765,44.457 27.577,44.64 27.35,44.64Z" style="fill:rgb(16,17,14);fill-rule:nonzero;"/>
                            <ellipse cx="19.73" cy="45.32" rx="14.1" ry="10.16" style="fill:rgb(138,204,206);fill-opacity:0.2;"/>
                            <path d="M36.8,39.67L36.8,33C37.879,32.762 38.669,31.823 38.72,30.72C38.577,29.38 37.433,28.352 36.085,28.352C34.737,28.352 33.593,29.38 33.45,30.72C33.496,31.822 34.284,32.761 35.36,33L35.36,39.5L35.17,39.5C33.17,32.56 27.26,28.25 19.55,28.25C11.84,28.25 5.89,32.52 3.92,39.5L3.25,39.5C1.752,39.427 0.455,40.592 0.37,42.09L0.37,47.26C0.461,48.754 1.755,49.914 3.25,49.84L4.16,49.84C4.933,51.801 6.168,53.548 7.76,54.93L6.46,56.09C6.282,56.24 6.179,56.461 6.179,56.694C6.179,56.884 6.247,57.067 6.37,57.21C9.29,60.74 14.08,62.81 19.5,62.81C24.92,62.81 29.71,60.81 32.63,57.21C32.753,57.067 32.821,56.884 32.821,56.694C32.821,56.461 32.718,56.24 32.54,56.09L31.24,54.93C32.825,53.542 34.059,51.797 34.84,49.84L35.84,49.84C37.335,49.914 38.629,48.754 38.72,47.26L38.72,42.09C38.674,40.955 37.895,39.973 36.8,39.67ZM19.55,35.62C26.69,35.62 32.49,40.32 32.49,46.09C32.49,52.34 25.97,55.09 19.55,55.09C13.13,55.09 6.61,52.29 6.61,46.09C6.61,40.32 12.41,35.62 19.55,35.62Z" style="fill:white;fill-rule:nonzero;"/>
                            <path d="M37.28,45.53L35.36,45.53L35.36,44.59C35.359,43.314 35.232,42.041 34.98,40.79L35.79,40.79C35.82,40.788 35.851,40.787 35.881,40.787C36.604,40.787 37.205,41.368 37.23,42.09L37.28,45.53Z" style="fill:rgb(81,81,81);fill-rule:nonzero;"/>
                            <path d="M35.84,48.55L34.84,48.55C35.03,47.844 35.174,47.125 35.27,46.4L37.27,46.4L37.27,47.26C37.245,47.977 36.648,48.553 35.931,48.553C35.901,48.553 35.87,48.552 35.84,48.55Z" style="fill:rgb(81,81,81);fill-rule:nonzero;"/>
                            <path d="M19.55,61.48C14.75,61.48 10.49,59.75 7.8,56.69L9.15,55.49C12.222,57.541 15.857,58.59 19.55,58.49C23.243,58.588 26.877,57.54 29.95,55.49L31.29,56.69C28.61,59.75 24.34,61.48 19.55,61.48Z" style="fill:rgb(81,81,81);fill-rule:nonzero;"/>
                            <path d="M3.25,40.79L4.11,40.79C3.86,42.041 3.733,43.314 3.73,44.59C3.706,44.903 3.706,45.217 3.73,45.53L1.86,45.53L1.86,42.09C1.86,42.082 1.86,42.073 1.86,42.065C1.86,41.363 2.438,40.785 3.14,40.785C3.177,40.785 3.213,40.787 3.25,40.79Z" style="fill:rgb(81,81,81);fill-rule:nonzero;"/>
                            <path d="M19.55,34.76C17.926,34.765 16.31,34.997 14.75,35.45L14.75,30.24C16.311,29.797 17.927,29.578 19.55,29.59C21.169,29.579 22.782,29.798 24.34,30.24L24.34,35.49C22.79,35.005 21.174,34.759 19.55,34.76Z" style="fill-rule:nonzero;"/>
                            <path d="M13.8,30.54L13.8,35.8C9,37.56 5.65,41.53 5.65,46.09C5.65,52 11.26,56 19.55,56C27.84,56 33.45,52 33.45,46.09C33.45,41.53 30.09,37.56 25.3,35.8L25.3,30.54C30.91,32.54 34.41,37.73 34.41,44.63C34.41,52.39 28.46,57.63 19.55,57.63C10.64,57.63 4.69,52.42 4.69,44.63C4.69,37.73 8.19,32.56 13.8,30.54Z" style="fill:rgb(81,81,81);fill-rule:nonzero;"/>
                            <path d="M1.81,46.4L3.81,46.4C3.901,47.126 4.045,47.845 4.24,48.55L3.24,48.55C3.21,48.552 3.179,48.553 3.149,48.553C2.43,48.553 1.83,47.978 1.8,47.26L1.81,46.4Z" style="fill:rgb(81,81,81);fill-rule:nonzero;"/>
                            <ellipse cx="36.08" cy="30.67" rx="1.2" ry="1.08" style="fill:rgb(81,81,81);"/>
                        </g>
                    </g>
                </g>
            </g>
        </g>
    </symbol>
    <use xlink:href="#trino" />
</svg>
