<svg version="1.1" xmlns="http://www.w3.org/2000/svg">
    <symbol id="sym" width="100%" height="100%" viewBox="0 0 200 200" version="1.1" xmlns="http://www.w3.org/2000/svg" xmlns:xlink="http://www.w3.org/1999/xlink" xml:space="preserve" xmlns:serif="http://www.serif.com/" style="fill-rule:evenodd;clip-rule:evenodd;stroke-linejoin:round;stroke-miterlimit:2;">
        <g transform="matrix(1,0,0,1,-334,-304.5)">
            <g id="White" transform="matrix(0.8,0,0,1.06952,334,-16.3556)">
                <clipPath id="_clip1">
                    <rect x="0" y="300" width="250" height="187"/>
                </clipPath>
                <g clip-path="url(#_clip1)">
                    <g transform="matrix(1.25,0,0,0.935,-63.599,253.25)">
                        <g transform="matrix(1,0,0,1,-12.5,25)">
                            <path d="M171.857,146.784C172.231,148.654 173.873,150 175.779,150C189.377,150 241.375,150 257.621,150C258.819,150 259.954,149.463 260.714,148.536C261.474,147.609 261.778,146.391 261.543,145.216C259.52,135.099 254.853,111.766 253.143,103.216C252.769,101.346 251.128,100 249.221,100C241.703,100 223.297,100 215.779,100C213.872,100 212.231,98.654 211.857,96.784C210.051,87.756 204.949,62.244 203.143,53.216C202.769,51.346 201.128,50 199.221,50C190.646,50 167.521,50 157.379,50C156.181,50 155.046,50.537 154.286,51.464C153.526,52.391 153.222,53.609 153.457,54.784C156.947,72.235 168.94,132.201 171.857,146.784Z" style="fill:currentColor;"/>
                        </g>
                        <g transform="matrix(1,0,0,1,12.5,25)">
                            <path d="M38.457,104.784C38.222,103.609 38.526,102.391 39.286,101.464C40.046,100.537 41.181,100 42.379,100C58.625,100 110.623,100 124.221,100C126.127,100 127.769,101.346 128.143,103.216C131.06,117.799 143.053,177.765 146.543,195.216C146.778,196.391 146.474,197.609 145.714,198.536C144.954,199.463 143.819,200 142.621,200C132.479,200 109.354,200 100.779,200C98.872,200 97.231,198.654 96.857,196.784C95.051,187.756 89.949,162.244 88.143,153.216C87.769,151.346 86.128,150 84.221,150C76.703,150 58.297,150 50.779,150C48.872,150 47.231,148.654 46.857,146.784C45.147,138.234 40.48,114.901 38.457,104.784Z" style="fill:currentColor;"/>
                        </g>
                    </g>
                </g>
            </g>
        </g>
    </symbol>
</svg>
