<svg version="1.1" xmlns="http://www.w3.org/2000/svg" xmlns:xlink="http://www.w3.org/1999/xlink">
    <symbol id="package_cut_16" viewBox="0 0 16 16">
        <path fill="currentColor" d="M14.995,4.817L8.75,8.432L8.751,15.675C8.233,15.921 7.623,15.898 7.122,15.608L1.872,12.563C1.333,12.25 1,11.672 1,11.049L1,4.951C1,4.327 1.332,3.75 1.872,3.437L7.122,0.392C7.664,0.077 8.336,0.077 8.878,0.392L14.128,3.437C14.629,3.728 14.951,4.246 14.995,4.817ZM2.5,5.677L2.5,11.049C2.5,11.139 2.547,11.22 2.625,11.265L7.25,13.948L7.25,8.432L2.5,5.677ZM7.875,1.69L3.245,4.375L8,7.133L12.755,4.375L8.125,1.69C8.048,1.645 7.952,1.645 7.875,1.69Z"/>
    </symbol>
    <use xlink:href="#package_cut_16" />
</svg>
