<svg version="1.1" xmlns="http://www.w3.org/2000/svg" xmlns:xlink="http://www.w3.org/1999/xlink">
    <symbol id="processor" viewBox="0 0 24 24">
        <g id="Artboard1" transform="matrix(0.0342333,0,0,0.0327011,-6.12419,-4.82029)">
            <g transform="matrix(1.02696,0,0,1.07508,2.70781,-36.5103)">
                <g transform="matrix(1,0,0,1,0.895762,0.404353)">
                    <path d="M682.667,298.667C706.073,298.667 725.333,317.927 725.333,341.333L725.333,682.667C725.333,706.073 706.073,725.333 682.667,725.333L341.333,725.333C317.927,725.333 298.667,706.073 298.667,682.667L298.667,341.333C298.667,317.927 317.927,298.667 341.333,298.667L682.667,298.667M682.667,256L341.333,256C294.521,256 256,294.521 256,341.333L256,682.667C256,729.479 294.521,768 341.333,768L682.667,768C729.479,768 768,729.479 768,682.667L768,341.333C768,294.521 729.479,256 682.667,256Z" fill="currentColor" />
                </g>
                <g transform="matrix(1,0,0,1,0.895762,0.404353)">
                    <path d="M554.667,426.667C578.073,426.667 597.333,445.927 597.333,469.333L597.333,554.667C597.333,578.073 578.073,597.333 554.667,597.333L469.333,597.333C445.927,597.333 426.667,578.073 426.667,554.667L426.667,469.333C426.667,445.927 445.927,426.667 469.333,426.667L554.667,426.667M554.667,384L469.333,384C422.521,384 384,422.521 384,469.333L384,554.667C384,601.479 422.521,640 469.333,640L554.667,640C601.479,640 640,601.479 640,554.667L640,469.333C640,422.521 601.479,384 554.667,384ZM405.333,298.667C393.63,298.667 384,289.036 384,277.333L384,192C384,180.297 393.63,170.667 405.333,170.667C417.036,170.667 426.667,180.297 426.667,192L426.667,277.333C426.667,289.036 417.036,298.667 405.333,298.667L405.333,298.667ZM618.667,298.667C606.964,298.667 597.333,289.036 597.333,277.333L597.333,192C597.333,180.297 606.964,170.667 618.667,170.667C630.37,170.667 640,180.297 640,192L640,277.333C640,289.036 630.37,298.667 618.667,298.667ZM405.333,853.333C393.63,853.333 384,843.703 384,832L384,746.667C384,734.964 393.63,725.333 405.333,725.333C417.036,725.333 426.667,734.964 426.667,746.667L426.667,832C426.667,843.703 417.036,853.333 405.333,853.333L405.333,853.333ZM618.667,853.333C606.964,853.333 597.333,843.703 597.333,832L597.333,746.667C597.333,734.964 606.964,725.333 618.667,725.333C630.37,725.333 640,734.964 640,746.667L640,832C640,843.703 630.37,853.333 618.667,853.333ZM832,426.667L746.667,426.667C734.964,426.667 725.333,417.036 725.333,405.333C725.333,393.63 734.964,384 746.667,384L832,384C843.703,384 853.333,393.63 853.333,405.333C853.333,417.036 843.703,426.667 832,426.667ZM832,640L746.667,640C734.964,640 725.333,630.37 725.333,618.667C725.333,606.964 734.964,597.333 746.667,597.333L832,597.333C843.703,597.333 853.333,606.964 853.333,618.667C853.333,630.37 843.703,640 832,640ZM277.333,426.667L192,426.667C180.297,426.667 170.667,417.036 170.667,405.333C170.667,393.63 180.297,384 192,384L277.333,384C289.036,384 298.667,393.63 298.667,405.333C298.667,417.036 289.036,426.667 277.333,426.667ZM277.333,640L192,640C180.297,640 170.667,630.37 170.667,618.667C170.667,606.964 180.297,597.333 192,597.333L277.333,597.333C289.036,597.333 298.667,606.964 298.667,618.667C298.667,630.37 289.036,640 277.333,640Z" fill="currentColor" />
                </g>
            </g>
        </g>
    </symbol>
    <use xlink:href="#processor" />
</svg>
