<svg version="1.1" xmlns="http://www.w3.org/2000/svg" xmlns:xlink="http://www.w3.org/1999/xlink">
    <symbol id="sort_desc_16" viewBox="0 0 16 16">
        <path fill="currentColor" d="M0 4.25a.75.75 0 0 1 .75-.75h7.5a.75.75 0 0 1 0 1.5H.75A.75.75 0 0 1 0 4.25Zm0 4a.75.75 0 0 1 .75-.75h4.5a.75.75 0 0 1 0 1.5H.75A.75.75 0 0 1 0 8.25Zm0 4a.75.75 0 0 1 .75-.75h2.5a.75.75 0 0 1 0 1.5H.75a.75.75 0 0 1-.75-.75ZM13.5 10h2.25a.25.25 0 0 1 .177.427l-3 3a.25.25 0 0 1-.354 0l-3-3A.25.25 0 0 1 9.75 10H12V3.75a.75.75 0 0 1 1.5 0V10Z"></path>
    </symbol>
    <use xlink:href="#sort_desc_16" />
</svg>
