<svg version="1.1" xmlns="http://www.w3.org/2000/svg" xmlns:xlink="http://www.w3.org/1999/xlink">
    <symbol id="sym" viewBox="0 0 24 24">
        <g id="Artboard1" transform="matrix(0.880121,0,0,0.985328,0,0)" fill="currentColor" >
            <g transform="matrix(1.11954,0,0,1,-1.62981,-1.80281e-15)">
                <g transform="matrix(1.01489,0,0,1.01489,0,0)">
                    <path d="M12,7.273L12,9.227C12,9.653 11.653,10 11.227,10L2.773,10C2.347,10 2,9.653 2,9.227L2,2.773C2,2.347 2.347,2 2.773,2L11.227,2C11.653,2 12,2.347 12,2.773L12,4.525L11,3.583L11,3L7,3L7,9L11,9L11,6.331L12,7.273Z" />
                </g>
                <g transform="matrix(0.494064,0,0,0.923665,5.21222,0.0589331)">
                    <rect x="3.83" y="4.057" width="6.676" height="1.099" />
                </g>
                <g transform="matrix(0.494064,0,0,0.923665,5.21222,1.83499)">
                    <rect x="3.83" y="4.057" width="6.676" height="1.099"/>
                </g>
                <g transform="matrix(0.494064,0,0,0.923665,5.21222,3.61105)">
                    <rect x="3.83" y="4.057" width="6.676" height="1.099"/>
                </g>
            </g>
            <g transform="matrix(1.11954,0,0,1,12.9919,6.08934)">
                <g transform="matrix(1.01489,0,0,1.01489,-13.0605,-6.08934)">
                    <path d="M14.869,12.275L14.869,9.975L15.869,10.917L15.869,11.333L14.869,12.275ZM15.869,14.08L15.869,15L19.869,15L19.869,9L16.75,9L15.689,8L24.096,8C24.522,8 24.869,8.347 24.869,8.773L24.869,15.227C24.869,15.653 24.522,16 24.096,16L15.642,16C15.215,16 14.869,15.653 14.869,15.227L14.869,15.023L15.869,14.08Z"/>
                </g>
                <g transform="matrix(0.494064,0,0,0.923665,1.91382,0.0589331)">
                    <rect x="3.83" y="4.057" width="6.676" height="1.099"/>
                </g>
                <g transform="matrix(0.494064,0,0,0.923665,1.91382,1.83499)">
                    <rect x="3.83" y="4.057" width="6.676" height="1.099"/>
                </g>
                <g transform="matrix(0.494064,0,0,0.923665,1.91382,3.61105)">
                    <rect x="3.83" y="4.057" width="6.676" height="1.099"/>
                </g>
            </g>
            <g transform="matrix(1.11954,0,0,1,-1.62981,12.1787)">
                <g transform="matrix(1.01489,0,0,1.01489,-1.77636e-15,-12.1787)">
                    <path d="M12,17.725L12,21.227C12,21.653 11.653,22 11.227,22L2.773,22C2.347,22 2,21.653 2,21.227L2,14.773C2,14.347 2.347,14 2.773,14L11.227,14C11.653,14 12,14.347 12,14.773L12,14.977L11,15.919L11,15L7,15L7,21L11,21L11,18.667L12,17.725Z"/>
                </g>
                <g transform="matrix(0.988127,0,0,0.923665,0.021801,0.0589331)">
                    <rect x="3.83" y="4.057" width="6.676" height="1.099"/>
                </g>
                <g transform="matrix(0.988127,0,0,0.923665,0.021801,1.83499)">
                    <rect x="3.83" y="4.057" width="6.676" height="1.099"/>
                </g>
                <g transform="matrix(0.988127,0,0,0.923665,0.021801,3.61105)">
                    <rect x="3.83" y="4.057" width="6.676" height="1.099"/>
                </g>
                <g transform="matrix(0.494064,0,0,0.923665,5.21222,0.0589331)">
                    <rect x="3.83" y="4.057" width="6.676" height="1.099"/>
                </g>
                <g transform="matrix(0.494064,0,0,0.923665,5.21222,1.83499)">
                    <rect x="3.83" y="4.057" width="6.676" height="1.099"/>
                </g>
                <g transform="matrix(0.494064,0,0,0.923665,5.21222,3.61105)">
                    <rect x="3.83" y="4.057" width="6.676" height="1.099"/>
                </g>
            </g>
            <g transform="matrix(1.13621,0,0,1.01489,-1.62981,-1.80281e-15)">
                <path d="M10.25,4.25L16.619,10.25" style="stroke:black;stroke-width:1px;"/>
            </g>
            <g transform="matrix(1.13621,0,0,1.01489,-1.62981,-1.80281e-15)">
                <path d="M16.619,12L10.25,18" style="stroke:black;stroke-width:1px;"/>
            </g>
        </g>
    </symbol>
    <use xlink:href="#sym" />
</svg>
